<?xml version="1.0" encoding="utf-8"?>
<!-- Generator: Adobe Illustrator 25.2.1, SVG Export Plug-In . SVG Version: 6.00 Build 0)  -->
<svg version="1.1" id="Layer" xmlns="http://www.w3.org/2000/svg" xmlns:xlink="http://www.w3.org/1999/xlink" x="0px" y="0px"
	 viewBox="0 0 512 512" style="enable-background:new 0 0 512 512;" xml:space="preserve">
<style type="text/css">
	.st0{fill:#FFFFFF;}
</style>
<path class="st0" d="M509.842,350.349c1.15-2.73,2.158-13.786,2.158-21.661c0-11.403-4.437-22.112-12.875-30.528L313.376,121.243
	c-8.523-8.117-22.037-7.797-30.155,0.736c-8.128,8.533-7.787,22.037,0.736,30.165L447.48,307.236
	c0.045,0.043,0.015,0.119-0.048,0.119H22.005c-11.519,0-21.466,8.844-21.983,20.351c-0.549,12.222,9.21,22.315,21.311,22.315
	h425.584c0.004,0,0.008,0,0.011,0.001L509.842,350.349z"/>
</svg>
