<?xml version="1.0" encoding="utf-8"?>
<!-- Generator: Adobe Illustrator 25.2.1, SVG Export Plug-In . SVG Version: 6.00 Build 0)  -->
<svg version="1.1" id="レイヤー_1" xmlns="http://www.w3.org/2000/svg" xmlns:xlink="http://www.w3.org/1999/xlink" x="0px"
	 y="0px" viewBox="0 0 512 512" style="enable-background:new 0 0 512 512;" xml:space="preserve">
<style type="text/css">
	.st0{fill:#194375;}
	.st1{fill:#FAFAFA;}
</style>
<path class="st0" d="M256,0C114.836,0,0,114.836,0,256s114.836,256,256,256s256-114.836,256-256S397.164,0,256,0z"/>
<path class="st1" d="M385.75,201.75L247.082,340.414c-4.16,4.16-9.621,6.254-15.082,6.254s-10.922-2.094-15.082-6.254
	l-69.332-69.332c-8.344-8.34-8.344-21.824,0-30.164c8.34-8.344,21.82-8.344,30.164,0l54.25,54.25l123.586-123.582
	c8.34-8.344,21.82-8.344,30.164,0C394.09,179.926,394.09,193.406,385.75,201.75z"/>
</svg>
