<?xml version="1.0" encoding="utf-8"?>
<!-- Generator: Adobe Illustrator 26.0.1, SVG Export Plug-In . SVG Version: 6.00 Build 0)  -->
<svg version="1.1" id="レイヤー_1" xmlns="http://www.w3.org/2000/svg" xmlns:xlink="http://www.w3.org/1999/xlink" x="0px"
	 y="0px" viewBox="0 0 488.1 40.1" style="enable-background:new 0 0 488.1 40.1;" xml:space="preserve">
<style type="text/css">
	.st0{fill:#FFFFFF;stroke:#008CD6;stroke-miterlimit:10;}
	.st1{fill:#0056D3;}
	.st2{fill:#008CD6;}
</style>
<path class="st0" d="M472.5,34.4H349.1c-7.4,0-13.3-6-13.3-13.3v-1c0-7.4,6-13.3,13.3-13.3h123.3c7.4,0,13.3,6,13.3,13.3v1
	C485.8,28.4,479.8,34.4,472.5,34.4z"/>
<g>
	<path class="st1" d="M20.9,12.4v8.3h9c0.9,0,1.5,0.7,1.5,1.8s-0.5,1.8-1.5,1.8h-9v7.2c0,1-0.7,1.6-2,1.6c-1.3,0-2-0.6-2-1.6v-7.2
		H7.7c-0.9,0-1.5-0.7-1.5-1.8s0.5-1.8,1.5-1.8h9.2v-8.3h-8c-0.9,0-1.4-0.6-1.4-1.8c0-1.2,0.5-1.8,1.4-1.8h20c0.9,0,1.4,0.6,1.4,1.8
		c0,1.1-0.5,1.8-1.4,1.8H20.9z M12.9,14.1c1.5,2.3,1.9,3.5,1.9,4c0,0.9-1.3,1.9-2.5,1.9c-0.6,0-1-0.4-1.4-1.3
		c-0.2-0.5-0.5-1-1.6-2.9c-0.2-0.3-0.3-0.6-0.3-0.9c0-0.9,1.2-1.9,2.3-1.9C12,13,12.3,13.2,12.9,14.1z M28.9,14.8
		c0,0.4-0.2,1.1-0.9,2.4c-1.3,2.4-1.8,2.9-2.8,2.9c-1.2,0-2.3-0.8-2.3-1.8c0-0.3,0.1-0.6,0.3-0.9c0.7-1.1,1.2-2.1,1.8-3.3
		c0.4-0.8,0.8-1.1,1.5-1.1C27.1,13,28.9,13.7,28.9,14.8z"/>
	<path class="st1" d="M35.7,17.7c-1.3,0-2.2,0-2.2-1.8c0-1.8,1-1.8,2.2-1.8v-4c0-1,0.7-1.5,1.9-1.5c1.2,0,1.9,0.5,1.9,1.5v4h0.8
		c0.9,0,1.5,0.6,1.5,1.8c0,1.1-0.5,1.8-1.5,1.8h-0.8v5.7c0.1,0,0.2,0,0.3,0c1,0,1.9,1.2,1.9,2.5c0,0.8-0.5,1.2-2.8,2.2
		c-2.5,1.1-3.3,1.4-3.9,1.4c-0.9,0-1.8-1.2-1.8-2.4c0-0.8,0.4-1.2,1.5-1.5c0.3-0.1,0.6-0.2,0.9-0.3V17.7z M51.4,16.8
		c-0.3,0.3-0.5,0.5-0.8,0.8c0.7,0.9,1.2,1.9,1.6,3.3c0.5-0.4,1.8-1.6,1.9-1.8c0.6-0.7,0.8-0.8,1.3-0.8c0.9,0,1.9,0.9,1.9,1.8
		c0,1-2,2.6-3.4,3.5c1.2,1.6,2.1,2.6,2.9,3.3c1.3,1.1,1.6,1.5,1.6,2.1c0,1-0.9,1.9-1.9,1.9c-1.2,0-2.6-1.7-3.6-3.1
		c-0.1,0.5-0.1,1-0.1,1.3c-0.2,2.8-1.1,3.7-3.8,3.7c-2.3,0-2.9-0.4-2.9-1.9c0-1,0.5-1.7,1.2-1.7c0.2,0,1.1,0.1,1.2,0.1
		c0.6,0,0.6-0.1,0.7-1.9c-2.9,2.1-6.4,3.8-7.5,3.8c-0.8,0-1.6-0.9-1.6-1.9c0-0.7,0.4-1.1,1.5-1.4c0.5-0.2,1.7-0.6,2.9-1.2
		c1.3-0.6,3.9-2.3,4.5-2.9c0-0.2-0.1-0.5-0.1-0.7c-1.7,1.3-4.9,2.9-5.7,2.9c-0.8,0-1.5-0.9-1.5-1.8c0-0.6,0.4-1.1,1.2-1.4
		c1.3-0.5,3.3-1.3,5.2-2.7c-0.1-0.3-0.2-0.5-0.4-0.8c-0.5,0.3-3.6,2.3-4.9,2.3c-0.8,0-1.6-0.9-1.6-1.9c0-0.7,0.4-1,1.5-1.4
		c1.1-0.4,2.6-1.1,3.7-1.7h-1.4c-0.8,0-1.3-0.6-1.3-1.6c0-0.3,0-0.4,0.1-0.7c-0.2,0.1-0.4,0.1-0.6,0.1c-1.1,0-1.8-0.5-1.8-1.5v-1.7
		c0-1.9,0.6-2.5,2.5-2.5h11.4c1.9,0,2.5,0.6,2.5,2.5V13c0,0.9-0.6,1.5-1.8,1.5c-0.1,0-0.3,0-0.5,0c0.1,0.2,0.1,0.4,0.1,0.6
		c0,1-0.5,1.6-1.3,1.6H51.4z M54.3,13.5c-0.1-0.3-0.1-0.3-0.1-0.8c0-0.5-0.1-0.6-0.6-0.6h-7.9c-0.6,0-0.6,0.2-0.6,0.9
		c0,0.1,0,0.2-0.1,0.4H54.3z"/>
	<path class="st1" d="M70.7,10.7V9.6c0-1.1,0.8-1.7,2.1-1.7c1.3,0,2.1,0.6,2.1,1.7v1.1h9c0.9,0,1.5,0.6,1.5,1.8
		c0,1.2-0.5,1.9-1.5,1.9h-9v2.1H80c2.4,0,3,0.6,3,3v8c0,2.4-0.8,3.2-3.4,3.2c-2.8,0-3.4-0.4-3.4-1.8c0-1.2,0.5-1.9,1.2-1.9
		c0.2,0,0.9,0.1,1,0.1c0.5,0,0.6-0.2,0.6-1v-5.2c0-0.4-0.2-0.6-0.6-0.6h-3.5v11.5c0,1.1-0.8,1.7-2.1,1.7c-1.3,0-2.1-0.6-2.1-1.7
		V20.2h-3.5c-0.4,0-0.6,0.2-0.6,0.6v8.3c0,1-0.7,1.6-2,1.6c-1.2,0-2-0.6-2-1.6v-9.6c0-2.5,0.6-3,3-3h5.1v-2.1h-9
		c-1,0-1.5-0.6-1.5-1.8c0-1.2,0.5-1.9,1.5-1.9H70.7z"/>
	<path class="st1" d="M97.5,10.1c0,0.7-0.5,7.3-1.5,11c-0.6,2.1-1.5,5.4-3.9,9.1c-1.2,1.8-1.9,2.4-2.8,2.4c-1.3,0-2.6-1.2-2.6-2.3
		c0-0.7,0.2-1.1,1.2-2.5c2.7-3.6,4.2-8.6,4.7-15.7c0.2-2.4,0.3-3,0.6-3.4c0.3-0.4,1.1-0.7,1.9-0.7C96.7,8.1,97.5,8.8,97.5,10.1z
		 M106.4,10.7c0,0.4,0.7,11.3,5,16.9c1.1,1.3,1.3,1.8,1.3,2.6c0,1.3-1.2,2.5-2.5,2.5c-0.8,0-1.5-0.4-2.2-1.2c-0.7-0.8-1.9-2.9-2.8-5
		c-2.3-5.3-2.8-8.5-3.5-14.9c-0.1-0.5-0.1-1.1-0.1-1.4c0-1.4,0.8-2.1,2.5-2.1C105.8,8.1,106.3,8.8,106.4,10.7z"/>
	<path class="st1" d="M119.8,9.2c2.2,0,10.4-0.2,14-0.8c1-0.2,1.4-0.2,1.7-0.2c0.5,0,1.4,0.3,1.4,1.8c0,1.2-0.5,1.3-3,1.6
		c-1.4,0.2-3.5,0.4-5.2,0.4v0.9h9.1c0.8,0,1.2,0.6,1.2,1.6c0,1-0.5,1.5-1.2,1.5h-9.1v0.7h5.2c1.9,0,2.5,0.6,2.5,2.5v3.3
		c0,1.9-0.6,2.5-2.5,2.5h-5.2v0.8h7.6c0.7,0,1.1,0.5,1.1,1.3c0,0.8-0.4,1.3-1.1,1.3h-7.6v0.9h9.3c0.8,0,1.2,0.6,1.2,1.5
		c0,1-0.4,1.6-1.2,1.6h-22.4c-0.8,0-1.2-0.6-1.2-1.6c0-1,0.5-1.5,1.2-1.5h9.3v-0.9h-7.5c-0.7,0-1-0.5-1-1.3c0-0.8,0.4-1.3,1-1.3h7.5
		v-0.8h-5.1c-1.9,0-2.5-0.6-2.5-2.5v-3.3c0-1.9,0.6-2.5,2.5-2.5h5.1V16h-9c-0.8,0-1.2-0.6-1.2-1.5c0-1,0.4-1.6,1.2-1.6h9v-0.7
		c-2.1,0.1-5.5,0.1-6.9,0.2c-1.1,0-1.6-0.5-1.6-1.5c0-1.2,0.5-1.6,1.8-1.6c0,0,0.4,0,1.3,0H119.8z M124.9,20v-0.8h-3.3
		c-0.5,0-0.5,0.2-0.5,0.8H124.9z M124.9,21.9h-3.8c0,0.3,0,0.5,0.1,0.6c0.1,0.1,0.2,0.2,0.4,0.2h3.3V21.9z M128.8,20h3.8
		c0-0.3,0-0.5-0.1-0.6c-0.1-0.1-0.2-0.2-0.4-0.2h-3.3V20z M128.8,21.9v0.8h3.3c0.5,0,0.5-0.2,0.5-0.8H128.8z"/>
	<path class="st1" d="M141.7,12c0-1.9,0.6-2.5,2.5-2.5h3.7c1.9,0,2.5,0.6,2.5,2.5v13.6c0,1.9-0.6,2.5-2.5,2.5h-3.7
		c-2,0-2.5-0.6-2.5-2.5V12z M146.8,13.6c0-0.4-0.1-0.4-1-0.4c-0.4,0-0.4,0.1-0.4,0.4v10.5c0,0.4,0.1,0.4,1,0.4
		c0.4,0,0.4-0.1,0.4-0.4V13.6z M160.1,16.3c0,0.8,0,2-0.1,3h4.9c1,0,1.5,0.7,1.5,1.9c0,1.2-0.6,1.9-1.5,1.9h-4.3
		c0.8,2.3,2.8,4.8,4.8,6.1c1,0.7,1.2,1,1.2,1.7c0,1.3-1.1,2.5-2.2,2.5c-1.6,0-4.4-2.5-6.3-6.3c-1.1,2.2-4.6,6.3-7.3,6.3
		c-1.1,0-2.1-1.1-2.1-2.3c0-0.7,0.4-1.2,1.7-1.9c2.3-1.3,4.1-3.5,4.9-6.1h-3.2c-1,0-1.5-0.7-1.5-1.9c0-1.2,0.5-1.9,1.5-1.9h3.9
		c0.1-0.9,0.1-1.9,0.1-3h-3.6c-0.9,0-1.4-0.6-1.4-1.8c0-1.8,0.9-1.8,2.1-1.8c-0.3-0.7-0.8-1.5-1.1-2.1c-0.2-0.3-0.2-0.6-0.2-0.8
		c0-0.9,1.2-1.8,2.5-1.8c0.8,0,1.1,0.2,1.7,1.3c0.6,1.1,0.8,1.6,0.8,2.1c0,0.5-0.3,0.9-0.9,1.3h3.1c0.3-0.6,0.7-1.5,0.9-2.2
		c0.8-2.2,1.1-2.5,2.1-2.5c1.3,0,2.3,0.7,2.3,1.5c0,0.7-0.6,2.2-1.1,3.1c1.2,0,2.2,0,2.2,1.8c0,1.1-0.5,1.8-1.4,1.8H160.1z"/>
	<path class="st1" d="M178.6,8.9c1.8,0,2.5,0.5,2.6,1.8H192c1,0,1.5,0.7,1.5,1.9s-0.5,1.9-1.5,1.9h-2.2v14.9c0,2.7-0.9,3.5-3.8,3.5
		c-3.6,0-3.9-0.9-3.9-2.1s0.6-2.1,1.4-2.1c0.3,0,0.9,0.1,1.3,0.1c0.8,0,1-0.2,1-1V14.4h-4.5v12.5c0,2-0.6,2.5-2.5,2.5h-7.2
		c-2,0-2.5-0.6-2.5-2.5V11.4c0-1.9,0.6-2.5,2.5-2.5H178.6z M173.6,17.4v-4.9c-1.2,0-1.3,0-1.3,0.6v4.3H173.6z M173.6,20.6h-1.3v4.7
		c0,0.6,0.1,0.6,1.3,0.6V20.6z M176.6,17.4h1.3v-4.3c0-0.6-0.1-0.6-1.3-0.6V17.4z M176.6,20.6v5.3c1.2,0,1.3,0,1.3-0.6v-4.7H176.6z"
		/>
	<path class="st1" d="M207.1,25.2c-1.8,3.9-3.5,5.4-6,5.4c-3.4,0-5.6-3-5.6-7.6c0-7.5,5.6-12.8,13.5-12.8c6.9,0,11.1,3.9,11.1,10.3
		c0,3.2-0.8,5.8-2.4,7.9c-1.8,2.2-4.9,4.2-6.9,4.2c-1.3,0-2.3-1.1-2.3-2.5c0-1.2,0.6-1.5,2.1-2.1c1.6-0.6,5.1-2.1,5.1-7.4
		c0-2.1-0.6-3.8-1.9-5c-0.9-0.9-1.7-1.3-3.3-1.5C209.6,18.5,208.5,22,207.1,25.2z M199.5,22.8c0,1.8,0.7,3.2,1.6,3.2
		c1.6,0,3.6-5.5,5.1-11.8C200.6,15.4,199.5,20.8,199.5,22.8z"/>
	<path class="st1" d="M246.4,10.1c0.8,0,1.2,0.6,1.2,1.6c0,1.6-0.9,1.6-1.8,1.6c-0.4,1.6-1.1,3.5-2.3,4.9c0.5,0.4,0.8,0.5,2.6,1.3
		c0.9,0.4,1.2,0.8,1.2,1.4c0,1-0.7,1.9-1.5,1.9c-1,0-3.3-1.1-4.8-2.3c-1.3,0.9-3.9,2-4.9,2c-0.8,0-1.5-0.9-1.5-2
		c0-0.6,0.3-0.9,1.1-1.2c1.9-0.7,2.4-0.9,2.9-1.2c-0.4-0.5-0.9-1.3-1.3-2c-0.3,0.2-0.6,0.4-0.9,0.4c-0.8,0-1.7-0.6-1.9-1.2
		c0,1.8,0,2.4-1.6,2.4h-1.7c0.9,0.5,2.1,1.2,2.6,1.7c0.3,0.2,0.4,0.4,0.4,0.8c0,0.8-0.6,1.5-1.2,1.5c-0.5,0-0.6-0.1-2.3-1.3
		c-0.1-0.1-0.2-0.2-0.4-0.3v0.9c0,0.8-0.6,1.3-1.6,1.3c-1,0-1.6-0.5-1.6-1.3v-1c-1.7,1.6-3.2,2.3-3.9,2.3c-0.7,0-1.3-0.8-1.3-1.6
		c0-0.5,0.2-0.9,0.8-1.2c1.3-0.7,2-1.1,3-2h-1.1c-1.3,0-1.7-0.4-1.7-1.6v-1.4c0-1.3,0.4-1.6,1.7-1.6h2.6V12h-4
		c-0.7,0-1.1-0.5-1.1-1.3c0-0.8,0.4-1.3,1.1-1.3h4c0-0.7,0-1.6,1.6-1.6s1.6,0.9,1.6,1.6h4c0.7,0,1.1,0.5,1.1,1.3
		c0,0.8-0.4,1.3-1.1,1.3h-4v0.8h2.5c1.3,0,1.7,0.3,1.8,1.3c0.1-0.3,0.3-0.6,1-1.4c0.7-0.8,1.3-1.9,1.7-2.9c0.7-1.8,0.9-2,1.8-2
		c1.1,0,1.9,0.6,1.9,1.3c0,0.2-0.1,0.5-0.2,0.9H246.4z M237.1,29.4h9.2c0.8,0,1.2,0.6,1.2,1.6c0,1-0.4,1.6-1.2,1.6h-22.8
		c-0.8,0-1.3-0.6-1.3-1.6c0-1,0.5-1.6,1.3-1.6h3v-1.5c0-0.9,0.7-1.5,1.9-1.5c1.2,0,1.9,0.5,1.9,1.5v1.5h3.1v-3.8H225
		c-0.8,0-1.2-0.5-1.2-1.5c0-0.9,0.4-1.5,1.2-1.5h19.5c0.7,0,1.2,0.5,1.2,1.5c0,0.9-0.4,1.5-1.2,1.5h-7.5v0.7h6.1
		c0.6,0,0.9,0.4,0.9,1.2s-0.4,1.2-0.9,1.2h-6.1V29.4z M227.3,14.5c-0.9,0-1,0-1,0.5v0.3c0,0.5,0.1,0.5,1,0.5V14.5z M231.6,15
		c0-0.5-0.1-0.5-1.1-0.5v1.2c1,0,1.1,0,1.1-0.5V15z M239.4,13.3c0.3,0.7,1.1,1.9,1.7,2.6c0.6-0.8,0.9-1.4,1.3-2.7L239.4,13.3
		L239.4,13.3z"/>
	<path class="st1" d="M262.5,8.8c0.9,0,1.5,0.7,1.5,1.9c0,1.8-1,1.8-2.1,1.8v4.6h0.9c0.9,0,1.5,0.7,1.5,1.9c0,1.1-0.5,1.8-1.5,1.8
		h-0.9v10.7c0,1-0.7,1.5-1.9,1.5c-1.2,0-1.9-0.5-1.9-1.5V20.8h-2c0,2.9-0.6,6.3-1.5,8.9c-0.9,2.5-1.5,3.2-2.8,3.2
		c-1.2,0-2.2-0.9-2.2-1.9c0-0.8,0.4-1.2,0.9-2.1c1.4-2.4,1.5-4.7,1.8-8h-1.5c-1,0-1.5-0.7-1.5-1.9c0-1.2,0.5-1.9,1.5-1.9h1.6v-4.6
		h-1.1c-0.9,0-1.5-0.6-1.5-1.8c0-1.2,0.5-1.9,1.5-1.9H262.5z M258.1,12.5h-1.9v4.6h1.9V12.5z M274.6,24.6c0,0.6-0.3,1.3-1.2,2.2
		c-3,3.2-7.2,6.1-8.8,6.1c-1,0-1.9-1.2-1.9-2.4c0-0.7,0.3-1.1,1.7-1.8c2.4-1.3,4.6-3.1,6.3-5.1c0.6-0.8,1-1,1.6-1
		C273.5,22.6,274.6,23.6,274.6,24.6z M273.4,10.2c0,1-0.8,1.8-3.3,3.4c-0.4,0.2-3.5,2.2-4.8,2.2c-1,0-1.9-1.1-1.9-2.4
		c0-1,0.4-1.2,2.1-1.9c1.3-0.5,3.2-1.8,4.2-2.8c0.7-0.7,1-0.8,1.5-0.8C272.4,8,273.4,9,273.4,10.2z M273.6,17.6c0,1-1,2.1-3.5,3.8
		c-2.2,1.5-3.3,2-4.1,2c-1.1,0-1.9-1-1.9-2.2c0-0.7,0.4-1.2,1-1.5c2.2-1,3.6-1.9,4.8-3.2c0.7-0.7,1-0.9,1.6-0.9
		C272.5,15.6,273.6,16.6,273.6,17.6z"/>
	<path class="st1" d="M288.7,10.6c1.4,0,2.1,0.6,2.1,1.9c0,0.4-0.1,1.1-0.2,1.8c0.4-0.2,0.7-0.3,1-0.3c0.6,0,0.9,0.2,1.2,0.8V9.5
		c0-1,0.7-1.6,2-1.6c1.2,0,2,0.6,2,1.6v10.8c0.9,0.8,1.8,1.4,4,2.7c0.8,0.5,0.9,0.8,0.9,1.6c0,1.3-0.9,2.4-1.9,2.4
		c-0.7,0-1.4-0.3-3-1.5v6.3c0,1-0.7,1.6-2,1.6c-1.3,0-2-0.6-2-1.6v-9.6c-1.1-1.1-2.3-2.9-2.9-4.5c-0.9,3.9-2.7,7.7-4.7,10.4
		c-0.1,0.1-3.9,4.9-6.1,4.9c-1.1,0-2.1-1-2.1-2.2c0-0.9,0.2-1.2,1.8-2.2c1.8-1.2,3.5-3.1,4.9-5.3c-0.6-0.6-0.9-0.9-1.7-1.4
		c-1-0.7-1.2-0.9-1.2-1.4c0-1.2,1.1-2.4,2.1-2.4c0.6,0,1.3,0.4,2.5,1.7c0.8-1.9,1.4-5.1,1.4-5.4c0-0.2-0.1-0.3-0.5-0.3h-2.9
		c-0.8,1.9-1.8,3.8-2.7,5.1c-1,1.4-1.4,1.8-2.2,1.8c-1.2,0-2.2-1-2.2-2.1c0-0.6,0.2-1,1.2-2.3c1.3-1.6,2.6-4.5,3.2-6.7
		c0.4-1.5,0.8-2,2.1-2c1.3,0,2.2,0.7,2.2,1.7c0,0.3-0.1,0.6-0.2,1H288.7z"/>
	<path class="st1" d="M307.4,25.4c-0.8,1.3-1.4,1.8-2.1,1.8c-1.1,0-2-1-2-2.1c0-0.5,0.1-0.8,0.6-1.3c1.4-1.6,2.3-3,3.3-5.3h-2.5
		c-0.9,0-1.5-0.6-1.5-1.8c0-1.2,0.5-1.8,1.5-1.8h2.6v-1.6c-0.9,0.2-1.3,0.2-1.8,0.2c-1,0-1.7-0.9-1.7-2.2c0-1.3,0.5-1.8,2-1.9
		c2.3-0.2,3.8-0.6,6.1-1.2c0.3-0.1,0.6-0.1,0.8-0.1c1,0,1.7,0.9,1.7,2.1c0,1.5-0.8,1.6-3.4,2.3v2.3h2.1c0.9,0,1.5,0.6,1.5,1.8
		c0,1.2-0.5,1.8-1.5,1.8h-2.1v1.2c0.3-0.2,0.7-0.3,1.1-0.3c0.7,0,1,0.2,1.7,1.2c0.9,1.2,1.1,1.6,1.1,2.3c0,0.9-0.9,1.7-2.1,1.7
		c-0.6,0-0.8-0.2-1.3-0.9c-0.1-0.2-0.3-0.4-0.5-0.8v8.8c0,1-0.7,1.5-1.9,1.5s-1.9-0.5-1.9-1.5V25.4z M326.3,22.4
		c0.1,0,0.9-0.1,0.9-0.1c0.8,0,1.4,0.9,1.4,2.2c0,1-0.4,1.4-1.5,1.6l-0.8,0.1v5.4c0,1-0.7,1.6-2,1.6s-2-0.6-2-1.6v-4.7l-6.3,1.1
		c-0.3,0.1-0.6,0.1-0.9,0.1c-0.9,0-1.6-0.9-1.6-2.2c0-1,0.4-1.4,1.5-1.6l7.3-1.3V9.6c0-1.1,0.7-1.6,2-1.6s2,0.6,2,1.6V22.4z
		 M320.3,18.6c0.7,0.7,1,1.2,1,1.7c0,1.2-1,2.2-2.2,2.2c-0.5,0-0.8-0.1-1.3-0.7c-0.5-0.5-1.2-1.2-1.7-1.6c-0.8-0.7-0.9-0.9-0.9-1.4
		c0-1.1,1.1-2.2,2.1-2.2C318,16.5,318.7,17,320.3,18.6z M321.1,12.2c0.5,0.5,0.7,0.9,0.7,1.5c0,1.1-1.1,2.1-2.2,2.1
		c-0.6,0-0.9-0.2-1.7-1.1c-0.2-0.2-0.6-0.6-1.2-1.1c-0.6-0.5-0.8-0.9-0.8-1.4c0-1.1,1.1-2.2,2.1-2.2C318.7,10,319.1,10.1,321.1,12.2
		z"/>
</g>
<g>
	<path class="st2" d="M348.6,27.1c-0.2,0-0.3-0.1-0.4-0.2c-0.1-0.1-0.2-0.2-0.1-0.4c0-0.2,0-0.5,0-0.8c0-0.3,0-0.6,0-1
		c0-0.3,0-0.6,0-0.8c0-0.2,0-0.3,0.1-0.4c0.1-0.1,0.2-0.2,0.4-0.2c0.2,0,0.3,0,0.4,0.1c0.1,0.1,0.2,0.2,0.2,0.4c0,0.2,0,0.5,0,0.8
		c0,0.3,0,0.6,0,1s0,0.6,0,0.8c0,0.2-0.1,0.3-0.2,0.4C348.9,27.1,348.8,27.1,348.6,27.1z M352.2,29c-0.2,0-0.4-0.1-0.5-0.2
		c-0.1-0.1-0.2-0.3-0.2-0.5c0-0.2,0-0.4,0.2-0.5c0.1-0.1,0.3-0.2,0.6-0.2c0.4,0,0.7-0.1,0.9-0.1c0.2-0.1,0.4-0.1,0.5-0.3
		c0.1-0.1,0.2-0.3,0.2-0.6c0.1-0.4,0.1-0.8,0.2-1.4c0-0.5,0.1-1,0.1-1.6c0-0.3-0.1-0.6-0.2-0.7c-0.2-0.1-0.4-0.2-0.8-0.2h-1.8
		c-0.9,0-1.6-0.1-1.9-0.5c-0.4-0.3-0.6-0.9-0.6-1.7v-4.9c0-0.8,0.2-1.4,0.6-1.7s1-0.5,1.9-0.5h3.8c0.2,0,0.3,0.1,0.5,0.2
		s0.2,0.3,0.2,0.5c0,0.2-0.1,0.3-0.2,0.5s-0.3,0.2-0.5,0.2h-1.9v1.4h1.5c0.2,0,0.3,0.1,0.5,0.2c0.1,0.1,0.2,0.3,0.2,0.4
		s-0.1,0.3-0.2,0.4c-0.1,0.1-0.3,0.2-0.5,0.2h-1.5v1.4h1.5c0.2,0,0.3,0.1,0.5,0.2c0.1,0.1,0.2,0.3,0.2,0.4c0,0.2-0.1,0.3-0.2,0.4
		c-0.1,0.1-0.3,0.2-0.5,0.2h-1.5v1.6c0.9,0,1.5,0.2,1.8,0.5c0.3,0.3,0.5,0.9,0.4,1.6c0,0.6-0.1,1.2-0.1,1.8s-0.1,1.1-0.2,1.5
		c-0.2,0.9-0.5,1.4-0.9,1.7C353.8,28.8,353.1,29,352.2,29z M350.4,26.7c-0.2,0-0.3,0-0.4-0.1c-0.1-0.1-0.2-0.2-0.2-0.3
		c0-0.2,0-0.4-0.1-0.7c0-0.3-0.1-0.6-0.1-0.9c0-0.3,0-0.5-0.1-0.7c0-0.1,0-0.3,0.1-0.4s0.2-0.2,0.4-0.2c0.1,0,0.3,0,0.4,0.1
		c0.1,0.1,0.2,0.2,0.2,0.3c0,0.2,0.1,0.4,0.1,0.7c0,0.3,0.1,0.6,0.1,0.9c0,0.3,0,0.5,0,0.7C350.9,26.4,350.7,26.6,350.4,26.7z
		 M350.2,15.9h1.7v-1.4h-0.6c-0.4,0-0.7,0.1-0.9,0.2c-0.2,0.1-0.2,0.4-0.2,0.8V15.9z M350.2,18.5h1.7v-1.4h-1.7V18.5z M351.3,21.3
		h0.6v-1.6h-1.7v0.7c0,0.3,0.1,0.6,0.2,0.7S350.8,21.3,351.3,21.3z M352,26.3c-0.1,0-0.3,0-0.4-0.1c-0.1-0.1-0.2-0.2-0.2-0.3
		c0-0.3-0.1-0.6-0.1-1c-0.1-0.4-0.1-0.7-0.2-1c0-0.2,0-0.3,0.1-0.4c0.1-0.1,0.2-0.2,0.3-0.2c0.3-0.1,0.5,0.1,0.6,0.4
		c0,0.2,0.1,0.4,0.1,0.6s0.1,0.5,0.1,0.8c0,0.3,0.1,0.5,0.1,0.6C352.4,26,352.3,26.2,352,26.3z M353.5,25.8c-0.1,0-0.3,0-0.4,0
		c-0.1-0.1-0.2-0.2-0.2-0.3c0-0.3-0.1-0.6-0.2-1s-0.2-0.7-0.2-0.9c0-0.1,0-0.3,0-0.4c0.1-0.1,0.2-0.2,0.3-0.2c0.1,0,0.3,0,0.4,0
		c0.1,0.1,0.2,0.2,0.2,0.3c0,0.1,0.1,0.3,0.2,0.6c0.1,0.2,0.1,0.5,0.2,0.7c0.1,0.2,0.1,0.4,0.1,0.6
		C353.9,25.5,353.7,25.7,353.5,25.8z M356.1,28.4c-0.2,0-0.4-0.1-0.5-0.2s-0.2-0.3-0.2-0.5c0-0.2,0.1-0.4,0.2-0.5
		c0.1-0.1,0.3-0.2,0.5-0.2h3.2v-4.3h-2.3c-0.2,0-0.4-0.1-0.5-0.2c-0.1-0.1-0.2-0.3-0.2-0.5c0-0.2,0.1-0.4,0.2-0.5
		c0.1-0.1,0.3-0.2,0.5-0.2h2.3v-3.7h-2.7c-0.2,0-0.4-0.1-0.5-0.2c-0.1-0.1-0.2-0.3-0.2-0.5c0-0.2,0.1-0.4,0.2-0.5
		c0.1-0.1,0.3-0.2,0.5-0.2h3.5c0,0-0.1-0.1-0.1-0.1c0,0-0.1-0.1-0.1-0.1c-0.2-0.3-0.5-0.6-0.9-0.9s-0.7-0.7-1-1
		c-0.1-0.1-0.2-0.3-0.2-0.5c0-0.2,0.1-0.4,0.2-0.5c0.2-0.1,0.4-0.2,0.5-0.2c0.2,0,0.4,0.1,0.6,0.2c0.2,0.1,0.4,0.3,0.6,0.6
		c0.3,0.3,0.5,0.5,0.7,0.7c0.2,0.2,0.4,0.5,0.6,0.6c0.1,0.2,0.2,0.4,0.2,0.6c0,0.2-0.1,0.4-0.3,0.6c0,0-0.1,0.1-0.1,0.1h2.7
		c0.2,0,0.4,0.1,0.5,0.2c0.1,0.1,0.2,0.3,0.2,0.5c0,0.2-0.1,0.4-0.2,0.5c-0.1,0.1-0.3,0.2-0.5,0.2h-2.8v3.7h2.5
		c0.2,0,0.4,0.1,0.5,0.2c0.1,0.1,0.2,0.3,0.2,0.5c0,0.2-0.1,0.4-0.2,0.5c-0.1,0.1-0.3,0.2-0.5,0.2h-2.5V27h3.2
		c0.2,0,0.4,0.1,0.5,0.2c0.1,0.1,0.2,0.3,0.2,0.5c0,0.2-0.1,0.4-0.2,0.5c-0.1,0.1-0.3,0.2-0.5,0.2H356.1z"/>
	<path class="st2" d="M374.3,29.3c-0.2,0-0.4-0.1-0.6-0.2c-0.2-0.2-0.3-0.4-0.3-0.6v-2.3h-6.8c-0.2,0-0.4-0.1-0.5-0.2
		c-0.1-0.1-0.2-0.3-0.2-0.5c0-0.2,0.1-0.4,0.2-0.5c0.1-0.1,0.3-0.2,0.5-0.2h6.8v-1.2h-1.6c-0.9,0-1.6-0.1-2.1-0.3s-0.8-0.5-1-0.9
		c-0.2-0.4-0.3-1-0.3-1.7V20c0-0.7,0.1-1.3,0.3-1.7c0.2-0.4,0.5-0.7,1-0.9c0.5-0.2,1.2-0.3,2.1-0.3h1.6v-1.2h-6.1
		c-0.2,0-0.4-0.1-0.5-0.2c-0.1-0.1-0.2-0.3-0.2-0.5s0.1-0.4,0.2-0.5c0.1-0.1,0.3-0.2,0.5-0.2h6.1v-1.3c0-0.3,0.1-0.5,0.3-0.6
		c0.2-0.2,0.4-0.2,0.6-0.2c0.2,0,0.4,0.1,0.6,0.2c0.2,0.2,0.2,0.4,0.2,0.6v1.3h6.1c0.2,0,0.4,0.1,0.5,0.2c0.1,0.1,0.2,0.3,0.2,0.5
		s-0.1,0.4-0.2,0.5c-0.1,0.1-0.3,0.2-0.5,0.2h-6.1v1.2h1.6c0.9,0,1.6,0.1,2.1,0.3c0.5,0.2,0.8,0.5,1,0.9c0.2,0.4,0.3,1,0.3,1.7v0.7
		c0,0.7-0.1,1.3-0.3,1.7c-0.2,0.4-0.5,0.7-1,0.9s-1.2,0.3-2.1,0.3h-1.6v1.2h6.8c0.2,0,0.4,0.1,0.5,0.2s0.2,0.3,0.2,0.5
		c0,0.2-0.1,0.4-0.2,0.5c-0.1,0.1-0.3,0.2-0.5,0.2h-6.8v2.3c0,0.3-0.1,0.5-0.2,0.6C374.7,29.2,374.5,29.3,374.3,29.3z M370.1,19.7
		h3.3v-1.1h-1.6c-0.6,0-1.1,0.1-1.3,0.2C370.2,18.9,370.1,19.2,370.1,19.7z M371.8,22.2h1.6V21h-3.3c0,0.5,0.1,0.8,0.4,1
		C370.7,22.1,371.1,22.2,371.8,22.2z M375.1,19.7h3.3c0-0.5-0.2-0.8-0.4-0.9c-0.2-0.1-0.7-0.2-1.3-0.2h-1.6V19.7z M375.1,22.2h1.6
		c0.7,0,1.1-0.1,1.3-0.2c0.2-0.1,0.3-0.5,0.4-1h-3.3V22.2z"/>
	<path class="st2" d="M385,25.1c-0.2,0.1-0.4,0.1-0.6,0c-0.2-0.1-0.3-0.3-0.4-0.5c-0.1-0.2,0-0.4,0.1-0.6c0.1-0.2,0.3-0.3,0.5-0.4
		c0.1,0,0.3-0.1,0.6-0.2c0.3-0.1,0.7-0.2,1.2-0.4v-4.9h-1.6c-0.2,0-0.4-0.1-0.5-0.2c-0.1-0.1-0.2-0.3-0.2-0.5c0-0.2,0.1-0.4,0.2-0.5
		c0.1-0.1,0.3-0.2,0.5-0.2h1.6v-3.1c0-0.2,0.1-0.4,0.2-0.6c0.1-0.1,0.3-0.2,0.5-0.2c0.2,0,0.4,0.1,0.6,0.2c0.1,0.1,0.2,0.3,0.2,0.6
		v3.1h1.5c0.2,0,0.4,0.1,0.5,0.2c0.1,0.1,0.2,0.3,0.2,0.5c0,0.2-0.1,0.4-0.2,0.5s-0.3,0.2-0.5,0.2h-1.5v4.4l1.5-0.5
		c0.2-0.1,0.4-0.1,0.5,0c0.2,0.1,0.3,0.2,0.4,0.4c0.1,0.2,0.1,0.4,0,0.6c-0.1,0.2-0.2,0.3-0.4,0.4c-0.1,0-0.3,0.1-0.6,0.2
		c-0.3,0.1-0.7,0.3-1.1,0.5s-0.9,0.3-1.3,0.5c-0.4,0.2-0.8,0.3-1.1,0.5S385.1,25,385,25.1z M396.4,29c-0.2,0-0.4-0.1-0.6-0.2
		c-0.2-0.1-0.2-0.3-0.3-0.5c0-0.2,0.1-0.4,0.2-0.6c0.1-0.2,0.3-0.2,0.5-0.3c0.5,0,0.8-0.1,1.1-0.2s0.4-0.3,0.5-0.6
		c0.1-0.3,0.2-0.6,0.2-1c0.1-0.4,0.2-0.8,0.2-1.3c0-0.4,0-0.7-0.1-0.8c-0.1-0.2-0.3-0.3-0.6-0.3c-0.3,0.7-0.7,1.4-1.2,2.1
		s-1.1,1.4-1.7,2c-0.6,0.6-1.3,1.1-2,1.5c-0.2,0.1-0.4,0.2-0.6,0.1c-0.2,0-0.4-0.1-0.5-0.2c-0.1-0.1-0.2-0.3-0.2-0.5
		c0-0.2,0.1-0.3,0.3-0.5c1-0.6,1.8-1.3,2.6-2.1c0.8-0.8,1.3-1.7,1.8-2.5H395c-0.4,0.6-0.8,1.2-1.4,1.8c-0.6,0.6-1.1,1.1-1.8,1.6
		c-0.6,0.5-1.3,0.9-2,1.3c-0.2,0.1-0.4,0.1-0.6,0.1s-0.3-0.2-0.4-0.4c-0.1-0.2-0.1-0.3-0.1-0.5s0.1-0.3,0.3-0.4
		c0.6-0.3,1.1-0.6,1.7-1c0.5-0.4,1.1-0.8,1.5-1.2s0.9-0.9,1.2-1.3h-1.3c-0.8,0.9-1.7,1.7-2.6,2.3c-0.2,0.1-0.4,0.2-0.6,0.1
		c-0.2,0-0.4-0.1-0.5-0.2c-0.1-0.1-0.2-0.3-0.1-0.5c0-0.2,0.1-0.3,0.3-0.4c0.5-0.3,0.9-0.6,1.4-1s0.9-0.8,1.3-1.2
		c0.4-0.4,0.7-0.8,1-1.2h-2.1c-0.2,0-0.3-0.1-0.5-0.2c-0.1-0.1-0.2-0.3-0.2-0.5c0-0.2,0.1-0.3,0.2-0.5c0.1-0.1,0.3-0.2,0.5-0.2h9.8
		c0.2,0,0.3,0.1,0.5,0.2c0.1,0.1,0.2,0.3,0.2,0.5c0,0.2-0.1,0.3-0.2,0.5c-0.1,0.1-0.3,0.2-0.5,0.2h-6.2c-0.2,0.3-0.4,0.7-0.6,1h4.4
		c0.8,0,1.4,0.2,1.8,0.5c0.4,0.3,0.5,0.9,0.4,1.8c-0.1,1.1-0.3,2-0.5,2.8c-0.2,0.7-0.5,1.1-0.9,1.4C397.9,28.8,397.3,29,396.4,29z
		 M394.3,18.8c-0.8,0-1.4-0.1-1.8-0.3c-0.4-0.2-0.7-0.5-0.9-0.9c-0.2-0.4-0.3-1-0.3-1.8c0-0.8,0.1-1.4,0.3-1.8
		c0.2-0.4,0.5-0.7,0.9-0.9c0.4-0.2,1-0.3,1.8-0.3h1.4c0.8,0,1.4,0.1,1.8,0.3c0.4,0.2,0.7,0.5,0.9,0.9c0.2,0.4,0.3,1,0.3,1.8
		c0,0.8-0.1,1.3-0.3,1.8c-0.2,0.4-0.5,0.7-0.9,0.9c-0.4,0.2-1,0.3-1.8,0.3H394.3z M394.4,17.6h1.2c0.6,0,1-0.1,1.2-0.2
		c0.2-0.1,0.3-0.4,0.4-0.9h-4.4c0,0.5,0.2,0.8,0.4,0.9C393.5,17.5,393.9,17.6,394.4,17.6z M392.8,15.3h4.3c0-0.5-0.2-0.7-0.4-0.9
		s-0.6-0.2-1.2-0.2h-1.2c-0.6,0-1,0.1-1.2,0.2C393,14.6,392.9,14.8,392.8,15.3z"/>
	<path class="st2" d="M402.7,27.6c-0.6,0-0.9-0.2-0.9-0.5c0-0.9,0.3-1.7,0.8-2.6s1.3-1.7,2.2-2.6c0.4-0.4,0.8-0.8,1.1-1.2
		c0.4-0.4,0.6-0.8,0.9-1.2c0.2-0.4,0.3-0.8,0.4-1.1c0-0.7-0.1-1.2-0.5-1.6c-0.3-0.3-0.8-0.5-1.5-0.5c-0.4,0-0.8,0.1-1.1,0.4
		c-0.3,0.3-0.5,0.6-0.6,1.1c-0.1,0.3-0.2,0.5-0.3,0.6c-0.1,0.1-0.3,0.2-0.6,0.2c-0.2,0-0.4-0.1-0.6-0.2c-0.1-0.2-0.2-0.4-0.1-0.7
		c0.2-0.9,0.5-1.6,1.1-2.1c0.6-0.5,1.3-0.8,2.2-0.8c0.7,0,1.3,0.1,1.8,0.4c0.5,0.3,0.9,0.7,1.2,1.2c0.3,0.5,0.4,1.2,0.4,2
		c0,0.6-0.2,1.1-0.4,1.6c-0.3,0.5-0.6,1-1,1.4c-0.4,0.5-0.9,0.9-1.4,1.4c-0.6,0.6-1.1,1.2-1.6,1.7c-0.5,0.5-0.8,1.1-0.8,1.5h4.2
		c0.6,0,0.9,0.2,0.9,0.7c0,0.5-0.3,0.7-0.9,0.7H402.7z"/>
	<path class="st2" d="M413.9,27.8c-1.4,0-2.3-0.5-2.8-1.6c-0.5-1.1-0.8-2.7-0.8-4.9c0-2.2,0.3-3.8,0.8-4.9c0.5-1.1,1.5-1.6,2.8-1.6
		c1.4,0,2.3,0.5,2.8,1.6c0.5,1.1,0.8,2.7,0.8,4.9c0,2.2-0.3,3.8-0.8,4.9C416.2,27.3,415.2,27.8,413.9,27.8z M413.9,26.3
		c0.5,0,0.9-0.2,1.2-0.5s0.5-0.8,0.7-1.6c0.1-0.7,0.2-1.7,0.2-3c0-1.3-0.1-2.3-0.2-3c-0.1-0.7-0.4-1.3-0.7-1.6
		c-0.3-0.3-0.7-0.5-1.2-0.5c-0.5,0-0.9,0.2-1.2,0.5c-0.3,0.3-0.5,0.8-0.7,1.6c-0.1,0.7-0.2,1.7-0.2,3c0,1.3,0.1,2.3,0.2,3
		c0.1,0.7,0.4,1.3,0.7,1.6C413,26.2,413.4,26.3,413.9,26.3z"/>
	<path class="st2" d="M435.1,20.6c-0.2,0.2-0.4,0.2-0.6,0.2c-0.2,0-0.4-0.1-0.6-0.3c-0.3-0.4-0.7-0.9-1.2-1.4
		c-0.6,0.1-1.4,0.1-2.2,0.2c-0.8,0.1-1.7,0.1-2.7,0.2s-1.9,0.1-2.8,0.2c-0.9,0.1-1.8,0.1-2.6,0.2c-0.8,0-1.5,0.1-2.1,0.1
		c-0.6,0-0.9-0.2-1-0.8c0-0.3,0.1-0.5,0.2-0.6c0.2-0.2,0.4-0.2,0.6-0.2c0.3,0,0.7,0,1.2,0c0.4,0,0.9,0,1.4-0.1
		c0.2-0.3,0.4-0.7,0.7-1.1c0.3-0.4,0.5-0.9,0.8-1.4c0.3-0.5,0.5-1,0.8-1.4c0.2-0.5,0.4-0.8,0.5-1.1c0.1-0.2,0.3-0.4,0.5-0.5
		s0.5-0.1,0.7,0c0.3,0.1,0.4,0.3,0.5,0.5c0.1,0.2,0,0.4-0.1,0.7c-0.2,0.4-0.4,0.9-0.7,1.4c-0.3,0.5-0.6,1.1-0.9,1.6
		c-0.3,0.5-0.6,1-0.9,1.4c0.8,0,1.6-0.1,2.4-0.1s1.6-0.1,2.3-0.1c0.7,0,1.4-0.1,2-0.1c-0.3-0.3-0.6-0.6-0.8-0.8
		c-0.3-0.3-0.5-0.5-0.7-0.7c-0.2-0.2-0.3-0.3-0.3-0.5s0.1-0.4,0.2-0.5c0.2-0.2,0.4-0.3,0.6-0.3c0.2,0,0.4,0.1,0.6,0.2
		c0.3,0.3,0.7,0.6,1,1s0.8,0.7,1.2,1.1c0.4,0.4,0.8,0.8,1.1,1.2c0.3,0.4,0.6,0.7,0.9,1c0.2,0.2,0.2,0.4,0.2,0.6
		C435.4,20.3,435.3,20.5,435.1,20.6z M425.7,28.6c-1,0-1.8-0.1-2.4-0.3c-0.6-0.2-1-0.6-1.2-1.1c-0.2-0.5-0.4-1.2-0.4-2.1
		c0-0.9,0.1-1.6,0.4-2.1c0.2-0.5,0.6-0.9,1.2-1.1c0.6-0.2,1.4-0.3,2.4-0.3h3.3c1,0,1.8,0.1,2.4,0.3c0.6,0.2,1,0.6,1.2,1.1
		c0.2,0.5,0.4,1.2,0.4,2.1c0,0.9-0.1,1.6-0.4,2.1s-0.6,0.9-1.2,1.1c-0.6,0.2-1.4,0.3-2.4,0.3H425.7z M425.7,27h3.3
		c0.6,0,1.1-0.1,1.4-0.2c0.3-0.1,0.5-0.3,0.7-0.6s0.2-0.7,0.2-1.2c0-0.5-0.1-0.9-0.2-1.1s-0.3-0.5-0.7-0.6c-0.3-0.1-0.8-0.2-1.4-0.2
		h-3.3c-0.6,0-1.1,0.1-1.4,0.2c-0.3,0.1-0.5,0.3-0.7,0.6s-0.2,0.7-0.2,1.1c0,0.5,0.1,0.9,0.2,1.2s0.3,0.5,0.7,0.6S425.1,27,425.7,27
		z"/>
	<path class="st2" d="M438.4,29.1c-0.3,0.1-0.5,0.1-0.7,0c-0.2-0.1-0.3-0.3-0.4-0.5c-0.1-0.3,0-0.5,0.1-0.6c0.1-0.2,0.3-0.3,0.5-0.3
		c1.5-0.3,2.6-0.9,3.4-1.8c0.8-0.8,1.2-1.9,1.3-3.3H438c-0.2,0-0.4-0.1-0.5-0.2c-0.1-0.2-0.2-0.3-0.2-0.5c0-0.2,0.1-0.4,0.2-0.5
		c0.1-0.2,0.3-0.2,0.5-0.2h14.7c0.2,0,0.4,0.1,0.5,0.2c0.1,0.2,0.2,0.3,0.2,0.5c0,0.2-0.1,0.4-0.2,0.5c-0.1,0.2-0.3,0.2-0.5,0.2
		h-4.8v3.6c0,0.3,0.1,0.6,0.2,0.8c0.1,0.2,0.3,0.3,0.6,0.4c0.3,0.1,0.7,0.1,1.2,0.1c0.6,0,1,0,1.3-0.1c0.3-0.1,0.5-0.2,0.6-0.4
		s0.2-0.5,0.3-0.9c0.1-0.2,0.2-0.4,0.4-0.5c0.2-0.1,0.4-0.1,0.7,0c0.2,0.1,0.4,0.2,0.5,0.4c0.1,0.2,0.1,0.4,0,0.6
		c-0.2,0.6-0.4,1.1-0.6,1.5c-0.3,0.4-0.6,0.6-1.2,0.8c-0.5,0.2-1.2,0.2-2.1,0.2c-0.9,0-1.6-0.1-2.1-0.2s-0.9-0.4-1.1-0.8
		s-0.3-0.9-0.3-1.6v-3.8h-2c-0.1,1.7-0.7,3.1-1.6,4.3C441.7,27.9,440.3,28.7,438.4,29.1z M438.5,19c-0.2,0-0.4-0.1-0.6-0.2
		c-0.2-0.1-0.2-0.3-0.2-0.6v-1.1c0-0.9,0.2-1.5,0.6-1.9c0.4-0.4,1.2-0.6,2.2-0.6h3.9v-1.5c0-0.3,0.1-0.5,0.3-0.6
		c0.2-0.1,0.4-0.2,0.6-0.2c0.3,0,0.5,0.1,0.6,0.2c0.2,0.2,0.3,0.4,0.3,0.6v1.5h3.9c1.1,0,1.8,0.2,2.2,0.6c0.4,0.4,0.6,1,0.6,1.9v1.1
		c0,0.3-0.1,0.5-0.2,0.6s-0.4,0.2-0.6,0.2c-0.2,0-0.4-0.1-0.6-0.2c-0.2-0.1-0.2-0.3-0.2-0.6v-1c0-0.4-0.1-0.7-0.3-0.8
		c-0.2-0.2-0.6-0.2-1.1-0.2h-9.3c-0.5,0-0.9,0.1-1.1,0.2c-0.2,0.2-0.3,0.4-0.3,0.8v1c0,0.2-0.1,0.4-0.2,0.6
		C438.9,19,438.7,19,438.5,19z M441,19.4c-0.2,0-0.4-0.1-0.5-0.2c-0.1-0.2-0.2-0.3-0.2-0.5c0-0.2,0.1-0.4,0.2-0.5
		c0.1-0.2,0.3-0.2,0.5-0.2h8.8c0.2,0,0.4,0.1,0.5,0.2c0.1,0.2,0.2,0.3,0.2,0.5c0,0.2-0.1,0.4-0.2,0.5c-0.1,0.2-0.3,0.2-0.5,0.2H441z
		"/>
	<path class="st2" d="M458,29.2c-0.2,0-0.4-0.1-0.5-0.2c-0.2-0.2-0.2-0.3-0.2-0.6v-8.7c-0.2,0.3-0.3,0.6-0.5,0.9
		c-0.2,0.3-0.4,0.5-0.5,0.8c-0.2,0.2-0.3,0.3-0.6,0.3c-0.2,0-0.4,0-0.6-0.1c-0.2-0.1-0.3-0.3-0.3-0.5c0-0.2,0-0.4,0.2-0.6
		c0.5-0.7,1-1.5,1.5-2.4c0.5-0.9,0.9-1.8,1.3-2.7c0.4-0.9,0.7-1.7,0.9-2.4c0.1-0.2,0.2-0.4,0.4-0.5c0.2-0.1,0.4-0.1,0.6,0
		c0.2,0.1,0.4,0.2,0.5,0.4c0.1,0.2,0.1,0.4,0.1,0.6c-0.2,0.5-0.3,1-0.5,1.6s-0.4,1.1-0.7,1.6V28c0-0.1,0.1-0.2,0.1-0.3
		c0.5-1,0.9-2.1,1.1-3.2c0.2-1.2,0.3-2.5,0.3-4c0-0.7,0.1-1.3,0.2-1.7c0.2-0.4,0.4-0.7,0.8-0.9c0.4-0.2,0.9-0.3,1.6-0.3v-1.6h-2.3
		c-0.2,0-0.4-0.1-0.5-0.2c-0.1-0.1-0.2-0.3-0.2-0.5c0-0.2,0.1-0.4,0.2-0.5c0.1-0.1,0.3-0.2,0.5-0.2h2.3v-1.2c0-0.2,0.1-0.4,0.2-0.6
		c0.2-0.1,0.3-0.2,0.6-0.2s0.4,0.1,0.6,0.2c0.2,0.1,0.2,0.3,0.2,0.6v1.2h2.1v-1.2c0-0.2,0.1-0.4,0.2-0.6c0.1-0.1,0.3-0.2,0.5-0.2
		c0.2,0,0.4,0.1,0.6,0.2c0.1,0.1,0.2,0.3,0.2,0.6v1.2h2.4c0.2,0,0.4,0.1,0.5,0.2c0.1,0.1,0.2,0.3,0.2,0.5c0,0.2-0.1,0.4-0.2,0.5
		c-0.1,0.1-0.3,0.2-0.5,0.2h-2.4v1.6h2.8c0.2,0,0.4,0.1,0.5,0.2c0.1,0.1,0.2,0.3,0.2,0.5c0,0.2-0.1,0.4-0.2,0.5s-0.3,0.2-0.5,0.2
		h-7.5c-0.7,0-1.2,0.1-1.4,0.3c-0.2,0.2-0.4,0.6-0.4,1.3c0,1.6-0.1,3.1-0.3,4.4c-0.2,1.3-0.6,2.5-1.2,3.5c-0.1,0.2-0.3,0.3-0.5,0.4
		s-0.4,0.1-0.6,0c-0.2-0.1-0.4-0.3-0.4-0.6v0.2c0,0.2-0.1,0.4-0.2,0.6C458.4,29.1,458.2,29.2,458,29.2z M463.4,29.2
		c-0.2,0-0.4-0.1-0.5-0.2c-0.1-0.1-0.2-0.3-0.2-0.5v-6.2c0-0.6,0.1-1.2,0.3-1.5c0.2-0.4,0.5-0.6,0.9-0.8c0.4-0.1,1-0.2,1.7-0.2h2.3
		c0.7,0,1.3,0.1,1.7,0.2s0.7,0.4,0.8,0.8c0.2,0.4,0.2,0.9,0.2,1.5V27c0,0.7-0.2,1.2-0.5,1.6c-0.3,0.3-0.8,0.5-1.5,0.5
		c-0.2,0-0.4-0.1-0.6-0.2c-0.2-0.1-0.2-0.3-0.3-0.5c0-0.2,0-0.4,0.2-0.6c0.1-0.1,0.3-0.2,0.6-0.2c0.2,0,0.4-0.1,0.5-0.2
		c0.1-0.1,0.1-0.3,0.1-0.6V26h-1.8v2.1c0,0.2-0.1,0.4-0.2,0.5c-0.1,0.1-0.3,0.2-0.5,0.2c-0.2,0-0.4-0.1-0.5-0.2
		c-0.1-0.1-0.2-0.3-0.2-0.5V26h-1.8v2.4c0,0.2-0.1,0.4-0.2,0.5C463.8,29.1,463.6,29.2,463.4,29.2z M464.2,22.3h1.8v-1.2h-0.4
		c-0.6,0-0.9,0.1-1.1,0.2C464.2,21.5,464.2,21.8,464.2,22.3L464.2,22.3z M464.2,24.8h1.8v-1.2h-1.8V24.8z M464.5,17.5h2.1v-1.6h-2.1
		V17.5z M467.3,22.3h1.8v0c0-0.5-0.1-0.8-0.3-1c-0.2-0.1-0.5-0.2-1.1-0.2h-0.5V22.3z M467.3,24.8h1.8v-1.2h-1.8V24.8z"/>
</g>
</svg>
