<?xml version="1.0" encoding="utf-8"?>
<!-- Generator: Adobe Illustrator 25.2.1, SVG Export Plug-In . SVG Version: 6.00 Build 0)  -->
<svg version="1.1" id="Capa_1" xmlns="http://www.w3.org/2000/svg" xmlns:xlink="http://www.w3.org/1999/xlink" x="0px" y="0px"
	 viewBox="0 0 452 452" style="enable-background:new 0 0 452 452;" xml:space="preserve">
<style type="text/css">
	.st0{fill:#194375;}
</style>
<g>
	<g>
		<g>
			<path class="st0" d="M329,298.6c0,20.7,16.8,37.5,37.5,37.5s37.5-16.8,37.5-37.5s-16.8-37.5-37.5-37.5S329,277.9,329,298.6z"/>
			<path class="st0" d="M91.1,336.2L91.1,336.2L91.1,336.2z"/>
			<path class="st0" d="M0,236.3v32.5c0,14.2,11.1,26,25.3,26h12.4c2.2-29.5,27.9-51.6,57.4-49.3c26.4,2,47.3,23,49.3,49.3h168.8
				c2.2-29.5,27.9-51.6,57.4-49.3c26.4,2,47.3,23,49.3,49.3h6.8c14.2,0,25.3-11.8,25.3-26v-28.5c0.1-11.6-7.6-21.7-18.7-24.8
				l-77.9-21.3c-1.7-0.5-3.2-1.5-4.2-2.9l-46.6-61.1c-7-9.1-17.9-14.4-29.4-14.4H127.8c-12.7-0.1-24.6,6.4-31.3,17.2l-36.3,57.8
				c-0.8,1.3-2,2.4-3.5,3l-41.8,19.1C5.7,217.1-0.1,226.3,0,236.3z"/>
			<path class="st0" d="M53.5,298.6c0,20.7,16.8,37.5,37.5,37.5s37.5-16.8,37.5-37.5s-16.8-37.5-37.5-37.5S53.5,277.9,53.5,298.6z"
				/>
		</g>
	</g>
</g>
</svg>
