<?xml version="1.0" encoding="utf-8"?>
<!-- Generator: Adobe Illustrator 26.5.0, SVG Export Plug-In . SVG Version: 6.00 Build 0)  -->
<svg version="1.1" id="レイヤー_1" xmlns="http://www.w3.org/2000/svg" xmlns:xlink="http://www.w3.org/1999/xlink" x="0px"
	 y="0px" viewBox="0 0 416 416" style="enable-background:new 0 0 416 416;" xml:space="preserve">
<style type="text/css">
	.st0{fill:#31B4DD;}
</style>
<path class="st0" d="M352,0H64C28.67,0.039,0.039,28.67,0,64v288c0.039,35.33,28.67,63.961,64,64h288
	c35.33-0.039,63.961-28.67,64-64V64C415.961,28.67,387.33,0.039,352,0z M316.25,138.29l-134.4,160c-2.983,3.553-7.361,5.636-12,5.71
	h-0.27c-4.535-0.002-8.857-1.928-11.89-5.3l-57.6-64c-6.062-6.429-5.764-16.556,0.665-22.618c6.429-6.062,16.556-5.764,22.618,0.665
	c0.17,0.18,0.336,0.364,0.497,0.552l45.29,50.32l122.59-145.91c5.781-6.683,15.885-7.415,22.568-1.634
	C320.866,121.739,321.722,131.582,316.25,138.29L316.25,138.29z"/>
</svg>
