<?xml version="1.0" encoding="utf-8"?>
<!-- Generator: Adobe Illustrator 25.4.1, SVG Export Plug-In . SVG Version: 6.00 Build 0)  -->
<svg version="1.1" id="レイヤー_1" xmlns="http://www.w3.org/2000/svg" xmlns:xlink="http://www.w3.org/1999/xlink" x="0px"
	 y="0px" viewBox="0 0 120 120" style="enable-background:new 0 0 120 120;" xml:space="preserve">
<style type="text/css">
	.st0{fill:#FFFFFF;}
</style>
<path class="st0" d="M28,4.004v12c0,2.211-1.789,4-4,4s-4-1.789-4-4v-12c0-2.211,1.789-4,4-4S28,1.793,28,4.004z M80,0.004
	c-2.211,0-4,1.789-4,4v12c0,2.211,1.789,4,4,4s4-1.789,4-4v-12C84,1.793,82.211,0.004,80,0.004z M52,0.004c-2.211,0-4,1.789-4,4v12
	c0,2.211,1.789,4,4,4s4-1.789,4-4v-12C56,1.793,54.211,0.004,52,0.004z M32,47.996h-8c-2.211,0-4,1.789-4,4v4c0,2.211,1.789,4,4,4h8
	c2.211,0,4-1.789,4-4v-4C36,49.785,34.211,47.996,32,47.996z M56,47.996h-8c-2.211,0-4,1.789-4,4v4c0,2.211,1.789,4,4,4h8
	c2.211,0,4-1.789,4-4v-4C60,49.785,58.211,47.996,56,47.996z M80,47.996h-8c-2.211,0-4,1.789-4,4v4c0,2.211,1.789,4,4,4h8
	c2.211,0,4-1.789,4-4v-4C84,49.785,82.211,47.996,80,47.996z M32,63.996h-8c-2.211,0-4,1.789-4,4v4c0,2.211,1.789,4,4,4h8
	c2.211,0,4-1.789,4-4v-4C36,65.785,34.211,63.996,32,63.996z M56,63.996h-8c-2.211,0-4,1.789-4,4v4c0,2.211,1.789,4,4,4h8
	c2.211,0,4-1.789,4-4v-4C60,65.785,58.211,63.996,56,63.996z M32,79.996h-8c-2.211,0-4,1.789-4,4v4c0,2.211,1.789,4,4,4h8
	c2.211,0,4-1.789,4-4v-4C36,81.785,34.211,79.996,32,79.996z M56,79.996h-8c-2.211,0-4,1.789-4,4v4c0,2.211,1.789,4,4,4h8
	c2.211,0,4-1.789,4-4v-4C60,81.785,58.211,79.996,56,79.996z M16,99.996c-4.414,0-8-3.586-8-8V40.004h88v20.27
	c2.793,0.352,5.477,1.051,8,2.078V24.004c0-8.836-7.164-16-16-16v8c0,4.414-3.586,8-8,8s-8-3.586-8-8v-8H60v8c0,4.414-3.586,8-8,8
	s-8-3.586-8-8v-8H32v8c0,4.414-3.586,8-8,8s-8-3.586-8-8v-8c-8.836,0-16,7.164-16,16v67.992c0,8.836,7.164,16,16,16h48.328
	c-1.438-2.477-2.539-5.164-3.273-8H16z M92,63.996c-15.465,0-28,12.535-28,28c0,15.465,12.535,28,28,28s28-12.535,28-28
	C120,76.531,107.465,63.996,92,63.996z M92,111.996c-11.031,0-20-8.969-20-20c0-11.031,8.969-20,20-20c11.031,0,20,8.969,20,20
	C112,103.027,103.031,111.996,92,111.996z M104,87.996h-8v-8c0-2.211-1.789-4-4-4s-4,1.789-4,4v12c0,2.211,1.789,4,4,4h12
	c2.211,0,4-1.789,4-4C108,89.785,106.211,87.996,104,87.996z"/>
</svg>
