<?xml version="1.0" encoding="utf-8"?>
<!-- Generator: Adobe Illustrator 26.3.1, SVG Export Plug-In . SVG Version: 6.00 Build 0)  -->
<svg version="1.1" id="レイヤー_1" xmlns="http://www.w3.org/2000/svg" xmlns:xlink="http://www.w3.org/1999/xlink" x="0px"
	 y="0px" viewBox="0 0 20 20" style="enable-background:new 0 0 20 20;" xml:space="preserve">
<style type="text/css">
	.st0{fill:#F39800;}
</style>
<g id="timer-check">
	<g>
		<g id="Combined-Shape_00000093161813105655442260000005589375856078302397_">
			<g>
				<path class="st0" d="M10,3c2.1,0,4,0.7,5.5,2l0,0l1-1l1.5,1.5l-1,1l0.2,0.3c0.9,1.3,1.4,3,1.4,4.7c0,4.5-3.5,8.2-8,8.5l0,0
					l-0.3,0L10,20l-0.3,0l-0.3,0c-4.5-0.3-8-4-8-8.5C1.5,6.8,5.3,3,10,3z M13.5,8l-4.2,4.2L6.5,9.4l-1.4,1.4L9.3,15l5.7-5.7L13.5,8z
					 M13,0v2H7V0H13z"/>
			</g>
		</g>
	</g>
</g>
</svg>
