<?xml version="1.0" encoding="utf-8"?>
<!-- Generator: Adobe Illustrator 26.5.0, SVG Export Plug-In . SVG Version: 6.00 Build 0)  -->
<svg version="1.1" id="レイヤー_1" xmlns="http://www.w3.org/2000/svg" xmlns:xlink="http://www.w3.org/1999/xlink" x="0px"
	 y="0px" viewBox="0 0 25 24" style="enable-background:new 0 0 25 24;" xml:space="preserve">
<style type="text/css">
	.st0{fill:none;}
	.st1{fill:#D9EEED;}
	.st2{fill:#FFFFFF;}
</style>
<g>
	<path class="st0" d="M14.7,4v1.3c0,1.3-1.1,2.4-2.4,2.4h0C11,7.7,10,6.6,10,5.3V4c0-1.3,1.1-2.4,2.4-2.4C13.7,1.7,14.7,2.7,14.7,4z
		"/>
	<path class="st0" d="M18.6,16.6c0.1,0.1,0.1,0.2,0.1,0.2L15.4,17c0.1-0.3,0.3-0.6,0.6-0.8c0.3-0.2,0.7-0.4,1.1-0.4
		c0.1,0,0.2,0,0.3,0l0,0C17.9,15.9,18.3,16.2,18.6,16.6z"/>
	<path class="st0" d="M11.8,22.5c-0.5-0.7-0.4-1.6,0.2-2.2c0.7,0.4,1.3,0.9,1.7,1.6c0.2,0.4,0.4,0.8,0.5,1.2
		C13.5,23.6,12.4,23.3,11.8,22.5z"/>
	<path class="st0" d="M14.9,22.7c-0.2-0.4-0.3-0.8-0.6-1.2c-0.4-0.7-1-1.2-1.7-1.7l1.2-0.8c0.2,0.2,0.4,0.4,0.6,0.6
		c0.4,0.3,0.7,0.7,1,1.1c0.2,0.4,0.4,0.8,0.5,1.2L14.9,22.7z"/>
	<path class="st0" d="M16,20.5c-0.3-0.5-0.7-0.9-1.1-1.3c-0.2-0.2-0.3-0.3-0.5-0.5l0.6-0.4l1.7,0.7L16,20.5C16,20.5,16,20.5,16,20.5
		z"/>
	<path class="st1" d="M16.9,21.4l-0.4,0.3c0-0.1-0.1-0.2-0.2-0.4l0.8-2.1l0.6,0.2L16.9,21.4z"/>
	<path class="st1" d="M18,20.7l0.5-1l0.2,0.1C18.5,20.1,18.3,20.4,18,20.7z"/>
	<path class="st0" d="M18.9,17.9l-0.2,1.2l-3.5-1.3l0-0.2l3.6-0.2C18.9,17.6,18.9,17.7,18.9,17.9z"/>
	<g>
		<path class="st2" d="M9.8,4v1.3c0,1.7,1.4,3,3,3h0c1.7,0,3-1.4,3-3V4c0-1.7-1.4-3-3.1-3C11.2,1,9.8,2.4,9.8,4z M15.2,4v1.3
			c0,1.3-1.1,2.4-2.4,2.4h0c-1.3,0-2.4-1.1-2.4-2.4V4c0-1.3,1.1-2.4,2.4-2.4C14.2,1.7,15.2,2.7,15.2,4z"/>
		<path class="st2" d="M20,16.9c-0.1-0.3-0.2-0.5-0.4-0.8c-0.1-0.1-0.1-0.1-0.2-0.2v-3.4c0-1.4-0.9-2.7-2.2-3.1
			c-2.3-0.7-4.7-0.8-7-0.4c-0.1,0-0.1,0-0.2,0l0,0c-0.5,0.1-1,0.2-1.5,0.3C7.3,9.8,6.3,11,6.3,12.5v7.3c0,1.4,1,2.5,2.3,2.6v0.4
			c0,0.2,0.2,0.3,0.3,0.3c0.2,0,0.3-0.2,0.3-0.3V13c0-0.2-0.2-0.3-0.3-0.3c-0.2,0-0.3,0.2-0.3,0.3v8.7c-1-0.2-1.7-1-1.7-2v-7.3
			c0-1.1,0.7-2.1,1.8-2.4C9.1,9.9,9.6,9.8,10,9.8l3.2,7.8c0.2,0.4,0.4,0.7,0.7,1.1l-1.3,0.8c-0.1,0-0.1,0.1-0.2,0.2
			c0,0-0.1,0-0.1,0.1c-0.9,0.8-1.2,2.1-0.5,3.2c0.5,0.7,1.3,1.1,2.1,1.1c0.5,0,0.9-0.1,1.3-0.4l2.7-1.7l0,0l0.7-0.5
			c0.6-0.4,1.1-1.1,1.2-1.8l0.2-1.6C20.1,17.6,20.1,17.3,20,16.9C20,16.9,20,16.9,20,16.9z M19.1,16.6c0.1,0.1,0.1,0.2,0.1,0.2
			L15.9,17c0.1-0.3,0.3-0.6,0.6-0.8c0.3-0.2,0.7-0.4,1.1-0.4c0.1,0,0.2,0,0.3,0l0,0C18.4,15.9,18.8,16.2,19.1,16.6z M13.7,17.3
			l-3.1-7.6c2.1-0.3,4.3-0.2,6.4,0.4c1.1,0.3,1.8,1.3,1.8,2.4v3c-0.2-0.1-0.5-0.2-0.8-0.3c-0.3,0-0.6,0-0.9,0V13
			c0-0.2-0.2-0.3-0.3-0.3c-0.2,0-0.3,0.2-0.3,0.3v2.4c-0.1,0.1-0.2,0.1-0.3,0.2c-0.5,0.4-0.8,0.9-0.9,1.6l0,0c0,0,0,0,0,0.1
			l-0.1,0.5l-0.8,0.5C14.1,17.9,13.9,17.6,13.7,17.3z M12.3,22.5c-0.5-0.7-0.4-1.6,0.2-2.2c0.7,0.4,1.3,0.9,1.7,1.6
			c0.2,0.4,0.4,0.8,0.5,1.2C14,23.6,12.9,23.3,12.3,22.5z M15.4,22.7c-0.2-0.4-0.3-0.8-0.6-1.2c-0.4-0.7-1-1.2-1.7-1.7l1.2-0.8
			c0.2,0.2,0.4,0.4,0.6,0.6c0.4,0.3,0.7,0.7,1,1.1c0.2,0.4,0.4,0.8,0.5,1.2L15.4,22.7z M16.5,20.5c-0.3-0.5-0.7-0.9-1.1-1.3
			c-0.2-0.2-0.3-0.3-0.5-0.5l0.6-0.4l1.7,0.7L16.5,20.5C16.5,20.5,16.5,20.5,16.5,20.5z M17.5,21.4l-0.4,0.3c0-0.1-0.1-0.2-0.2-0.4
			l0.8-2.1l0.6,0.2L17.5,21.4z M18.5,20.7l0.5-1l0.2,0.1C19,20.1,18.8,20.4,18.5,20.7z M19.4,17.9l-0.2,1.2l-3.5-1.3l0-0.2l3.6-0.2
			C19.5,17.6,19.5,17.7,19.4,17.9z"/>
	</g>
</g>
<g>
</g>
<g>
</g>
<g>
</g>
<g>
</g>
<g>
</g>
<g>
</g>
</svg>
