<?xml version="1.0" encoding="utf-8"?>
<!-- Generator: Adobe Illustrator 28.0.0, SVG Export Plug-In . SVG Version: 6.00 Build 0)  -->
<svg version="1.1" id="レイヤー_1" xmlns="http://www.w3.org/2000/svg" xmlns:xlink="http://www.w3.org/1999/xlink" x="0px"
	 y="0px" viewBox="0 0 1137.3 356.6" style="enable-background:new 0 0 1137.3 356.6;" xml:space="preserve">
<style type="text/css">
	.st0{opacity:0.5;fill:#80C8E6;enable-background:new    ;}
	.st1{fill:none;stroke:#002B69;stroke-width:1.4173;stroke-miterlimit:10;}
	
		.st2{fill:none;stroke:#0092CE;stroke-width:1.4173;stroke-miterlimit:10;stroke-dasharray:21.5433,8.0787,53.8583,13.4646,4.0394,5.3858;}
	
		.st3{fill:none;stroke:#002B69;stroke-width:1.4173;stroke-miterlimit:10;stroke-dasharray:21.5433,8.0787,53.8583,13.4646,4.0394,5.3858;}
	
		.st4{fill:none;stroke:#009FE8;stroke-width:4.252;stroke-linecap:round;stroke-linejoin:round;stroke-miterlimit:10;stroke-dasharray:0,14.1732,0,0,0,0;}
	.st5{fill:#009FE8;}
	.st6{fill:#003686;}
	.st7{fill:none;}
	.st8{fill:#80C8E6;}
	.st9{fill:#14325E;}
	.st10{fill:#1170AE;}
	.st11{fill:#0092CE;}
	.st12{fill:#B2DEF0;}
	.st13{fill:#80A6D0;}
	.st14{fill:#15315E;}
</style>
<ellipse class="st0" cx="898.1" cy="115.8" rx="27.2" ry="27.2"/>
<line class="st1" x1="889.9" y1="131.5" x2="1269.9" y2="-248.5"/>
<g>
	<line class="st2" x1="1138.5" y1="305.8" x2="1671.8" y2="-224.6"/>
</g>
<line class="st3" x1="-138.1" y1="320.1" x2="241.9" y2="-59.9"/>
<path class="st4" d="M-78.1-12.9C384.4,314.6,620.3-81.3,990.5,79.9"/>
<path class="st5" d="M300.8,121.3c0-1.2,0.9-2.1,2.1-2.1l0,0l0,0l0,0c1.2,0,2.1,0.9,2.1,2.1l0,0c0,1.2-0.9,2.1-2.1,2.1l0,0l0,0l0,0
	C301.8,123.4,300.8,122.4,300.8,121.3z M286.7,121.1L286.7,121.1L286.7,121.1c0-1.2,1-2.2,2.2-2.1l0,0l0,0l0,0c1.1,0,2.1,1,2.1,2.1
	l0,0c0,0,0,0,0,0.1l0,0c0,1.2-1,2.1-2.2,2.1l0,0C287.6,123.2,286.7,122.3,286.7,121.1z M315,121.1L315,121.1L315,121.1
	c0-1.2,0.9-2.2,2.1-2.2l0,0l0,0l0,0c1.2,0,2.1,0.9,2.2,2.1l0,0c0,0,0,0,0,0.1l0,0c0,1.2-0.9,2.1-2.1,2.1l0,0c0,0,0,0-0.1,0l0,0
	C316,123.2,315,122.2,315,121.1z M274.5,122.8c-1.1-0.1-2-1-2-2.1l0,0v-0.1l0,0c0-1.2,1-2.1,2.2-2l0,0c1.1,0.1,2,1,2,2.1l0,0v0.1
	l0,0c-0.1,1.1-1,2-2.1,2l0,0C274.6,122.8,274.6,122.8,274.5,122.8z M329.2,120.6L329.2,120.6L329.2,120.6c0-1.2,0.9-2.2,2-2.2l0,0
	c1.2-0.1,2.2,0.8,2.2,2l0,0v0.1l0,0c0,1.1-0.9,2.1-2,2.1l0,0h-0.1l0,0C330.1,122.6,329.2,121.7,329.2,120.6z M260.3,122
	c-1.1-0.1-2-1-2-2.1l0,0c0-0.1,0-0.1,0-0.2l0,0c0.1-1.2,1.1-2.1,2.3-2l0,0l0,0l0,0c1.1,0.1,2,1,2,2.1l0,0c0,0.1,0,0.1,0,0.2l0,0
	c-0.1,1.1-1,2-2.1,2l0,0C260.4,122,260.4,122,260.3,122z M246.1,120.8c-1.1-0.1-1.9-1-1.9-2.1l0,0c0-0.1,0-0.1,0-0.2l0,0
	c0.1-1.2,1.1-2,2.3-1.9l0,0c1.1,0.1,1.9,1,1.9,2.1l0,0c0,0.1,0,0.1,0,0.2l0,0c-0.1,1.1-1,1.9-2.1,1.9l0,0
	C246.3,120.8,246.2,120.8,246.1,120.8z M357.4,118.7c0-0.1,0-0.2,0-0.2l0,0c0-1.1,0.8-2,1.9-2.1l0,0c1.2-0.1,2.2,0.8,2.3,1.9l0,0
	c0,0.1,0,0.1,0,0.2l0,0c0,1.1-0.8,2-1.9,2.1l0,0c-0.1,0-0.1,0-0.2,0l0,0C358.4,120.6,357.5,119.8,357.4,118.7z M232,119.2
	c-1.1-0.1-1.9-1.1-1.9-2.1l0,0c0-0.1,0-0.2,0-0.3l0,0c0.1-1.2,1.2-2,2.4-1.8l0,0l0,0l0,0c1.1,0.1,1.9,1,1.9,2.1l0,0
	c0,0.1,0,0.2,0,0.3l0,0c-0.1,1.1-1.1,1.9-2.1,1.9l0,0C232.2,119.2,232.1,119.2,232,119.2z M371.5,117.2c0-0.1,0-0.1,0-0.2l0,0
	c0-1.1,0.8-2,1.9-2.1l0,0c1.2-0.1,2.2,0.7,2.4,1.9l0,0c0,0.1,0,0.1,0,0.2l0,0c0,1.1-0.8,2-1.9,2.1l0,0c-0.1,0-0.2,0-0.2,0l0,0
	C372.6,119.1,371.6,118.3,371.5,117.2z M385.6,115.6c0-0.1,0-0.2,0-0.3l0,0c0-1.1,0.8-2,1.9-2.1l0,0c1.2-0.2,2.2,0.7,2.4,1.8l0,0
	c0,0.1,0,0.2,0,0.3l0,0c0,1.1-0.8,2-1.9,2.1l0,0c-0.1,0-0.2,0-0.3,0l0,0C386.7,117.4,385.8,116.6,385.6,115.6z M217.9,117.3
	c-1.1-0.2-1.8-1.1-1.8-2.1l0,0c0-0.1,0-0.2,0-0.3l0,0c0.2-1.2,1.2-2,2.4-1.8l0,0c1.1,0.2,1.8,1.1,1.8,2.1l0,0c0,0.1,0,0.2,0,0.3l0,0
	c-0.2,1.1-1.1,1.8-2.1,1.8l0,0C218.1,117.3,218,117.3,217.9,117.3z M399.7,113.6c0-0.1,0-0.2,0-0.3l0,0c0-1,0.8-1.9,1.8-2.1l0,0
	c1.2-0.2,2.2,0.6,2.4,1.8l0,0c0,0.1,0,0.2,0,0.3l0,0c0,1-0.8,1.9-1.8,2.1l0,0c-0.1,0-0.2,0-0.3,0l0,0
	C400.8,115.4,399.9,114.7,399.7,113.6z M203.9,115c-1-0.2-1.8-1.1-1.8-2.1l0,0c0-0.1,0-0.2,0-0.4l0,0c0.2-1.2,1.3-1.9,2.5-1.7l0,0
	c1,0.2,1.8,1.1,1.8,2.1l0,0c0,0.1,0,0.2,0,0.4l0,0c-0.2,1-1.1,1.8-2.1,1.8l0,0C204.1,115.1,204,115.1,203.9,115z M413.7,111.4
	c0-0.1,0-0.3,0-0.4l0,0c0-1,0.7-1.9,1.8-2.1l0,0c1.1-0.2,2.2,0.6,2.4,1.8l0,0c0,0.1,0,0.2,0,0.4l0,0c0,1-0.8,1.9-1.8,2.1l0,0
	c-0.1,0-0.2,0-0.3,0l0,0C414.8,113.2,413.9,112.5,413.7,111.4z M189.9,112.4L189.9,112.4c-1-0.2-1.7-1.1-1.7-2.1l0,0
	c0-0.1,0-0.3,0.1-0.4l0,0c0.2-1.2,1.4-1.9,2.5-1.7l0,0c1,0.2,1.7,1.1,1.7,2.1l0,0c0,0.1,0,0.3-0.1,0.4l0,0c-0.2,1-1.1,1.7-2.1,1.7
	l0,0C190.2,112.4,190,112.4,189.9,112.4z M427.7,109c0-0.1,0-0.3,0-0.4l0,0c0-1,0.7-1.9,1.8-2.1l0,0c1.1-0.2,2.3,0.6,2.5,1.7l0,0
	c0,0.1,0,0.2,0,0.4l0,0c0,1-0.7,1.9-1.8,2.1l0,0c-0.1,0-0.3,0-0.4,0l0,0C428.8,110.7,427.9,110,427.7,109z M176,109.4L176,109.4
	c-1-0.2-1.6-1.1-1.6-2.1l0,0c0-0.2,0-0.3,0.1-0.5l0,0c0.3-1.2,1.4-1.9,2.6-1.6l0,0l0,0l0,0c1,0.2,1.6,1.1,1.6,2.1l0,0
	c0,0.2,0,0.3-0.1,0.5l0,0c-0.2,1-1.1,1.7-2.1,1.7l0,0C176.3,109.5,176.1,109.4,176,109.4z M441.7,106.4c0-0.2,0-0.3,0-0.4l0,0
	c0-1,0.7-1.9,1.7-2.1l0,0c1.1-0.2,2.3,0.5,2.5,1.7l0,0c0,0.1,0,0.3,0,0.4l0,0c0,1-0.7,1.9-1.7,2.1l0,0c-0.1,0-0.3,0-0.4,0l0,0
	C442.8,108.1,441.9,107.4,441.7,106.4z M162.2,106.1L162.2,106.1c-1-0.2-1.6-1.1-1.6-2.1l0,0c0-0.2,0-0.3,0.1-0.5l0,0
	c0.3-1.1,1.4-1.8,2.6-1.5l0,0c1,0.2,1.6,1.1,1.6,2.1l0,0c0,0.2,0,0.4-0.1,0.5l0,0c-0.2,1-1.1,1.6-2.1,1.6l0,0
	C162.5,106.1,162.3,106.1,162.2,106.1z M455.6,103.6c0-0.2,0-0.3,0-0.4l0,0c0-1,0.7-1.9,1.7-2.1l0,0l0,0l0,0
	c1.1-0.2,2.3,0.5,2.5,1.7l0,0c0,0.1,0,0.3,0,0.4l0,0c0,1-0.7,1.9-1.7,2.1l0,0c-0.1,0-0.3,0.1-0.4,0.1l0,0
	C456.7,105.3,455.8,104.6,455.6,103.6z M148.4,102.4c-0.9-0.3-1.5-1.1-1.6-2l0,0c0-0.2,0-0.4,0.1-0.6l0,0c0.3-1.1,1.5-1.8,2.6-1.5
	l0,0l0,0l0,0c0.9,0.3,1.6,1.1,1.6,2.1l0,0c0,0.2,0,0.4-0.1,0.6l0,0c-0.3,0.9-1.1,1.6-2.1,1.6l0,0
	C148.8,102.5,148.6,102.4,148.4,102.4z M483.3,97.6c0-0.2-0.1-0.3-0.1-0.5l0,0c0-1,0.7-1.8,1.7-2.1l0,0c1.1-0.3,2.3,0.4,2.5,1.6l0,0
	c0,0.2,0.1,0.3,0.1,0.5l0,0c0,1-0.7,1.8-1.7,2.1l0,0c-0.2,0-0.3,0.1-0.5,0.1l0,0C484.4,99.2,483.6,98.5,483.3,97.6z M134.8,98.3
	L134.8,98.3c-0.9-0.3-1.5-1.1-1.5-2l0,0c0-0.2,0-0.4,0.1-0.6l0,0c0.3-1.1,1.5-1.8,2.7-1.4l0,0l0,0l0,0c0.9,0.3,1.5,1.1,1.5,2l0,0
	c0,0.2,0,0.4-0.1,0.6l0,0c-0.3,0.9-1.1,1.5-2,1.5l0,0C135.2,98.4,135,98.4,134.8,98.3z M497.2,94.4c0-0.2-0.1-0.3-0.1-0.5l0,0
	c0-1,0.7-1.8,1.6-2.1l0,0c1.1-0.3,2.3,0.4,2.6,1.6l0,0c0,0.2,0,0.3,0.1,0.5l0,0c0,1-0.7,1.8-1.6,2.1l0,0c-0.2,0-0.3,0.1-0.5,0.1l0,0
	C498.3,96,497.4,95.3,497.2,94.4z M121.3,94L121.3,94c-0.9-0.3-1.4-1.1-1.4-2l0,0c0-0.2,0-0.5,0.1-0.7l0,0c0.4-1.1,1.6-1.7,2.7-1.3
	l0,0l0,0l0,0c0.9,0.3,1.4,1.1,1.4,2l0,0c0,0.2,0,0.5-0.1,0.7l0,0c-0.3,0.9-1.1,1.4-2,1.4l0,0C121.7,94.1,121.5,94.1,121.3,94z
	 M511,91.1c0-0.2-0.1-0.3-0.1-0.5l0,0c0-1,0.6-1.8,1.6-2.1l0,0c1.1-0.3,2.3,0.4,2.6,1.6l0,0c0,0.2,0.1,0.3,0.1,0.5l0,0
	c0,1-0.6,1.8-1.6,2.1l0,0c-0.2,0-0.3,0.1-0.5,0.1l0,0C512.1,92.7,511.2,92,511,91.1z M524.7,87.7c0-0.2-0.1-0.4-0.1-0.5l0,0
	c0-0.9,0.7-1.8,1.6-2l0,0c1.1-0.3,2.3,0.4,2.6,1.6l0,0c0,0.2,0.1,0.4,0.1,0.5l0,0c0,0.9-0.7,1.8-1.6,2.1l0,0c-0.2,0-0.3,0.1-0.5,0.1
	l0,0C525.8,89.3,525,88.6,524.7,87.7z M538.5,84.2c0-0.2-0.1-0.4-0.1-0.5l0,0c0-0.9,0.6-1.8,1.6-2l0,0l0,0l0,0
	c1.1-0.3,2.3,0.4,2.6,1.6l0,0c0,0.2,0.1,0.4,0.1,0.5l0,0c0,0.9-0.7,1.8-1.6,2.1l0,0c-0.2,0-0.3,0.1-0.5,0.1l0,0
	C539.6,85.8,538.7,85.2,538.5,84.2z M94.5,84.4c-0.8-0.3-1.4-1.1-1.4-2l0,0c0-0.3,0-0.5,0.1-0.8l0,0c0.4-1.1,1.7-1.6,2.8-1.2l0,0
	c0.8,0.3,1.3,1.1,1.4,2l0,0c0,0.3,0,0.5-0.1,0.8l0,0c-0.3,0.8-1.1,1.4-2,1.4l0,0C95,84.5,94.8,84.5,94.5,84.4z M552.3,80.8
	c0-0.2-0.1-0.4-0.1-0.5l0,0c0-0.9,0.7-1.8,1.6-2.1l0,0c1.1-0.3,2.3,0.4,2.6,1.5l0,0c0,0.2,0.1,0.4,0.1,0.5l0,0
	c0,0.9-0.7,1.8-1.6,2.1l0,0c-0.2,0.1-0.3,0.1-0.5,0.1l0,0C553.4,82.4,552.5,81.7,552.3,80.8z M983.6,79.3c-0.8-0.4-1.3-1.1-1.3-2
	l0,0c0-0.3,0-0.6,0.2-0.8l0,0c0.4-1.1,1.7-1.6,2.8-1.1l0,0l0,0l0,0c0.8,0.3,1.3,1.1,1.3,1.9l0,0c0,0.3-0.1,0.6-0.2,0.8l0,0
	c-0.4,0.8-1.1,1.3-2,1.3l0,0C984.1,79.4,983.9,79.4,983.6,79.3z M81.3,79.1C80.5,78.8,80,78,80,77.2l0,0c0-0.3,0.1-0.6,0.2-0.8l0,0
	c0.4-1.1,1.7-1.6,2.8-1.2l0,0c0.8,0.3,1.3,1.1,1.3,1.9l0,0c0,0.3-0.1,0.6-0.2,0.8l0,0c-0.3,0.8-1.1,1.3-2,1.3l0,0
	C81.8,79.3,81.6,79.2,81.3,79.1z M566,77.3c0-0.2-0.1-0.4-0.1-0.5l0,0c0-0.9,0.7-1.8,1.6-2.1l0,0c1.1-0.3,2.3,0.4,2.6,1.5l0,0
	c0,0.2,0.1,0.4,0.1,0.5l0,0c0,0.9-0.7,1.8-1.6,2.1l0,0c-0.2,0.1-0.3,0.1-0.5,0.1l0,0C567.1,78.9,566.3,78.3,566,77.3z M579.8,73.8
	c0-0.2-0.1-0.4-0.1-0.5l0,0c0-0.9,0.7-1.8,1.6-2.1l0,0l0,0l0,0c1.1-0.3,2.3,0.4,2.6,1.6l0,0c0,0.2,0.1,0.4,0.1,0.5l0,0
	c0,0.9-0.7,1.8-1.6,2.1l0,0c-0.2,0-0.3,0.1-0.5,0.1l0,0C580.9,75.5,580,74.8,579.8,73.8z M970.5,74L970.5,74c-0.8-0.3-1.4-1.1-1.4-2
	l0,0c0-0.3,0-0.5,0.2-0.8l0,0c0.4-1.1,1.7-1.6,2.8-1.2l0,0c0.8,0.3,1.3,1.1,1.4,2l0,0c0,0.3,0,0.5-0.1,0.8l0,0
	c-0.3,0.8-1.1,1.4-2,1.4l0,0C971,74.1,970.8,74.1,970.5,74z M68.2,73.5c-0.8-0.3-1.3-1.1-1.3-2l0,0c0-0.3,0.1-0.6,0.2-0.8l0,0
	c0.5-1.1,1.7-1.6,2.8-1.1l0,0c0.8,0.3,1.3,1.1,1.3,2l0,0c0,0.3-0.1,0.6-0.2,0.8l0,0c-0.3,0.8-1.1,1.3-1.9,1.3l0,0
	C68.8,73.7,68.5,73.7,68.2,73.5z M593.6,70.4c0-0.2-0.1-0.4-0.1-0.5l0,0c0-0.9,0.7-1.8,1.6-2l0,0c1.1-0.3,2.3,0.4,2.6,1.6l0,0
	c0,0.2,0.1,0.4,0.1,0.5l0,0c0,0.9-0.7,1.8-1.6,2l0,0c-0.2,0.1-0.3,0.1-0.5,0.1l0,0C594.7,72,593.8,71.4,593.6,70.4z M957.3,69
	c-0.9-0.3-1.4-1.1-1.4-2l0,0c0-0.2,0-0.5,0.1-0.7l0,0c0.4-1.1,1.6-1.7,2.7-1.3l0,0c0.9,0.3,1.4,1.1,1.4,2l0,0c0,0.2,0,0.5-0.1,0.7
	l0,0c-0.3,0.9-1.1,1.4-2,1.4l0,0C957.8,69.2,957.5,69.1,957.3,69z M55.2,67.7L55.2,67.7c-0.8-0.4-1.2-1.1-1.2-1.9l0,0
	c0-0.3,0.1-0.6,0.2-0.9l0,0c0.5-1.1,1.8-1.5,2.8-1l0,0l0,0l0,0c0.8,0.4,1.2,1.1,1.2,1.9l0,0c0,0.3-0.1,0.6-0.2,0.9l0,0
	c-0.4,0.8-1.1,1.2-1.9,1.2l0,0C55.8,67.9,55.5,67.9,55.2,67.7z M621.1,63.8c0-0.2-0.1-0.3-0.1-0.5l0,0c0-1,0.7-1.8,1.7-2.1l0,0
	c1.1-0.3,2.3,0.4,2.5,1.6l0,0c0,0.2,0.1,0.3,0.1,0.5l0,0c0,1-0.7,1.8-1.7,2.1l0,0c-0.2,0-0.3,0.1-0.5,0.1l0,0
	C622.2,65.4,621.4,64.8,621.1,63.8z M943.9,64.5c-0.9-0.3-1.5-1.1-1.5-2l0,0c0-0.2,0-0.5,0.1-0.7l0,0c0.4-1.1,1.6-1.7,2.7-1.4l0,0
	c0.9,0.3,1.5,1.1,1.5,2l0,0c0,0.2,0,0.4-0.1,0.6l0,0c-0.3,0.9-1.1,1.5-2,1.5l0,0C944.4,64.6,944.1,64.6,943.9,64.5z M635,60.6
	c0-0.2,0-0.3,0-0.5l0,0c0-1,0.7-1.8,1.7-2.1l0,0c1.2-0.3,2.3,0.5,2.5,1.6l0,0c0,0.2,0.1,0.3,0.1,0.5l0,0c0,1-0.7,1.8-1.7,2.1l0,0
	c-0.2,0-0.3,0.1-0.5,0.1l0,0C636.1,62.3,635.2,61.6,635,60.6z M42.4,61.6c-0.8-0.4-1.2-1.1-1.2-1.9l0,0c0-0.3,0.1-0.6,0.2-0.9l0,0
	c0.5-1.1,1.8-1.5,2.8-1l0,0c0.8,0.4,1.2,1.1,1.2,1.9l0,0c0,0.3-0.1,0.6-0.2,0.9l0,0c-0.4,0.8-1.1,1.2-1.9,1.2l0,0
	C43,61.9,42.7,61.8,42.4,61.6z M930.4,60.3c-0.9-0.3-1.5-1.1-1.5-2.1l0,0c0-0.2,0-0.4,0.1-0.6l0,0c0.3-1.1,1.5-1.8,2.6-1.4l0,0l0,0
	l0,0c0.9,0.3,1.5,1.1,1.5,2l0,0c0,0.2,0,0.4-0.1,0.6l0,0c-0.3,0.9-1.1,1.5-2,1.5l0,0C930.8,60.4,930.6,60.4,930.4,60.3z M648.8,57.6
	c0-0.2,0-0.3,0-0.4l0,0c0-1,0.7-1.9,1.7-2.1l0,0l0,0l0,0c1.2-0.2,2.3,0.5,2.5,1.6l0,0c0,0.2,0,0.3,0,0.4l0,0c0,1-0.7,1.9-1.7,2.1
	l0,0c-0.2,0-0.3,0-0.5,0l0,0C649.9,59.2,649,58.6,648.8,57.6z M916.8,56.6c-1-0.2-1.6-1.1-1.6-2.1l0,0c0-0.2,0-0.3,0.1-0.5l0,0
	c0.3-1.1,1.5-1.8,2.6-1.5l0,0c1,0.2,1.6,1.1,1.6,2.1l0,0c0,0.2,0,0.3-0.1,0.5l0,0c-0.2,1-1.1,1.6-2.1,1.6l0,0
	C917.2,56.6,917,56.6,916.8,56.6z M662.7,54.7c0-0.1,0-0.3,0-0.4l0,0c0-1,0.7-1.9,1.7-2.1l0,0c1.2-0.2,2.3,0.5,2.5,1.7l0,0
	c0,0.2,0,0.3,0,0.4l0,0c0,1-0.7,1.9-1.7,2.1l0,0c-0.1,0-0.3,0-0.4,0l0,0C663.8,56.4,662.9,55.7,662.7,54.7z M29.7,55.3L29.7,55.3
	c-0.7-0.4-1.2-1.1-1.2-1.9l0,0c0-0.3,0.1-0.7,0.2-1l0,0c0.5-1,1.8-1.5,2.9-0.9l0,0l0,0l0,0c0.7,0.4,1.2,1.1,1.2,1.9l0,0
	c0,0.3-0.1,0.7-0.2,1l0,0c-0.4,0.7-1.1,1.2-1.9,1.2l0,0C30.3,55.5,30,55.5,29.7,55.3z M676.6,52c0-0.1,0-0.2,0-0.4l0,0
	c0-1,0.7-1.9,1.7-2.1l0,0l0,0l0,0c1.2-0.2,2.3,0.5,2.5,1.7l0,0c0,0.1,0,0.3,0,0.4l0,0c0,1-0.7,1.9-1.7,2.1l0,0c-0.1,0-0.3,0-0.4,0
	l0,0C677.7,53.7,676.8,53,676.6,52z M903.1,53.2L903.1,53.2c-1-0.2-1.6-1.1-1.7-2.1l0,0c0-0.2,0-0.3,0.1-0.5l0,0
	c0.3-1.1,1.4-1.9,2.5-1.6l0,0l0,0l0,0c1,0.2,1.6,1.1,1.7,2.1l0,0c0,0.1,0,0.3-0.1,0.5l0,0c-0.2,1-1.1,1.7-2.1,1.7l0,0
	C903.5,53.3,903.3,53.3,903.1,53.2z M690.6,49.5c0-0.1,0-0.2,0-0.4l0,0c0-1,0.7-1.9,1.8-2.1l0,0l0,0l0,0c1.2-0.2,2.3,0.6,2.5,1.7
	l0,0c0,0.1,0,0.3,0,0.4l0,0c0,1-0.7,1.9-1.8,2.1l0,0c-0.1,0-0.2,0-0.4,0l0,0C691.6,51.2,690.7,50.5,690.6,49.5z M889.3,50.3
	c-1-0.2-1.7-1.1-1.7-2.1l0,0c0-0.1,0-0.3,0-0.4l0,0c0.2-1.2,1.3-1.9,2.5-1.7l0,0c1,0.2,1.7,1.1,1.7,2.1l0,0c0,0.1,0,0.3,0,0.4l0,0
	c-0.2,1-1.1,1.7-2.1,1.7l0,0C889.6,50.3,889.5,50.3,889.3,50.3z M17.1,48.7c-0.7-0.4-1.1-1.1-1.1-1.9l0,0c0-0.3,0.1-0.7,0.2-1l0,0
	c0.5-1,1.8-1.4,2.9-0.9l0,0c0.7,0.4,1.1,1.1,1.1,1.9l0,0c0,0.3-0.1,0.7-0.2,1l0,0c-0.4,0.7-1.1,1.1-1.9,1.1l0,0
	C17.7,49,17.4,48.9,17.1,48.7z M704.5,47.2c0-0.1,0-0.2,0-0.3l0,0c0-1,0.8-1.9,1.8-2.1l0,0c1.2-0.2,2.2,0.6,2.4,1.8l0,0
	c0,0.1,0,0.2,0,0.3l0,0c0,1-0.8,1.9-1.8,2.1l0,0c-0.1,0-0.2,0-0.3,0l0,0C705.6,49,704.7,48.2,704.5,47.2z M875.5,47.8
	c-1.1-0.2-1.8-1.1-1.8-2.1l0,0c0-0.1,0-0.2,0-0.3l0,0c0.2-1.2,1.3-2,2.4-1.8l0,0l0,0l0,0c1,0.2,1.8,1.1,1.8,2.1l0,0
	c0,0.1,0,0.2,0,0.3l0,0c-0.2,1-1.1,1.8-2.1,1.8l0,0C875.7,47.8,875.6,47.8,875.5,47.8z M718.6,45.2c0-0.1,0-0.2,0-0.3l0,0
	c0-1,0.8-2,1.8-2.1l0,0l0,0l0,0c1.2-0.2,2.2,0.7,2.4,1.8l0,0c0,0.1,0,0.2,0,0.3l0,0c0,1-0.8,2-1.9,2.1l0,0c-0.1,0-0.2,0-0.3,0l0,0
	C719.6,47,718.7,46.2,718.6,45.2z M861.5,45.7L861.5,45.7c-1.1-0.1-1.9-1.1-1.9-2.1l0,0c0-0.1,0-0.2,0-0.3l0,0
	c0.2-1.2,1.2-2,2.4-1.8l0,0l0,0l0,0c1.1,0.1,1.9,1.1,1.9,2.1l0,0c0,0.1,0,0.2,0,0.3l0,0c-0.1,1.1-1.1,1.8-2.1,1.8l0,0
	C861.7,45.8,861.6,45.7,861.5,45.7z M732.6,43.4c0-0.1,0-0.1,0-0.2l0,0c0-1.1,0.8-2,1.9-2.1l0,0c1.2-0.1,2.2,0.7,2.4,1.9l0,0
	c0,0.1,0,0.2,0,0.2l0,0c0,1.1-0.8,2-1.9,2.1l0,0c-0.1,0-0.2,0-0.2,0l0,0C733.6,45.3,732.7,44.5,732.6,43.4z M847.5,44.1L847.5,44.1
	c-1.1-0.1-1.9-1-1.9-2.1l0,0c0-0.1,0-0.2,0-0.2l0,0c0.1-1.2,1.2-2,2.3-1.9l0,0c1.1,0.1,1.9,1,1.9,2.1l0,0c0,0.1,0,0.1,0,0.2l0,0
	c-0.1,1.1-1,1.9-2.1,1.9l0,0C847.6,44.1,847.6,44.1,847.5,44.1z M746.7,41.9c0-0.1,0-0.1,0-0.2l0,0c0-1.1,0.8-2,1.9-2.2l0,0l0,0l0,0
	c1.2-0.1,2.2,0.8,2.3,1.9l0,0c0,0.1,0,0.1,0,0.2l0,0c0,1.1-0.8,2-1.9,2.1l0,0c-0.1,0-0.1,0-0.2,0l0,0
	C747.7,43.9,746.8,43,746.7,41.9z M833.5,42.9L833.5,42.9c-1.1-0.1-2-1-2-2.1l0,0c0-0.1,0-0.1,0-0.2l0,0c0.1-1.2,1.1-2,2.3-2l0,0
	c1.1,0.1,2,1,2,2.1l0,0c0,0.1,0,0.1,0,0.2l0,0c-0.1,1.1-1,2-2.1,2l0,0C833.6,42.9,833.5,42.9,833.5,42.9z M4.6,41.9
	c-0.7-0.4-1.1-1.1-1.1-1.9l0,0c0-0.4,0.1-0.7,0.3-1l0,0c0.6-1,1.9-1.4,2.9-0.8l0,0c0.7,0.4,1.1,1.1,1.1,1.9l0,0c0,0.3-0.1,0.7-0.3,1
	l0,0c-0.4,0.7-1.1,1.1-1.9,1.1l0,0C5.3,42.2,4.9,42.1,4.6,41.9z M817.3,40L817.3,40L817.3,40c0-1.3,1-2.2,2.2-2.1l0,0
	c1.1,0,2,1,2,2.1l0,0v0.1l0,0c0,1.2-1,2.1-2.2,2l0,0C818.2,42,817.4,41.1,817.3,40z M774.9,40L774.9,40L774.9,40
	c0-1.2,0.9-2.1,2-2.2l0,0c1.2,0,2.2,0.9,2.2,2l0,0v0.1l0,0c0,1.1-0.9,2.1-2,2.1l0,0H777l0,0C775.9,42.1,774.9,41.2,774.9,40z
	 M805.3,41.7c-1.1,0-2.1-1-2.1-2.1l0,0c0,0,0,0,0-0.1l0,0c0-1.2,1-2.1,2.2-2.1l0,0c1.2,0,2.1,1,2.1,2.1l0,0c0,0,0,0,0,0.1l0,0
	C807.4,40.7,806.5,41.7,805.3,41.7L805.3,41.7L805.3,41.7z M789,39.6C789,39.6,789,39.5,789,39.6L789,39.6c0-1.2,0.9-2.1,2.1-2.2
	l0,0c1.2,0,2.1,0.9,2.2,2.1l0,0c0,0,0,0,0,0.1l0,0c0,1.1-0.9,2.1-2.1,2.1l0,0l0,0l0,0C790,41.7,789,40.7,789,39.6z M-7.7,34.9
	L-7.7,34.9c-0.7-0.4-1.1-1.1-1.1-1.8l0,0c0-0.4,0.1-0.7,0.3-1l0,0c0.6-1,1.9-1.4,2.9-0.8l0,0l0,0l0,0c0.7,0.4,1.1,1.1,1.1,1.9l0,0
	c0,0.4-0.1,0.7-0.3,1.1l0,0c-0.4,0.7-1.1,1.1-1.8,1.1l0,0C-7,35.2-7.4,35.1-7.7,34.9z M-20,27.7L-20,27.7c-0.7-0.4-1-1.1-1-1.8l0,0
	c0-0.4,0.1-0.8,0.3-1.1l0,0c0.6-1,1.9-1.3,2.9-0.7l0,0c0.7,0.4,1,1.1,1,1.8l0,0c0,0.4-0.1,0.8-0.3,1.1l0,0c-0.4,0.7-1.1,1-1.8,1l0,0
	C-19.3,28-19.6,27.9-20,27.7z M-32.1,20.3c-0.7-0.4-1-1.1-1-1.8l0,0c0-0.4,0.1-0.8,0.3-1.1l0,0c0.6-1,1.9-1.3,2.9-0.7l0,0
	c0.7,0.4,1,1.1,1,1.8l0,0c0,0.4-0.1,0.8-0.3,1.1l0,0c-0.4,0.6-1.1,1-1.8,1l0,0C-31.4,20.6-31.7,20.5-32.1,20.3z M-44.1,12.7
	c-0.6-0.4-1-1.1-1-1.8l0,0c0-0.4,0.1-0.8,0.3-1.1l0,0c0.6-1,2-1.3,2.9-0.6l0,0l0,0l0,0c0.6,0.4,1,1.1,1,1.8l0,0
	c0,0.4-0.1,0.8-0.3,1.1l0,0c-0.4,0.6-1.1,1-1.8,1l0,0C-43.3,13-43.7,12.9-44.1,12.7z M-56,4.9c-0.6-0.4-0.9-1.1-1-1.8l0,0
	c0-0.4,0.1-0.8,0.4-1.2l0,0c0.7-1,2-1.2,3-0.6l0,0c0.6,0.4,0.9,1.1,0.9,1.8l0,0c0,0.4-0.1,0.8-0.3,1.2l0,0c-0.4,0.6-1.1,0.9-1.8,0.9
	l0,0C-55.2,5.2-55.6,5.1-56,4.9z M-67.7-3.1c-0.6-0.4-0.9-1.1-0.9-1.8l0,0c0-0.4,0.1-0.8,0.4-1.2l0,0c0.7-1,2-1.2,2.9-0.6l0,0l0,0
	l0,0c0.6,0.4,0.9,1.1,0.9,1.8l0,0c0,0.4-0.1,0.8-0.4,1.2l0,0c-0.4,0.6-1.1,0.9-1.8,0.9l0,0C-66.9-2.7-67.3-2.8-67.7-3.1z
	 M-79.4-11.2c-1-0.7-1.2-2-0.5-3l0,0c0.7-1,2-1.2,3-0.5l0,0l0,0l0,0c0.9,0.7,1.2,2,0.5,3l0,0c-0.4,0.6-1.1,0.9-1.7,0.9l0,0
	C-78.6-10.8-79-11-79.4-11.2z"/>
<path class="st6" d="M343.3,119.8c0-0.1,0-0.1,0-0.2l0,0c0-1.1,0.9-2,2-2.1l0,0c1.2-0.1,2.2,0.8,2.3,2l0,0c0,0.1,0,0.1,0,0.2l0,0
	c0,1.1-0.9,2-2,2.1l0,0c-0.1,0-0.1,0-0.2,0l0,0C344.3,121.8,343.4,120.9,343.3,119.8z"/>
<path class="st6" d="M469.5,100.6c0-0.2-0.1-0.3,0-0.5l0,0c0-1,0.7-1.8,1.7-2.1l0,0l0,0l0,0c1.1-0.2,2.3,0.5,2.5,1.6l0,0
	c0,0.2,0,0.3,0,0.5l0,0c0,1-0.7,1.8-1.7,2.1l0,0c-0.2,0-0.3,0.1-0.5,0.1l0,0C470.6,102.3,469.7,101.6,469.5,100.6z"/>
<path class="st6" d="M107.8,89.3c-0.9-0.3-1.4-1.1-1.4-2l0,0c0-0.2,0-0.5,0.1-0.7l0,0c0.4-1.1,1.6-1.7,2.7-1.3l0,0
	c0.9,0.3,1.4,1.1,1.4,2l0,0c0,0.2,0,0.5-0.1,0.7l0,0c-0.3,0.9-1.1,1.4-2,1.4l0,0C108.3,89.5,108.1,89.4,107.8,89.3z"/>
<path class="st6" d="M607.3,67.1c0-0.2-0.1-0.3-0.1-0.5l0,0c0-1,0.7-1.8,1.6-2.1l0,0c1.1-0.3,2.3,0.4,2.6,1.6l0,0
	c0,0.2,0.1,0.3,0.1,0.5l0,0c0,1-0.7,1.9-1.6,2.1l0,0c-0.2,0-0.3,0.1-0.5,0.1l0,0C608.4,68.7,607.6,68,607.3,67.1z"/>
<path class="st6" d="M760.8,40.8c0-0.1,0-0.1,0-0.2l0,0c0-1.1,0.9-2,2-2.1l0,0c1.2-0.1,2.2,0.8,2.3,2l0,0v0.1l0,0
	c0,1.1-0.9,2.1-2,2.1l0,0H763l0,0C761.8,42.8,760.8,41.9,760.8,40.8z"/>
<rect x="70.5" y="-6.5" class="st7" width="905.2" height="172.2"/>
<circle class="st8" cx="1166.8" cy="291.1" r="18.8"/>
<g>
	<g>
		<g>
			<path class="st9" d="M277.1,247.4c35.7-1,67.8-4.5,75.1-31.8c3.1-11.5-1.1-16.1-13.3-16.1c-5.6,0-12.8,0.8-15.6,1.2
				c-13.8,1.6-30.6,4.2-45.8,6.7l1.9-22.5c7.3-0.5,39.4-3.7,46-4.1c6.8-0.5,14.5-1.1,21.4-1.1c11.2,0,40.6,0.3,31.1,35.8
				c-6.8,25.3-23.9,35.9-38,41.5c-25.6,10.2-49.9,10.6-61.1,10.8L277.1,247.4z M372,174.9c-12.1-3.5-30.6-8.5-70.8-10.4l8.6-19.8
				c33.5,1.4,53.9,4.8,72.3,9.1L372,174.9z"/>
			<path class="st9" d="M555.7,171.4c-3.9,11.2-8.1,22.2-12.6,33.4c7.9,3.3,11.7,5.5,14.6,7.1L544.2,235c-7.2-4.2-8.9-5.3-11.7-6.8
				c-16.1,28.5-37.9,34.9-54.8,39.3l-10-17.2c12.2-2,31.1-5.7,44.9-31.1c-15.6-5.1-21.2-5.9-25.3-6.4
				c-10.1,18.4-26.8,45.7-53.7,45.7c-17.4,0-24.7-11.5-20.6-26.8c5.7-21.2,30.8-37.8,60.3-39.3c3.5-7.9,7.5-18.8,9.1-23.1l-43.5,0.4
				l5.6-20.7h70.2c-1.3,3-1.7,4.8-8.6,21.8c-6.7,16.4-7.6,18.2-9.3,22.1c11.8,1.1,22.3,4.1,24.4,4.6c2.4-7.2,5.4-17.5,8.6-28
				L555.7,171.4z M434.3,231.1c-1,3.6-0.3,7,4.7,7c9.7,0,18.7-14.2,25.4-26.8C442.6,213.4,435.7,226,434.3,231.1z"/>
		</g>
	</g>
</g>
<g>
	<g>
		<g>
			<path class="st9" d="M724.7,156.8l-27,100.6H583l5.7-21.4h89.2l15.5-57.9h-87.7l5.7-21.3H724.7L724.7,156.8z"/>
			<path class="st9" d="M755.2,241.3c68.8-4.8,101.4-32.8,128.7-79.4l20.2,10.2c-41.8,69.9-91.4,85.7-147.1,92.7L755.2,241.3z
				 M813.9,192.6c-14.2-10.4-26.1-15.8-42.1-21l15.9-18.7c13.4,3.8,27.7,8.7,44.5,19.7L813.9,192.6z"/>
		</g>
	</g>
</g>
<g>
	<g>
		<g>
			<path class="st9" d="M724.8,156.7l-27,100.6H583l5.7-21.4h89.2l15.5-57.9h-87.7l5.7-21.3H724.8L724.8,156.7z"/>
		</g>
	</g>
</g>
<g>
	<path class="st9" d="M962.6,250.5v11.1h-42c0.5-4.2,1.8-8.2,4.1-12s6.8-8.8,13.5-15c5.4-5,8.7-8.4,9.9-10.2
		c1.6-2.5,2.5-4.9,2.5-7.3c0-2.7-0.7-4.7-2.2-6.2c-1.4-1.4-3.4-2.2-5.9-2.2s-4.5,0.8-6,2.3s-2.3,4-2.6,7.5l-11.9-1.2
		c0.7-6.6,2.9-11.3,6.7-14.2s8.4-4.3,14.1-4.3c6.2,0,11,1.7,14.5,5s5.3,7.5,5.3,12.4c0,2.8-0.5,5.5-1.5,8s-2.6,5.2-4.8,8
		c-1.5,1.8-4.1,4.5-7.8,8s-6.2,5.8-7.2,6.9c-1,1.1-1.8,2.2-2.5,3.3L962.6,250.5L962.6,250.5z"/>
	<path class="st10" d="M997.1,198.8c6.1,0,10.8,2.2,14.2,6.5c4.1,5.1,6.1,13.6,6.1,25.5c0,11.8-2,20.3-6.1,25.5
		c-3.4,4.3-8.1,6.4-14.2,6.4c-6.1,0-11-2.3-14.7-7c-3.7-4.7-5.6-13-5.6-25c0-11.8,2-20.2,6.1-25.4
		C986.3,200.9,991,198.8,997.1,198.8z M997.1,208.7c-1.5,0-2.7,0.5-3.9,1.4c-1.1,0.9-2,2.6-2.6,5c-0.8,3.1-1.2,8.3-1.2,15.7
		s0.4,12.4,1.1,15.1c0.7,2.7,1.7,4.6,2.8,5.5s2.4,1.4,3.9,1.4s2.7-0.5,3.9-1.4c1.1-0.9,2-2.6,2.6-5c0.8-3.1,1.2-8.3,1.2-15.6
		s-0.4-12.4-1.1-15.1c-0.7-2.7-1.7-4.6-2.8-5.5C999.8,209.2,998.5,208.7,997.1,208.7z"/>
	<path class="st9" d="M1072,250.5v11.1h-42c0.5-4.2,1.8-8.2,4.1-12c2.3-3.8,6.8-8.8,13.5-15c5.4-5,8.7-8.4,9.9-10.2
		c1.6-2.5,2.5-4.9,2.5-7.3c0-2.7-0.7-4.7-2.2-6.2c-1.4-1.4-3.4-2.2-5.9-2.2s-4.5,0.8-6,2.3s-2.3,4-2.6,7.5l-11.9-1.2
		c0.7-6.6,2.9-11.3,6.7-14.2c3.8-2.9,8.4-4.3,14.1-4.3c6.2,0,11,1.7,14.5,5s5.3,7.5,5.3,12.4c0,2.8-0.5,5.5-1.5,8s-2.6,5.2-4.8,8
		c-1.4,1.8-4.1,4.5-7.8,8s-6.2,5.8-7.2,6.9c-1,1.1-1.8,2.2-2.5,3.3L1072,250.5L1072,250.5z"/>
	<path class="st9" d="M1109.7,261.6V249h-25.6v-10.5l27.1-39.7h10.1v39.7h7.8V249h-7.8v12.6H1109.7z M1109.7,238.5v-21.4l-14.4,21.4
		H1109.7z"/>
</g>
<g>
	<path class="st11" d="M206.8,99.8l4.1-10.2l5.7,0.8l-4.1,10.2L206.8,99.8z M210,86.3l0.5-2.1l7.2,1.6l-0.5,2.1L210,86.3z
		 M211.2,81.2l0.5-2.1l7.2,1.6l-0.5,2.1L211.2,81.2z M216.7,100l1.8-6.7l-1.1-0.2l0.5-2.1l1.2,0.2l1.8-6.4l1.5,0.2l4.1,0.6l9.5,1.3
		l4.4,0.6l1.3,0.2l-1.5,6.5l0.8,0.1l-0.5,2.1l-0.9-0.1l-1.1,4.7l0.8,0.1l-0.5,2.1l-0.9-0.1l-0.3,1.1l-5.7-0.8l0.3-1.1l-2.4-0.3
		l-5.7-0.8l-2-0.3l-3.8-0.5L216.7,100z M220,83.3l1.9-2.7l6.2,0.9l-0.5,0.8l15.6,2.2l-0.5,2.1l-16.5-2.3l-4.9-0.7L220,83.3z
		 M222.9,98.7l1.9,0.3l1.2-4.7l-1.8-0.3L222.9,98.7z M224.7,92l1.8,0.2l1.1-4.4l-1.7-0.2L224.7,92z M233.9,95.4l-2.3-0.3l-1.2,4.7
		l2.4,0.3L233.9,95.4z M235.4,89l-2.2-0.3l-1.1,4.4l2.3,0.3L235.4,89z"/>
	<path class="st9" d="M247.9,105.1l1.7-10.7h0.2l6.7-0.6l-3.1-9.1l7.8,0.5l2.7,7.8l14.7-1.4l-0.3,2.1l-21,2l-1.2,7.8l20.6,1.4
		l-0.3,2.1L247.9,105.1z"/>
	<path class="st9" d="M286.2,94.5l0.2-2.1h5v-2.5h-4.9l0.2-2.1h12.8l0.1-1.4h6.9l-0.1,1.4h12.4l-0.2,2.1h-4.9l-0.6,2.5h5.2l-0.2,2.1
		H295l-3.1,12.9H285l3.1-12.9H286.2z M294.2,107.4l0.2-2.1h8.5l0.2-2.4h-7.4l0.2-2.1h7.4l0.2-2h-3.2h-2.4h-2.7l0.8-3.1h5.1l-0.2,1
		h2.8l0.1-1.7h6.9l-0.1,1.7h6.8l-0.2,2.1h-6.8l-0.2,2h5.9l-0.2,2.1H310l-0.2,2.4h7.5l-0.2,2.1h-7.5h-6.9H294.2z M306.4,92.3l0.6-2.5
		h-9.1v2.5H306.4z"/>
	<path class="st9" d="M323.3,90.1V88l1.8-0.1l-0.2-2l4.6-0.3l0.2,2l2.5-0.2l0.1-2l5.1-0.3l-0.1,2l4-0.3l0.1-2l5.1-0.3l-0.1,2
		l3.3-0.2l0.4-2l4.6-0.3l-0.4,2l1-0.1V88l-4.9,0.3l-0.4,2l4.8-0.3v2.1l-11.5,0.7v1.3l10.9-0.7v2.1L343,96.3v1.4l12.1-0.8V99
		L343,99.8l0,0l12,2.6l-0.1,2.7l-12-2.6l-0.1,3.4l-8,0.5l0.1-3.4l-12.1,4.1l0.1-2.7l12-4.1l0,0l-12,0.8V99l12-0.8v-1.4l-10.7,0.7
		v-2.1l10.7-0.7v-1.3l-11.3,0.7V92l4.6-0.3l-0.3-2L323.3,90.1z M335.4,89.3l0.3,2l7.1-0.4l0.4-2L335.4,89.3z"/>
	<path class="st9" d="M360.3,86.9l-0.1-2.1l4.6-0.5V83l6.8-0.8v1.3l9.1-1.1v-1.3l6.8-0.8v1.3L392,81l0.1,2.1l-4.5,0.5l0.1,3.4
		l-1.2,0.1l-5.6,0.7l-1.2,0.1l0.1,1.4l3.9-0.5l3.2-0.4L390,88l0.2,6.8l-2.9,0.3l-3.4,0.4L380,96l0.1,1.4l12.4-1.5l0.1,2.1l-12.4,1.5
		l0.1,2.7l-6.8,0.8l-0.1-2.7l-12.6,1.5l-0.1-2.1l12.6-1.5l-0.1-1.4l-3.8,0.5l-2.6,0.3l-3.7,0.4l-0.2-6.8l3.4-0.4l2.8-0.3L373,90
		l-0.1-1.4l-1.1,0.1l-5.8,0.7l-1,0.1l-0.1-3.4L360.3,86.9z M369.3,95.3l3.8-0.5l-0.1-2.5l-3.9,0.5L369.3,95.3z M371.7,85.5v1.3
		l9.1-1.1v-1.3L371.7,85.5z M383.7,91l-3.9,0.5l0.1,2.5l3.9-0.5L383.7,91z"/>
	<path class="st9" d="M397.6,86.6l-0.2-2.1l1.7-0.3l-0.2-2.7l-1.5,0.3l-0.2-2.1l5.4-0.9l-0.1-0.8l6.2-1l0.1,0.8l4.4-0.7l0.2,2.1
		l-1.1,0.2l0.1,2.7l1.4-0.2L414,84l-4.5,0.8l0.2,2.1l4.5-0.8l0.2,2.1l-4.5,0.8l0.1,1.5l4.1,0.9l0.2,2.7l-4.1-1l0.4,5l-6.2,1
		l-0.3-3.8l-1,2l-4.5,0.8l4-7.9l-4.5,0.7l-0.2-2.1l5.6-0.9l-0.2-2.1L397.6,86.6z M407.3,82.9l-0.1-2.7l-3.3,0.5l0.2,2.7L407.3,82.9z
		 M414.9,96.4l-0.1-19.1l13.8-3.7l0.2,2.1l-8.3,2.2v3l8.6-1.4l0.2,2.1l-1.3,0.2l0.9,13.1l-5.9,1l-1-13l-1.5,0.3v12.4L414.9,96.4z"/>
	<path class="st11" d="M435.3,75.6l-0.2-2.1l29.3-6l2.1,19.9l-29.2,6l-0.2-2.1l21.4-4.4l-1.7-15.7L435.3,75.6z"/>
	<path class="st11" d="M472,67.7l-0.3-2.1l10.8-2.5l0.3,2.1L472,67.7z M484.9,83.3l8.4-21.8l8.9-2.1l-8.4,21.8L484.9,83.3z"/>
	<path class="st9" d="M534.5,71.3L520.2,59l-3.6,10.2l-6.7,1.7l5.6-15.9l7.8-1.9l18.9,16.3L534.5,71.3z M536.7,52.7l-1.5,0.4
		l-0.5-3.5l1.5-0.4L536.7,52.7z M539.3,52l-1.5,0.4l-0.5-3.5l1.5-0.4L539.3,52z"/>
	<path class="st9" d="M546.1,49.8l-0.3-2.1l10.8-2.7l0.3,2.1L546.1,49.8z M559.3,65.1l8-22l8.9-2.2l-8,22L559.3,65.1z"/>
	<path class="st9" d="M583.5,40l-0.3-2.1l10.8-2.6l0.3,2.1L583.5,40z M584.6,47.5l-0.3-2.1l10.8-2.6l0.3,2.1L584.6,47.5z
		 M598.8,55.2l6-21l8.9-2.2l-6,21L598.8,55.2z"/>
	<path class="st9" d="M622.4,34.4l-0.3-2.1l27.8-6.2l2.1,16.7L624.4,49l-0.3-2.1l20.2-4.5l-0.7-5.8l-20.1,4.5l-0.3-2.1l20.1-4.5
		l-0.6-4.6L622.4,34.4z"/>
	<path class="st9" d="M658.9,23l-0.2-2.1l10.9-2l0.2,2.1L658.9,23z M671.2,39.1l9.3-21.4l9-1.7l-9.3,21.4L671.2,39.1z"/>
</g>
<path class="st10" d="M693.4,178h-87.7l5.7-21.3h113.3L693.4,178z"/>
<path class="st10" d="M863.2,222.6c-32.1,28.2-67.7,37.3-106.2,42.1l-1.7-23.5c42.4-2.9,71.1-14.7,93.2-34.2L863.2,222.6z"/>
<circle class="st12" cx="83.5" cy="144.5" r="73"/>
<g>
	<circle class="st13" cx="89.2" cy="248.2" r="52"/>
</g>
<line class="st1" x1="-171.5" y1="531.7" x2="208.5" y2="151.7"/>
<path class="st10" d="M372,174.9c-12.1-3.5-30.6-8.5-70.8-10.4l8.6-19.8c33.5,1.4,53.9,4.8,72.3,9.1L372,174.9z"/>
<path class="st10" d="M338.9,199.5c-5.6,0-12.8,0.8-15.6,1.2c-13.8,1.6-30.6,4.2-45.8,6.7l1.9-22.5c7.3-0.5,39.4-3.7,46-4.1
	c6.8-0.5,14.5-1.1,21.4-1.1L338.9,199.5z"/>
<path class="st10" d="M521.3,197.6c2.4-7.2,5.4-17.5,8.6-28l25.9,1.8c-3.9,11.2-8.1,22.2-12.6,33.4c7.9,3.3,11.7,5.5,14.6,7.1
	L544.2,235c-7.2-4.2-8.9-5.3-11.7-6.8c-16.1,28.5-37.9,34.9-54.8,39.3l-10-17.2c12.2-2,31.1-5.7,44.9-31.1L521.3,197.6z"/>
<g>
	<path class="st5" d="M118.6,333c0-1.9,1.5-3.5,3.5-3.5l0,0c1.9,0,3.5,1.5,3.5,3.5l0,0c0,1.9-1.5,3.5-3.5,3.5l0,0
		C120.2,336.5,118.6,334.9,118.6,333z"/>
	<path class="st5" d="M95.5,333c0-1.9,1.5-3.5,3.5-3.5l0,0c1.9,0,3.5,1.5,3.5,3.5l0,0c0,1.9-1.5,3.5-3.5,3.5l0,0
		C97.1,336.5,95.5,334.9,95.5,333z"/>
	<path class="st5" d="M72.4,333c0-1.9,1.6-3.5,3.5-3.5l0,0c1.9,0,3.5,1.5,3.5,3.5l0,0c0,1.9-1.6,3.5-3.5,3.5l0,0
		C74,336.5,72.4,334.9,72.4,333z"/>
</g>
<g>
	<path class="st5" d="M1098.5,333c0-1.9,1.5-3.5,3.5-3.5l0,0c1.9,0,3.5,1.5,3.5,3.5l0,0c0,1.9-1.5,3.5-3.5,3.5l0,0
		C1100.1,336.5,1098.5,334.9,1098.5,333z"/>
	<path class="st5" d="M1075.4,333c0-1.9,1.5-3.5,3.5-3.5l0,0c1.9,0,3.5,1.5,3.5,3.5l0,0c0,1.9-1.5,3.5-3.5,3.5l0,0
		C1077,336.5,1075.4,334.9,1075.4,333z"/>
	<path class="st5" d="M1052.3,333c0-1.9,1.6-3.5,3.5-3.5l0,0c1.9,0,3.5,1.5,3.5,3.5l0,0c0,1.9-1.6,3.5-3.5,3.5l0,0
		C1053.8,336.5,1052.3,334.9,1052.3,333z"/>
</g>
<g>
	<path class="st14" d="M154.7,325.4l4.6-5.4c3,2.1,5.9,4.6,8.1,7.1l-4.6,5.6C160.4,330,157.4,327.4,154.7,325.4 M155.3,349.5
		c3.2-4.3,5.9-9.3,8.3-15.2l5.5,4.4c-2.2,5.8-5.1,11.5-7.9,15.8L155.3,349.5z M157.3,313.5l4.6-5.4c3.2,2.2,5.9,4.6,8.1,6.9l-5,5.6
		C162.8,318.2,160,315.6,157.3,313.5 M185.9,354.2l-1.1-5.2c1.4,0.2,2.9,0.4,4.1,0.4c1.6,0,1.9-0.3,2.1-1.8h-14.7l-0.5,2.8l-6.6-0.8
		c1.1-5.5,1.6-7.9,2.2-12.3h-3.5v-5.7h4.4l0.6-5.8c-0.8,1-1.4,1.8-2.5,3l-3.9-6c4.2-4.4,6.7-9.3,7.9-15.2l7,1
		c-0.5,1.6-0.6,2.2-1.2,3.8h20.7v6.6h-23.6c-0.5,0.9-1.1,2-1.6,2.7h22.7c0,3-0.1,5.4-0.2,10h4.3v5.7h-4.5l-0.3,4.6h3.6v5.7h-4
		l-0.1,1.6c-0.3,4.1-1.5,5.3-5.3,5.3C189.3,354.5,187.6,354.4,185.9,354.2 M181,341.8l0.6-4.6h-3.8l-0.7,4.6H181z M182.2,331.5
		l0.4-4.4H179l-0.5,4.4H182.2z M191.4,341.8l0.3-4.6h-4.2l-0.5,4.6H191.4z M191.9,331.5l0.2-4.4h-3.8l-0.3,4.4H191.9z"/>
	<path class="st14" d="M210.4,348.8c3.2-4,6-8.5,9-15l5.4,4.7c-2.3,5.8-5.4,11.6-8.7,16.1L210.4,348.8z M210.8,325.2l4.5-5.4
		c2.8,2,5.9,4.7,8.1,7.1l-4.6,5.5C216,329.6,213.4,327.2,210.8,325.2 M212.9,313.6l4.6-5.4c2.9,2,5.5,4.3,8,6.9l-5,5.5
		C217.6,317.4,215.3,315.3,212.9,313.6 M237.4,343.7h-12.5v-6.6h12.5v-4.1h-10.2v-6.2h10.2v-4h-11.6v-6.4h6.4
		c-0.8-2.4-1.9-4.6-3.3-6.6l6.7-2.3c1.5,2,2.7,4.5,3.7,7.2l-4.8,1.7h7.9c1.4-3.1,2.4-6.1,3.2-9.2l7.4,2c-0.9,2.6-1.8,4.7-3.2,7.2h7
		v6.4h-12.1v4h10.5v6.2h-10.5v4.1h13.2v6.6h-13.2v10.7h-7.3V343.7z"/>
	<path class="st14" d="M265.9,342.6c1.5-0.3,4.5-1.1,5.8-1.5v-9.4h-4.3v-6.8h4.3v-7.6h-4.8v-6.8h16.1v6.8h-4.5v7.6h4v-2.8h31.6v4.8
		h-31.6v4.7h-4.1v7.2c0.9-0.3,3-1.1,4.7-1.8l0.4,6.8c-5.3,2.6-10.6,4.6-15.7,5.9L265.9,342.6z M293.7,347.1c-2.4,2.1-5.5,4.3-8.9,6
		l-4.6-5.3c5.8-2.4,10.3-5.2,14.1-8.8h-9v-10.5h26v10.5h-1.3l3.1,2.1c-1.5,1.2-3.2,2.5-4.9,3.6c1.5,0.9,3,1.6,6.5,2.7l-4.1,5.7
		c-3.7-1.7-7.2-4.2-10.3-7.1v8.4h-6.8V347.1z M284.6,308.4h27.6v12h-27.6V308.4z M293,312.5h-2.6v4h2.6V312.5z M304.8,332.5h-13v2.9
		h13V332.5z M299.5,312.5h-2.6v4h2.6V312.5z M307.2,339.1h-5.3l-0.6,0.5c1.6,1.5,2.1,1.9,2.9,2.4
		C305.1,341.3,306.4,340.1,307.2,339.1 M306.3,312.5h-2.8v4h2.8V312.5z"/>
	<path class="st14" d="M321.8,341.3c1.1-0.2,3.4-0.8,5.6-1.4v-13.7h-4.7v-6.7h4.7v-10.6h6.7v10.6h3.7v-0.4h7.1
		c-0.6-1.6-0.8-2.2-1.2-3.1h-4.4v-5h10.5v-3.4h7v3.4h10.9v5h-4.4c-0.4,1.2-0.6,1.9-1.1,3.1h7.1v5.1h-31.3v2.1H334v11.6
		c1.5-0.5,3-1,4.3-1.5l0.4,6.7c-6.2,2.7-11.3,4.5-15,5.6L321.8,341.3z M333.6,349.3c7.3-0.9,10.2-2.9,10.7-7.5h-3.6v-15.6h25.7v15.6
		h-6.8v5.3c0,1,0.3,1.2,2.3,1.2c2.4,0,2.7-0.5,2.7-5l5.8,1.2c-0.1,5.6-0.6,7.9-2.1,8.7c-1.2,0.6-3.8,0.9-8.1,0.9
		c-6.2,0-7.1-0.6-7.1-4.4v-8h-2.2c-0.5,7.5-4.7,11.6-13.8,13.6L333.6,349.3z M359.8,329.9h-12.6v2h12.6V329.9z M359.8,335.8h-12.6
		v2.2h12.6V335.8z M356,319.1c0.4-1,0.7-1.8,1-3.1h-7.3c0.5,1.3,0.7,1.8,1.1,3.1H356z"/>
	<path class="st14" d="M400.2,337.3c-4.3,2.2-6.2,4.2-6.2,5.8c0,1.7,2,2.7,7.5,2.7c3.3,0,8.9-0.4,13.6-1.4l1.3,7.6
		c-4.7,0.5-10.7,0.8-14,0.8c-11.3,0-15.7-3.2-15.7-8.7c0-5.6,5.5-9.6,12.7-13.2c-0.5-1-1.4-1.6-2.8-1.6c-2.1,0-4.4,1.1-6.6,3
		c-2.1,1.9-3.6,3.6-5.6,6.3l-6-4.5c4-3.5,7.2-7.3,10-12.4c-3.1,0.2-5.9,0.3-8.5,0.4l-0.7-7.2c3.9-0.1,8.1-0.2,12.6-0.4
		c0.9-2.3,1.8-4.8,2.6-7.5l7.2,2.1c-0.6,1.6-1.1,3.2-1.8,4.7c3.9-0.4,7.8-1,11.6-1.8l0.9,7.2c-4.7,0.8-10.4,1.4-16.1,1.9
		c-0.5,0.9-1.1,1.9-1.7,2.9c1.3-0.4,2.4-0.6,3.7-0.6c4,0,6.4,1.7,7.7,4.7c3.6-1.7,7.5-3.3,11.3-4.9l2.8,6.8c-5,1.6-9.2,3.2-12.7,4.6
		c0.1,1.3,0.2,2.4,0.2,3.3c0,2,0,3.3-0.1,5.3h-7.2C400.2,339.9,400.2,338.7,400.2,337.3"/>
	<path class="st14" d="M427.6,346.8c2.7-1.5,5-3,7-4.8v-8.9h-6v-7h13.1v16.4c0.8,1,1.9,2,3.2,2.7v-26.1h9.9
		c-1.7-0.9-3.1-1.5-5.6-2.5l3.1-2.7h-7.5v-5.3h24.6l3.2,3.6c-2.9,2.7-5.5,4.7-8.5,6.6l0.5,0.3h8.5v21.4c0,3.9-1,5-4.8,5
		c-1.7,0-3.8-0.1-4.8-0.3l-1.1-4.8c1,0.2,2.4,0.3,3.3,0.3c0.7,0,1-0.3,1-1.2V337h-4.9v7.2h-6V337h-4.6v8.3h-6
		c2.7,1.3,5.9,1.6,15.5,1.6c4.6,0,8.3-0.1,15.4-0.3c-0.9,2.1-1.6,4.4-2,7l-2.4,0.1c-7.2,0.1-8.5,0.1-11.7,0.1c-8,0-12-0.3-14.3-1
		c-3-0.9-5.2-2.6-7.2-5.5c-2.2,3-4.2,5.2-6.9,7.5L427.6,346.8z M429.1,313.3l5.4-4.4c3.3,2.9,5.9,5.6,8.4,9l-5.9,4.7
		C434.6,319.1,432.1,316.1,429.1,313.3 M455.7,323.3h-4.6v2.5h4.6V323.3z M455.7,330h-4.6v2.7h4.6V330z M462.4,313.7h-8.2
		c1.9,0.8,3.2,1.4,4.9,2.4C460.3,315.5,461.4,314.7,462.4,313.7 M466.6,323.3h-4.9v2.5h4.9V323.3z M466.6,330h-4.9v2.7h4.9V330z"/>
	<path class="st14" d="M492.8,337.7c0-2.9,0.2-8.7,0.3-12.7c0.1-3.6,0.2-11.5,0.1-15.8l8.1,0.1c-0.1,4.4-0.4,11.9-0.5,15.5
		c-0.2,3.5-0.3,9.5-0.3,12.7c0,5.9,1.8,8.2,5.8,8.2c5.4,0,11.8-4.6,15.6-11.9l4.1,8.1c-5.8,7.6-12.2,11.1-20,11.1
		C497.1,353,492.8,348,492.8,337.7 M509,314.8l4.3-1.9c2,3.3,2.9,5.2,4.1,9l-4.5,2C511.7,320,510.9,318,509,314.8 M515.7,312.9
		l4.4-1.9c2.1,3.1,2.9,5.3,4.2,9l-4.6,1.9C518.5,318.2,517.6,315.6,515.7,312.9"/>
	<path class="st14" d="M537.1,350.4c4.2-9.4,7.2-18.2,9.4-27.3c-3.5,0.2-6.7,0.4-9.1,0.5l-0.8-7.1c3.5-0.1,7.5-0.2,11.5-0.4
		c0.5-2.8,1-5.7,1.4-8.6l7.5,1.1c-0.5,2.3-0.9,4.6-1.4,6.8c3.9-0.4,7.7-0.9,11.2-1.6l1.1,7c-4.3,0.7-9.1,1.3-13.8,1.7
		c-2.5,10.4-5.5,20.2-9.6,30.8L537.1,350.4z M555.6,343.2c0-2.2,1.3-5.4,3.1-7.7l6.7,2c-1.6,1.6-2.4,3.2-2.4,4.3
		c0,1.6,1.8,2.8,6.7,2.8c2.7,0,6.7-0.3,9.9-0.9l1.5,7.2c-3.5,0.5-8.2,0.7-10.8,0.7C560.4,351.7,555.6,348.5,555.6,343.2
		 M558.4,325.8c7-1.3,14.3-1.8,20.6-1.3l-1,6.9c-4.6-0.5-12.6,0-17.8,1L558.4,325.8z"/>
	<path class="st14" d="M608.1,350c-0.1,3.3-1.1,4.3-4.6,4.3c-1.4,0-3.1-0.1-4.3-0.3l-1.2-6.8c1,0.2,2.1,0.3,2.9,0.3
		c0.9,0,1.1-0.3,1.1-1.2V339h-4.5c-0.4,6.6-1.6,12.1-3.5,16.1l-5.3-5.2c2.1-4.5,2.9-9,2.9-16.8v-24h16.5v39.9
		c4.8-2.6,6.8-6.5,7-13.5H611v-17.4h4.2c-1-2.7-2.2-5-3.8-7.3l6.4-2.7c1.5,1.9,3,4.6,4.2,7.6l-5.6,2.3h7.2c1.5-3.2,2.6-6.1,3.7-10.4
		l6.9,2.4l-0.3,0.5c-2,4.2-2.7,5.5-3.8,7.5h5.2v17.4h-5.6v10.2c0,0.9,0.2,1.1,0.6,1.1h1c0.6,0,0.7-0.6,0.8-1.6
		c0.1-0.9,0.2-2.5,0.2-4.6l5.7,1.7c0,4.8-0.5,8.4-1.2,9.7c-0.8,1.4-2.6,1.9-7,1.9c-0.9,0-1.6,0-2.6-0.1c-2.6-0.1-3.5-1.1-3.5-3.6
		v-14.8h-2.4c-0.2,10.3-2.7,15.6-9.5,19.6L608.1,350z M602.1,315.6h-4.4v5.6h4.4V315.6z M602.1,327.2h-4.4v5.8h4.4V327.2z
		 M628.7,323.9h-11v5.9h11V323.9z"/>
	<path class="st14" d="M654.1,349.4c-0.7,1.8-1.7,3.4-3.2,5.5l-5.7-5.2c3.2-4.4,4.2-8.6,4.2-17.7v-9.9h42v6h-35v5.1
		c0,7.5-0.6,11.8-2.1,15.5c10.3-2.5,14.2-6.5,14.4-14.9v-4.5h6.7v2.3c0.2,8.5,5.5,13.4,17.4,15.9l-3.9,6.7
		c-7.9-2.2-13-5.8-16.2-11.4c-2.4,6-7,9.7-15,12L654.1,349.4z M651,309.1h7v5.4h8.2v-6.9h7.1v6.9h8.4v-5.4h7.1v11.1H651V309.1z
		 M656.3,341.1c1.7-2.8,2.8-5.9,3.5-10l6.5,1.5c-0.9,4.7-2.2,8.6-4.1,11.5L656.3,341.1z M678.1,339.6c2.1-3,3.9-6.4,4.9-9.3l6.8,2.9
		c-1.6,3.3-4,7.1-6.2,9.5L678.1,339.6z"/>
	<path class="st14" d="M721.1,343c-4.8,0.3-11,0.5-17.3,0.5l-1.9-5.6h4.3c6,0,6.4,0,8.3-0.1c-2.5-1.5-3.5-2.1-6.7-3.8l4.7-4.2
		c1.2,0.7,2.3,1.4,3.3,2.1c1.2-1.1,2-2,2.8-2.9h-16.8v-5.3h19.3V322H707v-4.5h14.2v-1.8h-16.5v-5h16.5v-3h7.3v3h16.9v5h-16.9v1.8
		h14.5v4.5h-14.5v1.9h19.7v5.3h-17l6,2.6c-2.5,2.2-4.8,4-7.4,5.8l6.8-0.3c-0.7-0.7-1.5-1.5-2.1-2l5.3-2.9c3.1,2.5,6.2,5.7,8.9,9.1
		l-5.9,3.2c-0.9-1.2-1.5-2-2.2-2.9c-3.5,0.3-8.8,0.7-12,0.9v12h-7.5V343z M701.8,349.4c4.4-1.4,8.7-3.5,12-6l5.4,3.9
		c-3.3,2.6-8,5.5-12.7,7.5L701.8,349.4z M730.7,329.1h-4.7l0.7,0.4c-1.9,1.9-3.9,3.8-6.2,5.6l2,1.4
		C725.2,334.5,727.7,332.2,730.7,329.1 M730.9,347.1l4.5-4.4c4.8,1.6,9.5,3.6,13.3,5.8l-4.8,5.7
		C740.4,351.7,735.7,349.2,730.9,347.1"/>
	<path class="st14" d="M764.8,338.1c-1.7,1.6-3.5,3.2-5,4.3l-3.6-6.4c5.5-3.6,10.1-8.6,12.8-13.7H758v-6.7h6.7v-7.9h7v7.9h4.6
		l2.2,2.1c-1.5,4-3.5,7.6-6.3,11.6c3.5,2.3,5.6,3.9,8.2,6.1l-4,6.3c-2-2.3-3-3.3-4.6-5v17.8h-7V338.1z M775.2,345.6H786v-17.4h-8.5
		v-7.1h8.5v-13.2h7.6v13.2h9.2v7.1h-9.2v17.4h10.8v7.2h-29.2V345.6z"/>
	<path class="st14" d="M812.1,323.5c8.8-3.3,15.1-8.3,20-15.6h8.3c5,6.8,11,11.2,20.3,14.5l-3.7,7.1c-3.3-1.5-6.1-3-8.7-4.6v3.4
		h-23.6v-2.8c-3,2-5.4,3.3-8.5,4.7L812.1,323.5z M848.8,350.7c-9.4,1.5-20.1,2.7-31.2,3.5l-2-7.3c2.5-0.1,5.9-0.2,7-0.2
		c1.8-3.6,2.8-5.8,3.8-8.3h-11.6v-6.6h43.7v6.6h-10.5c4.3,4.4,7.5,8,10.9,12.6l-6.9,4.2C850.7,353.3,849.9,352.1,848.8,350.7
		 M844.1,321.9c-2.9-2.3-5.5-5-7.7-7.8c-2.1,3-4.4,5.5-6.9,7.8H844.1z M844.4,345.1c-1.5-1.7-2.3-2.6-3.8-4l5.4-2.8h-11.5
		c-1.1,2.5-2.6,5.1-4.2,7.9C835.6,346,839.7,345.7,844.4,345.1"/>
	<path class="st14" d="M890.7,346.7c9.7-2.9,14.6-7.7,14.6-15.1c0-6.8-4.1-11.1-10.5-11.9c-0.5,5.7-1.5,10.9-2.8,15.2
		c-2.6,8.3-7.2,13.3-12.6,13.3c-5.6,0-9.6-5.7-9.6-12.8c0-12.6,10.1-22.6,23.1-22.6c12,0,20.1,7.5,20.1,18.7
		c0,10-5.9,16.9-16.7,20.7L890.7,346.7z M879.8,340.4c2,0,4.3-2.7,6.1-8.7c1.1-3.6,1.8-7.2,2.1-11.4c-6.4,2.1-10.9,8.1-10.9,14.5
		C877.1,338,878.3,340.4,879.8,340.4"/>
	<path class="st14" d="M943.4,330.2c-0.6,1.3-0.9,2-1.8,3.6l-1.7-3.6l0.2,5.1c-1.4,0.5-3.3,1-4.6,1.4v13.1c0,3.6-1.1,4.7-5,4.7
		c-1.6,0-3.6-0.2-5.2-0.4l-1.5-7.3c1.2,0.2,2.5,0.4,3.5,0.4c1.1,0,1.4-0.3,1.4-1.3v-7.5c-1.1,0.3-2.8,0.7-5.2,1.2l-1.4-7.3
		c0.9-0.1,3.8-0.6,6.5-1v-8.1h-5.5v-6.6h5.5v-8.9h6.7v8.9h4.8v6.6h-4.8v6.7c0.6-0.1,2.9-0.6,3.9-0.9l-0.9-2.1
		c3.3-4.6,6-11.6,7.6-19.5l6.7,1.5c-0.7,2.7-1.1,4-2.2,7.1h4.3c1.3-2.6,2.2-5.1,3.1-8.2l6.7,1.5c-0.9,2.2-1.8,4.2-3.1,6.8h7.6v6.4
		h-8.4v3.8h7.1v6h-7.1v3.8h7.1v6h-7.1v4h9.3v6.5h-20.4v2.2h-6.3V330.2z M954.5,322.3h-4.8v3.8h4.8V322.3z M954.5,332.1h-4.8v3.8h4.8
		V332.1z M954.5,341.9h-4.8v4h4.8V341.9z"/>
	<path class="st14" d="M977.9,346.9c2.4-1.3,4.3-2.5,6.3-4.1v-9.7h-5.3v-7h11.3l-1.4-1.8c4.4-4.1,8-10.2,10-16.9l6.7,1.5
		c-0.8,2-1.4,3.3-2.4,5.2h5.2c0.9-1.8,1.7-3.9,2.4-6.3l6.7,1.6c-0.9,1.9-1.5,3.1-2.5,4.7h8.9v5.5h-9.9v2.7h8v5.3h-8v2.7h8v5.3h-8
		v2.9h10.6v5.6h-22.8v1.7h-6.3v-19c-0.6,1.3-1.5,2.6-2.5,3.9l-1.9-2.9v15c1.6,2.2,3.9,3.4,7.6,4c2,0.3,5.6,0.5,11.2,0.5
		c4.5,0,9-0.2,17.3-0.5c-0.8,2.4-1.5,4.7-2.1,7.2c-5.1,0.2-10.1,0.3-13.2,0.3c-8.9,0-14.3-0.5-16.9-1.5c-2.6-0.9-4.6-2.5-6.5-5
		c-1.8,2.5-4,4.9-6.5,7.2L977.9,346.9z M979.2,312l5.3-4c2.7,2.5,5.1,5.3,7.5,8.8l-5.8,4.4C984,317.6,981.8,314.7,979.2,312
		 M1007.7,319.5h-5.9v2.7h5.9V319.5z M1007.7,327.4h-5.9v2.7h5.9V327.4z M1007.7,335.4h-5.9v2.9h5.9V335.4z"/>
</g>
</svg>
