<?xml version="1.0" encoding="utf-8"?>
<!-- Generator: Adobe Illustrator 28.0.0, SVG Export Plug-In . SVG Version: 6.00 Build 0)  -->
<svg version="1.1" id="レイヤー_1" xmlns="http://www.w3.org/2000/svg" xmlns:xlink="http://www.w3.org/1999/xlink" x="0px"
	 y="0px" viewBox="0 0 1403.3 342.2" style="enable-background:new 0 0 1403.3 342.2;" xml:space="preserve">
<style type="text/css">
	.st0{opacity:0.5;fill:#80C8E6;enable-background:new    ;}
	.st1{fill:none;stroke:#002B69;stroke-width:1.4173;stroke-miterlimit:10;}
	
		.st2{fill:none;stroke:#0092CE;stroke-width:1.4173;stroke-miterlimit:10;stroke-dasharray:21.5433,8.0787,53.8583,13.4646,4.0394,5.3858;}
	
		.st3{fill:none;stroke:#002B69;stroke-width:1.4173;stroke-miterlimit:10;stroke-dasharray:21.5433,8.0787,53.8583,13.4646,4.0394,5.3858;}
	
		.st4{fill:none;stroke:#009FE8;stroke-width:4.252;stroke-linecap:round;stroke-linejoin:round;stroke-miterlimit:10;stroke-dasharray:0,14.1732,0,0,0,0;}
	.st5{fill:#009FE8;}
	.st6{fill:#003686;}
	.st7{fill:none;}
	.st8{fill:#14325E;}
	.st9{fill:#80C8E6;}
	.st10{fill:#FFFFFF;stroke:#003686;stroke-width:0.8504;stroke-linejoin:round;stroke-miterlimit:10;}
	.st11{fill:#1B94D3;}
	.st12{fill:#3C7DB8;}
	.st13{fill:#2F9F3A;}
	.st14{fill:#CEA014;}
	.st15{fill:#BA1B29;}
	.st16{fill:#168F3B;}
	.st17{fill:#4B853D;}
	.st18{fill:#EEB619;}
	.st19{fill:#D93A1C;}
	.st20{fill:#EA9D15;}
	.st21{fill:#1170AE;}
	.st22{fill:#901D32;}
	.st23{fill:#179BC8;}
	.st24{fill:#E16810;}
	.st25{fill:#C91723;}
	.st26{fill:#CB1472;}
	.st27{fill:#CC8E0E;}
	.st28{fill:#014981;}
	.st29{fill:#0092CE;}
	.st30{fill:#B2DEF0;}
	.st31{fill:#80A6D0;}
	.st32{fill:#15315E;}
</style>
<ellipse transform="matrix(0.1602 -0.9871 0.9871 0.1602 748.2563 1111.078)" class="st0" cx="1027.1" cy="115.8" rx="27.2" ry="27.2"/>
<line class="st1" x1="1018.9" y1="131.5" x2="1398.9" y2="-248.5"/>
<g>
	<line class="st2" x1="1267.5" y1="305.8" x2="1800.8" y2="-224.6"/>
</g>
<line class="st3" x1="-9.1" y1="320.1" x2="370.9" y2="-59.9"/>
<path class="st4" d="M50.9-12.9c462.5,327.6,698.4-68.4,1068.6,92.9"/>
<path class="st5" d="M429.8,121.3c0-1.2,0.9-2.1,2.1-2.1l0,0l0,0l0,0c1.2,0,2.1,0.9,2.1,2.1l0,0c0,1.2-0.9,2.1-2.1,2.1l0,0
	c0,0,0,0,0,0l0,0C430.8,123.4,429.8,122.4,429.8,121.3z M415.7,121.1C415.7,121.1,415.7,121.1,415.7,121.1L415.7,121.1
	c0-1.2,1-2.2,2.2-2.1l0,0l0,0l0,0c1.1,0,2.1,1,2.1,2.1l0,0c0,0,0,0,0,0.1l0,0c0,1.2-1,2.1-2.2,2.1l0,0
	C416.6,123.2,415.7,122.3,415.7,121.1z M444,121.1C444,121.1,444,121.1,444,121.1L444,121.1c0-1.2,0.9-2.2,2.1-2.2l0,0l0,0l0,0
	c1.2,0,2.1,0.9,2.2,2.1l0,0c0,0,0,0,0,0.1l0,0c0,1.2-0.9,2.1-2.1,2.1l0,0c0,0,0,0-0.1,0l0,0C445,123.2,444,122.2,444,121.1z
	 M403.5,122.8c-1.1-0.1-2-1-2-2.1l0,0c0,0,0-0.1,0-0.1l0,0c0-1.2,1-2.1,2.2-2l0,0c1.1,0.1,2,1,2,2.1l0,0c0,0,0,0.1,0,0.1l0,0
	c-0.1,1.1-1,2-2.1,2l0,0C403.6,122.8,403.6,122.8,403.5,122.8z M458.2,120.6c0,0,0-0.1,0-0.1l0,0c0-1.1,0.9-2.1,2-2.1l0,0
	c1.2-0.1,2.2,0.8,2.2,2l0,0c0,0,0,0.1,0,0.1l0,0c0,1.1-0.9,2.1-2,2.1l0,0c0,0-0.1,0-0.1,0l0,0C459.1,122.6,458.2,121.7,458.2,120.6z
	 M389.3,122c-1.1-0.1-2-1-2-2.1l0,0c0-0.1,0-0.1,0-0.2l0,0c0.1-1.2,1.1-2.1,2.3-2l0,0l0,0l0,0c1.1,0.1,2,1,2,2.1l0,0
	c0,0.1,0,0.1,0,0.2l0,0c-0.1,1.1-1,2-2.1,2l0,0C389.4,122,389.4,122,389.3,122z M375.1,120.8c-1.1-0.1-1.9-1-1.9-2.1l0,0
	c0-0.1,0-0.1,0-0.2l0,0c0.1-1.2,1.1-2,2.3-1.9l0,0c1.1,0.1,1.9,1,1.9,2.1l0,0c0,0.1,0,0.1,0,0.2l0,0c-0.1,1.1-1,1.9-2.1,1.9l0,0
	C375.3,120.8,375.2,120.8,375.1,120.8z M486.4,118.7c0-0.1,0-0.2,0-0.2l0,0c0-1.1,0.8-2,1.9-2.1l0,0c1.2-0.1,2.2,0.8,2.3,1.9l0,0
	c0,0.1,0,0.1,0,0.2l0,0c0,1.1-0.8,2-1.9,2.1l0,0c-0.1,0-0.1,0-0.2,0l0,0C487.4,120.6,486.5,119.8,486.4,118.7z M361,119.2
	c-1.1-0.1-1.9-1.1-1.9-2.1l0,0c0-0.1,0-0.2,0-0.3l0,0c0.1-1.2,1.2-2,2.4-1.8l0,0l0,0l0,0c1.1,0.1,1.9,1,1.9,2.1l0,0
	c0,0.1,0,0.2,0,0.3l0,0c-0.1,1.1-1,1.9-2.1,1.9l0,0C361.2,119.2,361.1,119.2,361,119.2z M500.5,117.2c0-0.1,0-0.1,0-0.2l0,0
	c0-1.1,0.8-2,1.9-2.1l0,0c1.2-0.1,2.2,0.7,2.4,1.9l0,0c0,0.1,0,0.1,0,0.2l0,0c0,1.1-0.8,2-1.9,2.1l0,0c-0.1,0-0.2,0-0.2,0l0,0
	C501.6,119.1,500.6,118.3,500.5,117.2z M514.6,115.6c0-0.1,0-0.2,0-0.3l0,0c0-1.1,0.8-2,1.8-2.1l0,0c1.2-0.2,2.2,0.7,2.4,1.8l0,0
	c0,0.1,0,0.2,0,0.3l0,0c0,1.1-0.8,2-1.8,2.1l0,0c-0.1,0-0.2,0-0.3,0l0,0C515.7,117.4,514.8,116.6,514.6,115.6z M346.9,117.3
	c-1-0.2-1.8-1.1-1.8-2.1l0,0c0-0.1,0-0.2,0-0.3l0,0c0.2-1.2,1.2-2,2.4-1.8l0,0c1,0.2,1.8,1.1,1.8,2.1l0,0c0,0.1,0,0.2,0,0.3l0,0
	c-0.2,1.1-1.1,1.8-2.1,1.8l0,0C347.1,117.3,347,117.3,346.9,117.3z M528.7,113.6c0-0.1,0-0.2,0-0.3l0,0c0-1,0.8-1.9,1.8-2.1l0,0
	c1.2-0.2,2.2,0.6,2.4,1.8l0,0c0,0.1,0,0.2,0,0.3l0,0c0,1-0.8,1.9-1.8,2.1l0,0c-0.1,0-0.2,0-0.3,0l0,0
	C529.8,115.4,528.9,114.7,528.7,113.6z M332.9,115c-1-0.2-1.8-1.1-1.8-2.1l0,0c0-0.1,0-0.2,0-0.4l0,0c0.2-1.2,1.3-1.9,2.5-1.7l0,0
	c1,0.2,1.8,1.1,1.8,2.1l0,0c0,0.1,0,0.2,0,0.4l0,0c-0.2,1-1.1,1.8-2.1,1.8l0,0C333.1,115.1,333,115.1,332.9,115z M542.7,111.4
	c0-0.1,0-0.3,0-0.4l0,0c0-1,0.7-1.9,1.8-2.1l0,0c1.2-0.2,2.2,0.6,2.4,1.8l0,0c0,0.1,0,0.2,0,0.4l0,0c0,1-0.8,1.9-1.8,2.1l0,0
	c-0.1,0-0.2,0-0.3,0l0,0C543.8,113.2,542.9,112.5,542.7,111.4z M318.9,112.4L318.9,112.4c-1-0.2-1.7-1.1-1.7-2.1l0,0
	c0-0.1,0-0.3,0-0.4l0,0c0.2-1.2,1.4-1.9,2.5-1.7l0,0c1,0.2,1.7,1.1,1.7,2.1l0,0c0,0.1,0,0.3,0,0.4l0,0c-0.2,1-1.1,1.7-2.1,1.7l0,0
	C319.2,112.4,319,112.4,318.9,112.4z M556.7,109c0-0.1,0-0.3,0-0.4l0,0c0-1,0.7-1.9,1.8-2.1l0,0c1.2-0.2,2.3,0.6,2.5,1.7l0,0
	c0,0.1,0,0.2,0,0.4l0,0c0,1-0.7,1.9-1.8,2.1l0,0c-0.1,0-0.3,0-0.4,0l0,0C557.8,110.7,556.9,110,556.7,109z M305,109.4L305,109.4
	c-1-0.2-1.6-1.1-1.6-2.1l0,0c0-0.2,0-0.3,0-0.5l0,0c0.3-1.2,1.4-1.9,2.5-1.6l0,0l0,0l0,0c1,0.2,1.6,1.1,1.6,2.1l0,0
	c0,0.2,0,0.3,0,0.5l0,0c-0.2,1-1.1,1.7-2.1,1.7l0,0C305.3,109.5,305.1,109.4,305,109.4z M570.7,106.4c0-0.2,0-0.3,0-0.4l0,0
	c0-1,0.7-1.9,1.7-2.1l0,0c1.2-0.2,2.3,0.5,2.5,1.7l0,0c0,0.1,0,0.3,0,0.4l0,0c0,1-0.7,1.9-1.7,2.1l0,0c-0.1,0-0.3,0-0.4,0l0,0
	C571.8,108.1,570.9,107.4,570.7,106.4z M291.2,106.1L291.2,106.1c-1-0.2-1.6-1.1-1.6-2.1l0,0c0-0.2,0-0.3,0.1-0.5l0,0
	c0.3-1.1,1.5-1.8,2.6-1.5l0,0c1,0.2,1.6,1.1,1.6,2.1l0,0c0,0.2,0,0.4-0.1,0.5l0,0c-0.2,1-1.1,1.6-2.1,1.6l0,0
	C291.5,106.1,291.3,106.1,291.2,106.1z M584.6,103.6c0-0.2,0-0.3,0-0.4l0,0c0-1,0.7-1.9,1.7-2.1l0,0l0,0l0,0
	c1.2-0.2,2.3,0.5,2.5,1.7l0,0c0,0.1,0,0.3,0,0.4l0,0c0,1-0.7,1.9-1.7,2.1l0,0c-0.2,0-0.3,0.1-0.4,0.1l0,0
	C585.7,105.3,584.8,104.6,584.6,103.6z M277.4,102.4c-0.9-0.3-1.5-1.1-1.5-2l0,0c0-0.2,0-0.4,0.1-0.6l0,0c0.3-1.1,1.5-1.8,2.6-1.5
	l0,0c0,0,0,0,0,0l0,0c0.9,0.3,1.5,1.1,1.5,2.1l0,0c0,0.2,0,0.4-0.1,0.6l0,0c-0.3,0.9-1.1,1.6-2,1.6l0,0
	C277.8,102.5,277.6,102.4,277.4,102.4z M612.3,97.6c0-0.2-0.1-0.3-0.1-0.5l0,0c0-1,0.7-1.8,1.7-2.1l0,0c1.1-0.3,2.3,0.4,2.5,1.6l0,0
	c0,0.2,0.1,0.3,0.1,0.5l0,0c0,1-0.7,1.8-1.7,2.1l0,0c-0.2,0-0.3,0.1-0.5,0.1l0,0C613.4,99.2,612.6,98.5,612.3,97.6z M263.8,98.3
	L263.8,98.3c-0.9-0.3-1.5-1.1-1.5-2l0,0c0-0.2,0-0.4,0.1-0.6l0,0c0.3-1.1,1.5-1.8,2.7-1.4l0,0l0,0l0,0c0.9,0.3,1.5,1.1,1.5,2l0,0
	c0,0.2,0,0.4-0.1,0.6l0,0c-0.3,0.9-1.1,1.5-2,1.5l0,0C264.2,98.4,264,98.4,263.8,98.3z M626.2,94.4c0-0.2-0.1-0.3-0.1-0.5l0,0
	c0-1,0.7-1.8,1.6-2.1l0,0c1.1-0.3,2.3,0.4,2.6,1.6l0,0c0,0.2,0,0.3,0.1,0.5l0,0c0,1-0.7,1.8-1.6,2.1l0,0c-0.2,0-0.3,0.1-0.5,0.1l0,0
	C627.3,96,626.4,95.3,626.2,94.4z M250.3,94L250.3,94c-0.9-0.3-1.4-1.1-1.4-2l0,0c0-0.2,0-0.5,0.1-0.7l0,0c0.4-1.1,1.6-1.7,2.7-1.3
	l0,0l0,0l0,0c0.9,0.3,1.4,1.1,1.4,2l0,0c0,0.2,0,0.5-0.1,0.7l0,0c-0.3,0.9-1.1,1.4-2,1.4l0,0C250.7,94.1,250.5,94.1,250.3,94z
	 M640,91.1c0-0.2-0.1-0.3-0.1-0.5l0,0c0-1,0.6-1.8,1.6-2.1l0,0c1.1-0.3,2.3,0.4,2.6,1.6l0,0c0,0.2,0.1,0.3,0.1,0.5l0,0
	c0,1-0.6,1.8-1.6,2.1l0,0c-0.2,0-0.3,0.1-0.5,0.1l0,0C641.1,92.7,640.2,92,640,91.1z M653.7,87.7c0-0.2-0.1-0.4-0.1-0.5l0,0
	c0-0.9,0.7-1.8,1.6-2l0,0c1.1-0.3,2.3,0.4,2.6,1.6l0,0c0,0.2,0.1,0.4,0.1,0.5l0,0c0,0.9-0.7,1.8-1.6,2.1l0,0c-0.2,0-0.3,0.1-0.5,0.1
	l0,0C654.8,89.3,654,88.6,653.7,87.7z M667.5,84.2c0-0.2-0.1-0.4-0.1-0.5l0,0c0-0.9,0.6-1.8,1.6-2l0,0c0,0,0,0,0,0l0,0
	c1.1-0.3,2.3,0.4,2.6,1.6l0,0c0,0.2,0.1,0.4,0.1,0.5l0,0c0,0.9-0.7,1.8-1.6,2.1l0,0c-0.2,0-0.3,0.1-0.5,0.1l0,0
	C668.6,85.8,667.7,85.2,667.5,84.2z M223.5,84.4c-0.8-0.3-1.4-1.1-1.4-2l0,0c0-0.3,0-0.5,0.1-0.8l0,0c0.4-1.1,1.6-1.6,2.8-1.2l0,0
	c0.8,0.3,1.4,1.1,1.4,2l0,0c0,0.3,0,0.5-0.1,0.8l0,0c-0.3,0.8-1.1,1.4-2,1.4l0,0C224,84.5,223.8,84.5,223.5,84.4z M681.3,80.8
	c0-0.2-0.1-0.4-0.1-0.5l0,0c0-0.9,0.7-1.8,1.6-2.1l0,0c1.1-0.3,2.3,0.4,2.6,1.5l0,0c0,0.2,0.1,0.4,0.1,0.5l0,0
	c0,0.9-0.7,1.8-1.6,2.1l0,0c-0.2,0.1-0.3,0.1-0.5,0.1l0,0C682.4,82.4,681.5,81.7,681.3,80.8z M1112.6,79.3c-0.8-0.4-1.3-1.1-1.3-2
	l0,0c0-0.3,0.1-0.6,0.2-0.8l0,0c0.4-1.1,1.7-1.6,2.8-1.1l0,0l0,0l0,0c0.8,0.3,1.3,1.1,1.3,1.9l0,0c0,0.3-0.1,0.6-0.2,0.8l0,0
	c-0.4,0.8-1.1,1.3-2,1.3l0,0C1113.1,79.4,1112.9,79.4,1112.6,79.3z M210.3,79.1c-0.8-0.3-1.3-1.1-1.3-1.9l0,0c0-0.3,0.1-0.6,0.2-0.8
	l0,0c0.4-1.1,1.7-1.6,2.8-1.2l0,0c0.8,0.3,1.3,1.1,1.3,1.9l0,0c0,0.3-0.1,0.6-0.2,0.8l0,0c-0.3,0.8-1.1,1.3-2,1.3l0,0
	C210.8,79.3,210.6,79.2,210.3,79.1z M695,77.3c0-0.2-0.1-0.4-0.1-0.5l0,0c0-0.9,0.7-1.8,1.6-2.1l0,0c1.1-0.3,2.3,0.4,2.6,1.5l0,0
	c0,0.2,0.1,0.4,0.1,0.5l0,0c0,0.9-0.7,1.8-1.6,2.1l0,0c-0.2,0.1-0.3,0.1-0.5,0.1l0,0C696.1,78.9,695.3,78.3,695,77.3z M708.8,73.8
	c0-0.2-0.1-0.4-0.1-0.5l0,0c0-0.9,0.7-1.8,1.6-2.1l0,0c0,0,0,0,0,0l0,0c1.1-0.3,2.3,0.4,2.6,1.6l0,0c0,0.2,0.1,0.4,0.1,0.5l0,0
	c0,0.9-0.7,1.8-1.6,2.1l0,0c-0.2,0-0.3,0.1-0.5,0.1l0,0C709.9,75.5,709,74.8,708.8,73.8z M1099.5,74L1099.5,74
	c-0.8-0.3-1.4-1.1-1.4-2l0,0c0-0.3,0.1-0.5,0.2-0.8l0,0c0.4-1.1,1.7-1.6,2.8-1.2l0,0c0.8,0.3,1.3,1.1,1.4,2l0,0
	c0,0.3-0.1,0.5-0.1,0.8l0,0c-0.3,0.8-1.1,1.4-2,1.4l0,0C1100,74.1,1099.8,74.1,1099.5,74z M197.2,73.5c-0.8-0.3-1.3-1.1-1.3-2l0,0
	c0-0.3,0.1-0.6,0.2-0.8l0,0c0.5-1.1,1.7-1.6,2.8-1.1l0,0c0.8,0.3,1.3,1.1,1.3,2l0,0c0,0.3-0.1,0.6-0.2,0.8l0,0
	c-0.3,0.8-1.1,1.3-1.9,1.3l0,0C197.8,73.7,197.5,73.7,197.2,73.5z M722.6,70.4c0-0.2-0.1-0.4-0.1-0.5l0,0c0-0.9,0.7-1.8,1.6-2l0,0
	c1.1-0.3,2.3,0.4,2.6,1.6l0,0c0,0.2,0.1,0.4,0.1,0.5l0,0c0,0.9-0.7,1.8-1.6,2l0,0c-0.2,0.1-0.3,0.1-0.5,0.1l0,0
	C723.7,72,722.8,71.4,722.6,70.4z M1086.3,69c-0.9-0.3-1.4-1.1-1.4-2l0,0c0-0.2,0-0.5,0.1-0.7l0,0c0.4-1.1,1.6-1.7,2.7-1.3l0,0
	c0.9,0.3,1.4,1.1,1.4,2l0,0c0,0.2,0,0.5-0.1,0.7l0,0c-0.3,0.9-1.1,1.4-2,1.4l0,0C1086.8,69.2,1086.5,69.1,1086.3,69z M184.2,67.7
	L184.2,67.7c-0.8-0.4-1.2-1.1-1.2-1.9l0,0c0-0.3,0.1-0.6,0.2-0.9l0,0c0.5-1.1,1.8-1.5,2.8-1l0,0l0,0l0,0c0.8,0.4,1.2,1.1,1.2,1.9
	l0,0c0,0.3-0.1,0.6-0.2,0.9l0,0c-0.4,0.8-1.1,1.2-1.9,1.2l0,0C184.8,67.9,184.5,67.9,184.2,67.7z M750.1,63.8c0-0.2-0.1-0.3-0.1-0.5
	l0,0c0-1,0.7-1.8,1.7-2.1l0,0c1.1-0.3,2.3,0.4,2.5,1.6l0,0c0,0.2,0.1,0.3,0.1,0.5l0,0c0,1-0.7,1.8-1.7,2.1l0,0
	c-0.2,0-0.3,0.1-0.5,0.1l0,0C751.2,65.4,750.4,64.8,750.1,63.8z M1072.9,64.5c-0.9-0.3-1.5-1.1-1.5-2l0,0c0-0.2,0-0.5,0.1-0.7l0,0
	c0.4-1.1,1.6-1.7,2.7-1.4l0,0c0.9,0.3,1.5,1.1,1.5,2l0,0c0,0.2,0,0.4-0.1,0.6l0,0c-0.3,0.9-1.1,1.5-2,1.5l0,0
	C1073.4,64.6,1073.1,64.6,1072.9,64.5z M764,60.6c0-0.2,0-0.3,0-0.5l0,0c0-1,0.7-1.8,1.7-2.1l0,0c1.2-0.3,2.3,0.5,2.5,1.6l0,0
	c0,0.2,0.1,0.3,0.1,0.5l0,0c0,1-0.7,1.8-1.7,2.1l0,0c-0.2,0-0.3,0.1-0.5,0.1l0,0C765.1,62.3,764.2,61.6,764,60.6z M171.4,61.6
	c-0.8-0.4-1.2-1.1-1.2-1.9l0,0c0-0.3,0.1-0.6,0.2-0.9l0,0c0.5-1.1,1.8-1.5,2.8-1l0,0c0.8,0.4,1.2,1.1,1.2,1.9l0,0
	c0,0.3-0.1,0.6-0.2,0.9l0,0c-0.4,0.8-1.1,1.2-1.9,1.2l0,0C172,61.9,171.7,61.8,171.4,61.6z M1059.4,60.3c-0.9-0.3-1.5-1.1-1.5-2.1
	l0,0c0-0.2,0-0.4,0.1-0.6l0,0c0.3-1.1,1.5-1.8,2.6-1.4l0,0l0,0l0,0c0.9,0.3,1.5,1.1,1.5,2l0,0c0,0.2,0,0.4-0.1,0.6l0,0
	c-0.3,0.9-1.1,1.5-2,1.5l0,0C1059.8,60.4,1059.6,60.4,1059.4,60.3z M777.8,57.6c0-0.2,0-0.3,0-0.4l0,0c0-1,0.7-1.9,1.7-2.1l0,0l0,0
	l0,0c1.2-0.2,2.3,0.5,2.5,1.6l0,0c0,0.2,0,0.3,0,0.4l0,0c0,1-0.7,1.9-1.7,2.1l0,0c-0.2,0-0.3,0-0.5,0l0,0
	C778.9,59.2,778,58.6,777.8,57.6z M1045.8,56.6c-1-0.2-1.6-1.1-1.6-2.1l0,0c0-0.2,0-0.3,0.1-0.5l0,0c0.3-1.1,1.5-1.8,2.6-1.5l0,0
	c1,0.2,1.6,1.1,1.6,2.1l0,0c0,0.2,0,0.3-0.1,0.5l0,0c-0.2,1-1.1,1.6-2.1,1.6l0,0C1046.2,56.6,1046,56.6,1045.8,56.6z M791.7,54.7
	c0-0.1,0-0.3,0-0.4l0,0c0-1,0.7-1.9,1.7-2.1l0,0c1.2-0.2,2.3,0.5,2.5,1.7l0,0c0,0.2,0,0.3,0,0.4l0,0c0,1-0.7,1.9-1.7,2.1l0,0
	c-0.1,0-0.3,0-0.4,0l0,0C792.8,56.4,791.9,55.7,791.7,54.7z M158.7,55.3L158.7,55.3c-0.7-0.4-1.2-1.1-1.2-1.9l0,0
	c0-0.3,0.1-0.7,0.2-1l0,0c0.5-1,1.8-1.5,2.9-0.9l0,0l0,0l0,0c0.7,0.4,1.2,1.1,1.2,1.9l0,0c0,0.3-0.1,0.7-0.2,1l0,0
	c-0.4,0.7-1.1,1.2-1.9,1.2l0,0C159.3,55.5,159,55.5,158.7,55.3z M805.6,52c0-0.1,0-0.2,0-0.4l0,0c0-1,0.7-1.9,1.7-2.1l0,0l0,0l0,0
	c1.2-0.2,2.3,0.5,2.5,1.7l0,0c0,0.1,0,0.3,0,0.4l0,0c0,1-0.7,1.9-1.7,2.1l0,0c-0.1,0-0.3,0-0.4,0l0,0C806.7,53.7,805.8,53,805.6,52z
	 M1032.1,53.2L1032.1,53.2c-1-0.2-1.6-1.1-1.7-2.1l0,0c0-0.2,0-0.3,0.1-0.5l0,0c0.3-1.1,1.4-1.9,2.5-1.6l0,0l0,0l0,0
	c1,0.2,1.6,1.1,1.7,2.1l0,0c0,0.1,0,0.3-0.1,0.5l0,0c-0.2,1-1.1,1.7-2.1,1.7l0,0C1032.5,53.3,1032.3,53.3,1032.1,53.2z M819.6,49.5
	c0-0.1,0-0.2,0-0.4l0,0c0-1,0.7-1.9,1.8-2.1l0,0l0,0l0,0c1.2-0.2,2.3,0.6,2.5,1.7l0,0c0,0.1,0,0.3,0,0.4l0,0c0,1-0.7,1.9-1.8,2.1
	l0,0c-0.1,0-0.2,0-0.4,0l0,0C820.6,51.2,819.7,50.5,819.6,49.5z M1018.3,50.3c-1-0.2-1.7-1.1-1.7-2.1l0,0c0-0.1,0-0.3,0-0.4l0,0
	c0.2-1.2,1.3-1.9,2.5-1.7l0,0c1,0.2,1.7,1.1,1.7,2.1l0,0c0,0.1,0,0.3,0,0.4l0,0c-0.2,1-1.1,1.7-2.1,1.7l0,0
	C1018.6,50.3,1018.5,50.3,1018.3,50.3z M146.1,48.7c-0.7-0.4-1.1-1.1-1.1-1.9l0,0c0-0.3,0.1-0.7,0.2-1l0,0c0.6-1,1.8-1.4,2.9-0.9
	l0,0c0.7,0.4,1.1,1.1,1.1,1.9l0,0c0,0.3-0.1,0.7-0.2,1l0,0c-0.4,0.7-1.1,1.1-1.9,1.1l0,0C146.7,49,146.4,48.9,146.1,48.7z
	 M833.5,47.2c0-0.1,0-0.2,0-0.3l0,0c0-1,0.8-1.9,1.8-2.1l0,0c1.2-0.2,2.2,0.6,2.4,1.8l0,0c0,0.1,0,0.2,0,0.3l0,0
	c0,1-0.8,1.9-1.8,2.1l0,0c-0.1,0-0.2,0-0.3,0l0,0C834.6,49,833.7,48.2,833.5,47.2z M1004.5,47.8c-1.1-0.2-1.8-1.1-1.8-2.1l0,0
	c0-0.1,0-0.2,0-0.3l0,0c0.2-1.2,1.3-2,2.4-1.8l0,0c0,0,0,0,0,0l0,0c1,0.2,1.8,1.1,1.8,2.1l0,0c0,0.1,0,0.2,0,0.3l0,0
	c-0.2,1-1.1,1.8-2.1,1.8l0,0C1004.7,47.8,1004.6,47.8,1004.5,47.8z M847.6,45.2c0-0.1,0-0.2,0-0.3l0,0c0-1,0.8-2,1.8-2.1l0,0l0,0
	l0,0c1.2-0.2,2.2,0.7,2.4,1.8l0,0c0,0.1,0,0.2,0,0.3l0,0c0,1-0.8,2-1.9,2.1l0,0c-0.1,0-0.2,0-0.3,0l0,0
	C848.6,47,847.7,46.2,847.6,45.2z M990.5,45.7L990.5,45.7c-1.1-0.1-1.9-1.1-1.9-2.1l0,0c0-0.1,0-0.2,0-0.3l0,0
	c0.2-1.2,1.2-2,2.4-1.8l0,0l0,0l0,0c1.1,0.1,1.9,1.1,1.9,2.1l0,0c0,0.1,0,0.2,0,0.3l0,0c-0.1,1.1-1.1,1.8-2.1,1.8l0,0
	C990.7,45.8,990.6,45.7,990.5,45.7z M861.6,43.4c0-0.1,0-0.1,0-0.2l0,0c0-1.1,0.8-2,1.9-2.1l0,0c1.2-0.1,2.2,0.7,2.4,1.9l0,0
	c0,0.1,0,0.2,0,0.2l0,0c0,1.1-0.8,2-1.9,2.1l0,0c-0.1,0-0.2,0-0.2,0l0,0C862.6,45.3,861.7,44.5,861.6,43.4z M976.5,44.1L976.5,44.1
	c-1.1-0.1-1.9-1-1.9-2.1l0,0c0-0.1,0-0.2,0-0.2l0,0c0.1-1.2,1.2-2,2.3-1.9l0,0c1.1,0.1,1.9,1,1.9,2.1l0,0c0,0.1,0,0.1,0,0.2l0,0
	c-0.1,1.1-1,1.9-2.1,1.9l0,0C976.6,44.1,976.6,44.1,976.5,44.1z M875.7,41.9c0-0.1,0-0.1,0-0.2l0,0c0-1.1,0.8-2,1.9-2.2l0,0l0,0l0,0
	c1.2-0.1,2.2,0.8,2.3,1.9l0,0c0,0.1,0,0.1,0,0.2l0,0c0,1.1-0.8,2-1.9,2.1l0,0c-0.1,0-0.1,0-0.2,0l0,0
	C876.7,43.9,875.8,43,875.7,41.9z M962.5,42.9L962.5,42.9c-1.1-0.1-2-1-2-2.1l0,0c0-0.1,0-0.1,0-0.2l0,0c0.1-1.2,1.1-2,2.3-2l0,0
	c1.1,0.1,2,1,2,2.1l0,0c0,0.1,0,0.1,0,0.2l0,0c-0.1,1.1-1,2-2.1,2l0,0C962.6,42.9,962.5,42.9,962.5,42.9z M133.6,41.9
	c-0.7-0.4-1.1-1.1-1.1-1.9l0,0c0-0.4,0.1-0.7,0.3-1l0,0c0.6-1,1.9-1.4,2.9-0.8l0,0c0.7,0.4,1.1,1.1,1.1,1.9l0,0c0,0.3-0.1,0.7-0.3,1
	l0,0c-0.4,0.7-1.1,1.1-1.9,1.1l0,0C134.3,42.2,133.9,42.1,133.6,41.9z M946.3,40c0,0,0-0.1,0-0.1l0,0c0-1.2,1-2.1,2.2-2l0,0
	c1.1,0,2,1,2,2.1l0,0c0,0,0,0.1,0,0.1l0,0c0,1.2-1,2.1-2.2,2l0,0C947.2,42,946.4,41.1,946.3,40z M903.9,40c0,0,0-0.1,0-0.1l0,0
	c0-1.1,0.9-2,2-2.1l0,0c1.2,0,2.2,0.9,2.2,2l0,0c0,0,0,0.1,0,0.1l0,0c0,1.1-0.9,2.1-2,2.1l0,0c0,0-0.1,0-0.1,0l0,0
	C904.9,42.1,903.9,41.2,903.9,40z M934.3,41.7c-1.1,0-2.1-1-2.1-2.1l0,0c0,0,0,0,0-0.1l0,0c0-1.2,1-2.1,2.2-2.1l0,0
	c1.2,0,2.1,1,2.1,2.1l0,0c0,0,0,0,0,0.1l0,0C936.4,40.7,935.5,41.7,934.3,41.7L934.3,41.7C934.3,41.7,934.3,41.7,934.3,41.7z
	 M918,39.6C918,39.6,918,39.5,918,39.6L918,39.6c0-1.2,0.9-2.1,2.1-2.2l0,0c1.2,0,2.1,0.9,2.2,2.1l0,0c0,0,0,0,0,0.1l0,0
	c0,1.1-0.9,2.1-2.1,2.1l0,0c0,0,0,0,0,0l0,0C919,41.7,918,40.7,918,39.6z M121.3,34.9L121.3,34.9c-0.7-0.4-1.1-1.1-1.1-1.8l0,0
	c0-0.4,0.1-0.7,0.3-1l0,0c0.6-1,1.9-1.4,2.9-0.8l0,0l0,0l0,0c0.7,0.4,1.1,1.1,1.1,1.9l0,0c0,0.4-0.1,0.7-0.3,1.1l0,0
	c-0.4,0.7-1.1,1.1-1.8,1.1l0,0C122,35.2,121.6,35.1,121.3,34.9z M109,27.7L109,27.7c-0.7-0.4-1-1.1-1-1.8l0,0c0-0.4,0.1-0.8,0.3-1.1
	l0,0c0.6-1,1.9-1.3,2.9-0.7l0,0c0.7,0.4,1,1.1,1,1.8l0,0c0,0.4-0.1,0.8-0.3,1.1l0,0c-0.4,0.7-1.1,1-1.8,1l0,0
	C109.7,28,109.4,27.9,109,27.7z M96.9,20.3c-0.7-0.4-1-1.1-1-1.8l0,0c0-0.4,0.1-0.8,0.3-1.1l0,0c0.6-1,1.9-1.3,2.9-0.7l0,0
	c0.7,0.4,1,1.1,1,1.8l0,0c0,0.4-0.1,0.8-0.3,1.1l0,0c-0.4,0.6-1.1,1-1.8,1l0,0C97.6,20.6,97.3,20.5,96.9,20.3z M84.9,12.7
	c-0.6-0.4-1-1.1-1-1.8l0,0c0-0.4,0.1-0.8,0.3-1.1l0,0c0.6-1,1.9-1.3,2.9-0.6l0,0l0,0l0,0c0.6,0.4,1,1.1,1,1.8l0,0
	c0,0.4-0.1,0.8-0.3,1.1l0,0c-0.4,0.6-1.1,1-1.8,1l0,0C85.7,13,85.3,12.9,84.9,12.7z M73,4.9c-0.6-0.4-0.9-1.1-0.9-1.8l0,0
	c0-0.4,0.1-0.8,0.4-1.2l0,0c0.7-1,2-1.2,2.9-0.6l0,0c0.6,0.4,0.9,1.1,0.9,1.8l0,0c0,0.4-0.1,0.8-0.3,1.2l0,0
	c-0.4,0.6-1.1,0.9-1.8,0.9l0,0C73.8,5.2,73.4,5.1,73,4.9z M61.3-3.1c-0.6-0.4-0.9-1.1-0.9-1.8l0,0c0-0.4,0.1-0.8,0.4-1.2l0,0
	c0.7-1,2-1.2,3-0.6l0,0l0,0l0,0c0.6,0.4,0.9,1.1,0.9,1.8l0,0c0,0.4-0.1,0.8-0.4,1.2l0,0c-0.4,0.6-1.1,0.9-1.8,0.9l0,0
	C62.1-2.7,61.7-2.8,61.3-3.1z M49.6-11.2c-1-0.7-1.2-2-0.5-3l0,0c0.7-1,2-1.2,3-0.5l0,0l0,0l0,0c1,0.7,1.2,2,0.5,3l0,0
	c-0.4,0.6-1.1,0.9-1.7,0.9l0,0C50.4-10.8,50-11,49.6-11.2z"/>
<path class="st6" d="M472.3,119.8c0-0.1,0-0.1,0-0.2l0,0c0-1.1,0.9-2,2-2.1l0,0c1.2-0.1,2.2,0.8,2.3,2l0,0c0,0.1,0,0.1,0,0.2l0,0
	c0,1.1-0.9,2-2,2.1l0,0c-0.1,0-0.1,0-0.2,0l0,0C473.3,121.8,472.4,120.9,472.3,119.8z"/>
<path class="st6" d="M598.5,100.6c0-0.2-0.1-0.3,0-0.5l0,0c0-1,0.7-1.8,1.7-2.1l0,0c0,0,0,0,0,0l0,0c1.2-0.2,2.3,0.5,2.5,1.6l0,0
	c0,0.2,0,0.3,0,0.5l0,0c0,1-0.7,1.8-1.7,2.1l0,0c-0.2,0-0.3,0.1-0.5,0.1l0,0C599.6,102.3,598.7,101.6,598.5,100.6z"/>
<path class="st6" d="M236.8,89.3c-0.9-0.3-1.4-1.1-1.4-2l0,0c0-0.2,0-0.5,0.1-0.7l0,0c0.4-1.1,1.6-1.7,2.7-1.3l0,0
	c0.9,0.3,1.4,1.1,1.4,2l0,0c0,0.2,0,0.5-0.1,0.7l0,0c-0.3,0.9-1.1,1.4-2,1.4l0,0C237.3,89.5,237.1,89.4,236.8,89.3z"/>
<path class="st6" d="M736.3,67.1c0-0.2-0.1-0.3-0.1-0.5l0,0c0-1,0.7-1.8,1.6-2.1l0,0c1.1-0.3,2.3,0.4,2.6,1.6l0,0
	c0,0.2,0.1,0.3,0.1,0.5l0,0c0,1-0.7,1.9-1.6,2.1l0,0c-0.2,0-0.3,0.1-0.5,0.1l0,0C737.4,68.7,736.6,68,736.3,67.1z"/>
<path class="st6" d="M889.8,40.8c0-0.1,0-0.1,0-0.2l0,0c0-1.1,0.9-2,2-2.1l0,0c1.2-0.1,2.2,0.8,2.3,2l0,0c0,0,0,0.1,0,0.1l0,0
	c0,1.1-0.9,2.1-2,2.1l0,0c0,0-0.1,0-0.1,0l0,0C890.8,42.8,889.8,41.9,889.8,40.8z"/>
<rect x="199.5" y="-6.5" class="st7" width="905.2" height="172.2"/>
<line class="st4" x1="409.5" y1="302.5" x2="550.4" y2="302.5"/>
<line class="st4" x1="1109.4" y1="302.5" x2="1250.3" y2="302.5"/>
<path class="st5" d="M1234.8,302.5c0-1.2,1-2.1,2.1-2.1l0,0c1.2,0,2.1,0.9,2.1,2.1l0,0c0,1.2-0.9,2.1-2.1,2.1l0,0
	C1235.8,304.7,1234.8,303.7,1234.8,302.5z M1220.6,302.5c0-1.2,0.9-2.1,2.1-2.1l0,0c1.2,0,2.1,0.9,2.1,2.1l0,0c0,1.2-1,2.1-2.1,2.1
	l0,0C1221.6,304.7,1220.6,303.7,1220.6,302.5z M1192.3,302.5c0-1.2,1-2.1,2.1-2.1l0,0c1.2,0,2.1,0.9,2.1,2.1l0,0
	c0,1.2-0.9,2.1-2.1,2.1l0,0C1193.2,304.7,1192.3,303.7,1192.3,302.5z M1178.1,302.5c0-1.2,0.9-2.1,2.1-2.1l0,0
	c1.2,0,2.1,0.9,2.1,2.1l0,0c0,1.2-0.9,2.1-2.1,2.1l0,0C1179.1,304.7,1178.1,303.7,1178.1,302.5z M1163.9,302.5
	c0-1.2,0.9-2.1,2.1-2.1l0,0c1.2,0,2.1,0.9,2.1,2.1l0,0c0,1.2-0.9,2.1-2.1,2.1l0,0C1164.9,304.7,1163.9,303.7,1163.9,302.5z
	 M1149.8,302.5c0-1.2,1-2.1,2.1-2.1l0,0c1.2,0,2.1,0.9,2.1,2.1l0,0c0,1.2-1,2.1-2.1,2.1l0,0C1150.7,304.7,1149.8,303.7,1149.8,302.5
	z M1121.4,302.5c0-1.2,0.9-2.1,2.1-2.1l0,0c1.2,0,2.1,0.9,2.1,2.1l0,0c0,1.2-0.9,2.1-2.1,2.1l0,0
	C1122.4,304.7,1121.4,303.7,1121.4,302.5z M1107.3,302.5c0-1.2,0.9-2.1,2.1-2.1l0,0c1.2,0,2.1,0.9,2.1,2.1l0,0
	c0,1.2-0.9,2.1-2.1,2.1l0,0C1108.2,304.7,1107.3,303.7,1107.3,302.5z"/>
<path class="st5" d="M534.9,302.5c0-1.2,1-2.1,2.1-2.1l0,0c1.2,0,2.1,0.9,2.1,2.1l0,0c0,1.2-1,2.1-2.1,2.1l0,0
	C535.9,304.7,534.9,303.7,534.9,302.5z M520.7,302.5c0-1.2,1-2.1,2.1-2.1l0,0c1.2,0,2.1,0.9,2.1,2.1l0,0c0,1.2-1,2.1-2.1,2.1l0,0
	C521.7,304.7,520.7,303.7,520.7,302.5z M506.6,302.5c0-1.2,1-2.1,2.1-2.1l0,0c1.2,0,2.1,0.9,2.1,2.1l0,0c0,1.2-1,2.1-2.1,2.1l0,0
	C507.5,304.7,506.6,303.7,506.6,302.5z M478.2,302.5c0-1.2,1-2.1,2.1-2.1l0,0c1.2,0,2.1,0.9,2.1,2.1l0,0c0,1.2-1,2.1-2.1,2.1l0,0
	C479.2,304.7,478.2,303.7,478.2,302.5z M464,302.5c0-1.2,1-2.1,2.1-2.1l0,0c1.2,0,2.1,0.9,2.1,2.1l0,0c0,1.2-1,2.1-2.1,2.1l0,0
	C465,304.7,464,303.7,464,302.5z M449.9,302.5c0-1.2,1-2.1,2.1-2.1l0,0c1.2,0,2.1,0.9,2.1,2.1l0,0c0,1.2-1,2.1-2.1,2.1l0,0
	C450.8,304.7,449.9,303.7,449.9,302.5z M435.7,302.5c0-1.2,1-2.1,2.1-2.1l0,0c1.2,0,2.1,0.9,2.1,2.1l0,0c0,1.2-1,2.1-2.1,2.1l0,0
	C436.6,304.7,435.7,303.7,435.7,302.5z M421.5,302.5c0-1.2,1-2.1,2.1-2.1l0,0c1.2,0,2.1,0.9,2.1,2.1l0,0c0,1.2-1,2.1-2.1,2.1l0,0
	C422.5,304.7,421.5,303.7,421.5,302.5z"/>
<path class="st8" d="M492.4,302.5c0-1.2,1-2.1,2.1-2.1l0,0c1.2,0,2.1,0.9,2.1,2.1l0,0c0,1.2-1,2.1-2.1,2.1l0,0
	C493.3,304.7,492.4,303.7,492.4,302.5z"/>
<path class="st8" d="M407.3,302.5c0-1.2,1-2.1,2.1-2.1l0,0c1.2,0,2.1,0.9,2.1,2.1l0,0c0,1.2-1,2.1-2.1,2.1l0,0
	C408.3,304.7,407.3,303.7,407.3,302.5z"/>
<circle class="st9" cx="1295.8" cy="291.1" r="18.8"/>
<path class="st8" d="M1206.5,302.5c0-1.2,0.9-2.1,2.1-2.1l0,0c1.2,0,2.1,0.9,2.1,2.1l0,0c0,1.2-0.9,2.1-2.1,2.1l0,0
	C1207.4,304.7,1206.5,303.7,1206.5,302.5z"/>
<path class="st8" d="M1135.6,302.5c0-1.2,0.9-2.1,2.1-2.1l0,0c1.2,0,2.1,0.9,2.1,2.1l0,0c0,1.2-0.9,2.1-2.1,2.1l0,0
	C1136.5,304.7,1135.6,303.7,1135.6,302.5z"/>
<g>
	<rect x="1187.9" y="44.5" class="st10" width="168.4" height="103.3"/>
	<g>
		<path class="st11" d="M1205.2,81.7h4.8c4.3,0,7.1,3,7.1,7.3v0.2c0,4.4-2.8,7.4-7.1,7.4h-4.8V81.7z M1208.2,84.5v9.3h1.7
			c2.3,0,3.9-1.6,3.9-4.6v-0.1c0-3-1.6-4.6-3.9-4.6L1208.2,84.5L1208.2,84.5z"/>
		<polygon class="st11" points="1218.7,81.7 1228.3,81.7 1228.3,84.5 1221.8,84.5 1221.8,87.7 1227.5,87.7 1227.5,90.5 1221.8,90.5 
			1221.8,93.8 1228.4,93.8 1228.4,96.6 1218.7,96.6 		"/>
		<polygon class="st11" points="1228.9,81.7 1232.2,81.7 1235.4,92 1238.5,81.7 1241.8,81.7 1236.8,96.7 1233.9,96.7 		"/>
		<polygon class="st11" points="1242.9,81.7 1252.5,81.7 1252.5,84.5 1245.9,84.5 1245.9,87.7 1251.7,87.7 1251.7,90.5 1245.9,90.5 
			1245.9,93.8 1252.5,93.8 1252.5,96.6 1242.9,96.6 		"/>
		<polygon class="st11" points="1254.2,81.7 1257.3,81.7 1257.3,93.8 1263.3,93.8 1263.3,96.6 1254.2,96.6 		"/>
		<path class="st11" d="M1263.3,89.3v-0.3c0-4.5,2.8-7.6,6.7-7.6c4,0,6.7,3.1,6.7,7.6v0.3c0,4.4-2.8,7.6-6.7,7.6
			C1266,96.9,1263.3,93.8,1263.3,89.3 M1273.5,89.2v-0.1c0-2.9-1.5-4.8-3.6-4.8c-2.1,0-3.6,1.8-3.6,4.8v0.1c0,2.9,1.5,4.8,3.6,4.8
			C1272.1,94,1273.5,92.2,1273.5,89.2"/>
		<path class="st11" d="M1278.4,81.7h5c3.3,0,5.4,1.9,5.4,5.1v0c0,3.4-2.4,5.1-5.6,5.2h-1.7v4.5h-3.1L1278.4,81.7L1278.4,81.7z
			 M1283.2,89.3c1.6,0,2.5-1,2.5-2.4v0c0-1.6-0.9-2.4-2.5-2.4h-1.7v4.8H1283.2z"/>
		<polygon class="st11" points="1290,81.7 1293.3,81.7 1296.6,87.8 1299.9,81.7 1303.1,81.7 1303.1,96.6 1300.1,96.6 1300.1,87.1 
			1296.6,93.2 1296.5,93.2 1293,87.1 1293,96.6 1290,96.6 		"/>
		<polygon class="st11" points="1305.3,81.7 1314.9,81.7 1314.9,84.5 1308.4,84.5 1308.4,87.7 1314.1,87.7 1314.1,90.5 1308.4,90.5 
			1308.4,93.8 1315,93.8 1315,96.6 1305.3,96.6 		"/>
		<polygon class="st11" points="1316.6,81.7 1319.5,81.7 1325.2,90.4 1325.2,81.7 1328.2,81.7 1328.2,96.6 1325.5,96.6 1319.6,87.6 
			1319.6,96.6 1316.6,96.6 		"/>
		<polygon class="st11" points="1333.2,84.6 1329.5,84.6 1329.5,81.7 1340,81.7 1340,84.6 1336.3,84.6 1336.3,96.6 1333.2,96.6 		
			"/>
		<path class="st11" d="M1204.1,74.7l2-2.5c1.1,1,2.4,1.8,4.1,1.8c1.3,0,2.1-0.7,2.1-1.6v0c0-0.8-0.5-1.3-2.8-2.2
			c-2.9-1.1-4.7-2.2-4.7-5v0c0-2.8,2.2-4.8,5.3-4.8c1.9,0,3.8,0.7,5.3,2l-1.9,2.6c-1-0.8-2.2-1.5-3.5-1.5c-1.2,0-1.9,0.6-1.9,1.4v0
			c0,0.9,0.6,1.4,3.1,2.4c2.8,1.1,4.4,2.3,4.4,4.9v0c0,3-2.3,4.9-5.5,4.9C1208,77.1,1205.9,76.4,1204.1,74.7"/>
		<path class="st11" d="M1217,70.5v-10h3.4v10c0,2.3,1.1,3.5,2.8,3.5c1.7,0,2.8-1.1,2.8-3.4V60.6h3.4v9.9c0,4.5-2.5,6.7-6.3,6.7
			C1219.4,77.1,1217,74.9,1217,70.5"/>
		<path class="st11" d="M1230.5,74.7l2-2.5c1.1,1,2.4,1.8,4.1,1.8c1.3,0,2.1-0.7,2.1-1.6v0c0-0.8-0.5-1.3-2.8-2.2
			c-2.9-1.1-4.7-2.2-4.7-5v0c0-2.8,2.2-4.8,5.3-4.8c1.9,0,3.8,0.7,5.3,2l-1.9,2.6c-1-0.8-2.2-1.5-3.5-1.5c-1.2,0-1.9,0.6-1.9,1.4v0
			c0,0.9,0.6,1.4,3.1,2.4c2.8,1.1,4.4,2.3,4.4,4.9v0c0,3-2.3,4.9-5.5,4.9C1234.4,77.1,1232.3,76.4,1230.5,74.7"/>
		<polygon class="st11" points="1246.4,63.7 1242.3,63.7 1242.3,60.6 1253.9,60.6 1253.9,63.7 1249.8,63.7 1249.8,76.9 1246.4,76.9 
					"/>
		<path class="st11" d="M1258.2,60.5h3.2l5.9,16.4h-3.5l-1.2-3.5h-5.6l-1.2,3.5h-3.4L1258.2,60.5z M1261.6,70.4l-1.8-5.3l-1.8,5.3
			H1261.6z"/>
		<rect x="1268.6" y="60.6" class="st11" width="3.4" height="16.3"/>
		<polygon class="st11" points="1274.5,60.6 1277.6,60.6 1283.8,70.1 1283.8,60.6 1287.2,60.6 1287.2,76.9 1284.3,76.9 1277.8,67 
			1277.8,76.9 1274.5,76.9 		"/>
		<path class="st11" d="M1294.2,60.5h3.2l5.9,16.4h-3.5l-1.2-3.5h-5.6l-1.2,3.5h-3.4L1294.2,60.5z M1297.5,70.4l-1.8-5.3l-1.8,5.3
			H1297.5z"/>
		<path class="st11" d="M1304.4,60.6h6.1c1.8,0,3.3,0.5,4.3,1.4c0.7,0.7,1.1,1.6,1.1,2.8v0.1c0,1.9-1.1,2.9-2.2,3.6
			c1.7,0.7,2.9,1.7,2.9,3.9v0.1c0,2.9-2.4,4.5-5.9,4.5h-6.2L1304.4,60.6L1304.4,60.6z M1312.5,65.4c0-1.2-0.8-1.8-2.3-1.8h-2.5v3.7
			h2.4C1311.6,67.2,1312.5,66.6,1312.5,65.4L1312.5,65.4L1312.5,65.4z M1310.7,70.1h-3v3.8h3c1.5,0,2.5-0.7,2.5-1.9v0
			C1313.2,70.8,1312.4,70.1,1310.7,70.1"/>
		<polygon class="st11" points="1318.1,60.6 1321.5,60.6 1321.5,73.8 1328.1,73.8 1328.1,76.9 1318.1,76.9 		"/>
		<polygon class="st11" points="1329.5,60.6 1340.1,60.6 1340.1,63.6 1332.9,63.6 1332.9,67.1 1339.2,67.1 1339.2,70.2 1332.9,70.2 
			1332.9,73.8 1340.2,73.8 1340.2,76.9 1329.5,76.9 		"/>
		<path class="st12" d="M1221.4,114.5h14.4c-0.2,11.6-6.7,17.4-15.2,17.4c-9.3,0-15.2-7.8-15.2-16.2c0-8.4,5.9-16.2,15.2-16.2
			c10.3,0,13.1,6.4,14.3,9.7l-6.5,0.4c-1.1-2.7-3.4-4.6-7.7-4.6c-4.9,0-8.7,4-8.7,10.6c0,5.6,3.5,10.6,9.1,10.6c5,0,7.4-3.6,7.9-6.5
			h-7.5L1221.4,114.5L1221.4,114.5z"/>
		<polygon class="st12" points="1297.4,100.2 1303.6,100.2 1303.6,125.5 1315.6,125.5 1315.6,131.3 1297.4,131.3 		"/>
		<path class="st12" d="M1333.1,108.4c0-2.2-2.1-3.5-4.6-3.5c-3.1,0-5,1.4-5,3.4c0,2.2,2.1,3.2,3.6,3.7l5.7,1.8
			c4.1,1.3,7.1,3.7,7.1,8.5c0,3.8-2.7,9.5-11.4,9.5c-10.8,0-11.8-7-11.8-9.8l6.2-0.1c0,3.3,2.6,4.6,5.6,4.6c2.1,0,5.1-1,5.1-3.4
			c0-1.7-0.7-2.5-3.8-3.6l-6.8-2.4c-3.4-1.2-5.8-4.3-5.8-7.8c0-4,2.7-9.7,10.8-9.7c9.6,0,11.1,6.4,11.1,8.7L1333.1,108.4z"/>
		<path class="st13" d="M1245.8,111.9c0.4-0.7,0.8-1.2,1.4-1.8l-4.5-5c-1.1,1.1-2.1,2.3-2.9,3.7L1245.8,111.9z"/>
		<path class="st14" d="M1256.8,108.4c0.7,0.3,1.3,0.7,1.9,1.2l4.5-4.9c-1.2-1-2.5-1.9-4-2.5L1256.8,108.4z"/>
		<path class="st15" d="M1267.2,109.9l-6,3c0.3,0.7,0.5,1.4,0.6,2.1l6.7-0.6C1268.3,112.8,1267.9,111.3,1267.2,109.9"/>
		<path class="st16" d="M1260.8,112l6-3c-0.7-1.4-1.7-2.6-2.8-3.7l-4.5,4.9C1260,110.7,1260.4,111.3,1260.8,112"/>
		<path class="st17" d="M1244.6,116.3c0-0.1,0-0.3,0-0.4l-6.7-0.6c0,0.3,0,0.7,0,1c0,1.3,0.2,2.5,0.5,3.7l6.5-1.9
			C1244.6,117.5,1244.6,116.9,1244.6,116.3"/>
		<path class="st18" d="M1259.9,121.7c-0.5,0.6-1,1.1-1.6,1.5l3.5,5.7c1.3-0.9,2.5-2,3.5-3.2L1259.9,121.7z"/>
		<path class="st19" d="M1261.9,116.3c0,0.6-0.1,1.3-0.2,1.8l6.5,1.9c0.3-1.2,0.5-2.4,0.5-3.7c0-0.3,0-0.6,0-0.9l-6.7,0.6
			C1261.9,116,1261.9,116.2,1261.9,116.3"/>
		<path class="st20" d="M1246.6,121.9l-5.3,4.1c1,1.2,2.2,2.3,3.5,3.2l3.5-5.7C1247.7,123,1247.1,122.5,1246.6,121.9"/>
		<path class="st21" d="M1244.7,114.9c0.1-0.8,0.3-1.5,0.6-2.2l-6-3c-0.7,1.4-1.1,2.9-1.3,4.5L1244.7,114.9z"/>
		<path class="st22" d="M1261,129.5l-3.5-5.7c-0.6,0.4-1.3,0.6-2.1,0.8l1.2,6.6C1258.2,130.9,1259.7,130.3,1261,129.5"/>
		<path class="st23" d="M1261.4,119c-0.2,0.7-0.5,1.3-0.9,1.9l5.4,4c0.9-1.3,1.6-2.6,2-4.1L1261.4,119z"/>
		<path class="st24" d="M1254.5,124.8c-0.4,0.1-0.8,0.1-1.3,0.1c-0.3,0-0.7,0-1-0.1l-1.2,6.6c0.7,0.1,1.5,0.2,2.3,0.2
			c0.8,0,1.7-0.1,2.5-0.2L1254.5,124.8z"/>
		<path class="st25" d="M1253.8,107.6c0.7,0,1.5,0.2,2.1,0.4l2.4-6.3c-1.4-0.5-3-0.8-4.6-0.9V107.6z"/>
		<path class="st26" d="M1251.3,124.7c-0.8-0.2-1.5-0.4-2.1-0.8l-3.5,5.7c1.4,0.8,2.8,1.4,4.4,1.7L1251.3,124.7z"/>
		<path class="st8" d="M1250.6,108c0.7-0.2,1.4-0.4,2.2-0.4v-6.7c-1.6,0-3.2,0.3-4.6,0.8L1250.6,108z"/>
		<path class="st27" d="M1246,121.1c-0.4-0.6-0.8-1.3-1-2.1l-6.5,1.9c0.5,1.5,1.2,3,2.1,4.3L1246,121.1z"/>
		<path class="st28" d="M1247.9,109.5c0.6-0.4,1.2-0.8,1.9-1.1l-2.4-6.3c-1.4,0.6-2.8,1.4-4,2.4L1247.9,109.5z"/>
		<path class="st12" d="M1287.2,124.7h-11.6l-2.1,6.6h-6.8l11.5-31.6h6.6l11.3,31.6h-6.9L1287.2,124.7z M1281.5,107.3L1281.5,107.3
			l-4.1,12.3h8.1L1281.5,107.3z"/>
	</g>
</g>
<g>
	<g>
		<g>
			<path class="st8" d="M406.1,247.4c35.7-1,67.8-4.5,75.1-31.8c3.1-11.5-1.1-16.1-13.3-16.1c-5.6,0-12.8,0.8-15.6,1.2
				c-13.8,1.6-30.6,4.2-45.8,6.7l1.9-22.5c7.3-0.5,39.4-3.7,46-4.1c6.8-0.5,14.5-1.1,21.4-1.1c11.2,0,40.6,0.3,31.1,35.8
				c-6.8,25.3-23.9,35.9-38,41.5c-25.6,10.2-49.9,10.6-61.1,10.8L406.1,247.4z M501,174.9c-12.1-3.5-30.6-8.5-70.8-10.4l8.6-19.8
				c33.5,1.4,53.9,4.8,72.3,9.1L501,174.9z"/>
			<path class="st8" d="M684.7,171.4c-3.9,11.2-8.1,22.2-12.6,33.4c7.9,3.3,11.7,5.5,14.6,7.1L673.2,235c-7.2-4.2-8.9-5.3-11.7-6.8
				c-16.1,28.5-37.9,34.9-54.8,39.3l-10-17.2c12.2-2,31.1-5.7,44.9-31.1c-15.6-5.1-21.2-5.9-25.3-6.4
				c-10.1,18.4-26.8,45.7-53.7,45.7c-17.4,0-24.7-11.5-20.6-26.8c5.7-21.2,30.8-37.8,60.3-39.3c3.5-7.9,7.5-18.8,9.1-23.1l-43.5,0.4
				l5.6-20.7h70.2c-1.3,3-1.7,4.8-8.6,21.8c-6.7,16.4-7.6,18.2-9.3,22.1c11.8,1.1,22.3,4.1,24.4,4.6c2.4-7.2,5.4-17.5,8.6-28
				L684.7,171.4z M563.3,231.1c-1,3.6-0.3,7,4.7,7c9.7,0,18.7-14.2,25.4-26.8C571.6,213.4,564.7,226,563.3,231.1z"/>
		</g>
	</g>
</g>
<g>
	<g>
		<g>
			<path class="st8" d="M853.7,156.8l-27,100.6H712l5.7-21.4h89.2l15.5-57.9h-87.7l5.7-21.3L853.7,156.8L853.7,156.8z"/>
			<path class="st8" d="M884.2,241.3c68.8-4.8,101.4-32.8,128.7-79.4l20.2,10.2c-41.8,69.9-91.4,85.7-147.1,92.7L884.2,241.3z
				 M942.9,192.6c-14.2-10.4-26.1-15.8-42.1-21l15.9-18.7c13.4,3.8,27.7,8.7,44.5,19.7L942.9,192.6z"/>
		</g>
	</g>
</g>
<g>
	<g>
		<g>
			<path class="st8" d="M853.8,156.7l-27,100.6H712l5.7-21.4h89.2l15.5-57.9h-87.7l5.7-21.3L853.8,156.7L853.8,156.7z"/>
		</g>
	</g>
</g>
<g>
	<path class="st8" d="M1091.6,250.5v11.1h-42c0.5-4.2,1.8-8.2,4.1-12c2.3-3.8,6.8-8.8,13.5-15c5.4-5,8.7-8.4,9.9-10.2
		c1.6-2.5,2.5-4.9,2.5-7.3c0-2.7-0.7-4.7-2.2-6.2c-1.4-1.4-3.4-2.2-5.9-2.2c-2.5,0-4.5,0.8-6,2.3c-1.5,1.5-2.3,4-2.6,7.5l-11.9-1.2
		c0.7-6.6,2.9-11.3,6.7-14.2c3.8-2.9,8.4-4.3,14.1-4.3c6.2,0,11,1.7,14.5,5c3.5,3.3,5.3,7.5,5.3,12.4c0,2.8-0.5,5.5-1.5,8
		c-1,2.5-2.6,5.2-4.8,8c-1.4,1.8-4.1,4.5-7.8,8s-6.2,5.8-7.2,6.9c-1,1.1-1.8,2.2-2.5,3.3L1091.6,250.5L1091.6,250.5z"/>
	<path class="st21" d="M1126.1,198.8c6.1,0,10.8,2.2,14.2,6.5c4.1,5.1,6.1,13.6,6.1,25.5c0,11.8-2,20.3-6.1,25.5
		c-3.4,4.3-8.1,6.4-14.2,6.4c-6.1,0-11-2.3-14.7-7c-3.7-4.7-5.6-13-5.6-25c0-11.8,2-20.2,6.1-25.4
		C1115.3,200.9,1120,198.8,1126.1,198.8z M1126.1,208.7c-1.4,0-2.7,0.5-3.9,1.4c-1.1,0.9-2,2.6-2.6,5c-0.8,3.1-1.2,8.3-1.2,15.7
		s0.4,12.4,1.1,15.1c0.7,2.7,1.7,4.6,2.8,5.5c1.1,0.9,2.4,1.4,3.9,1.4s2.7-0.5,3.9-1.4c1.1-0.9,2-2.6,2.6-5
		c0.8-3.1,1.2-8.3,1.2-15.6s-0.4-12.4-1.1-15.1c-0.7-2.7-1.7-4.6-2.8-5.5C1128.8,209.2,1127.5,208.7,1126.1,208.7z"/>
	<path class="st8" d="M1201,250.5v11.1h-42c0.5-4.2,1.8-8.2,4.1-12c2.3-3.8,6.8-8.8,13.5-15c5.4-5,8.7-8.4,9.9-10.2
		c1.6-2.5,2.5-4.9,2.5-7.3c0-2.7-0.7-4.7-2.2-6.2c-1.4-1.4-3.4-2.2-5.9-2.2c-2.5,0-4.5,0.8-6,2.3c-1.5,1.5-2.3,4-2.6,7.5l-11.9-1.2
		c0.7-6.6,2.9-11.3,6.7-14.2c3.8-2.9,8.4-4.3,14.1-4.3c6.2,0,11,1.7,14.5,5c3.5,3.3,5.3,7.5,5.3,12.4c0,2.8-0.5,5.5-1.5,8
		c-1,2.5-2.6,5.2-4.8,8c-1.4,1.8-4.1,4.5-7.8,8s-6.2,5.8-7.2,6.9c-1,1.1-1.8,2.2-2.5,3.3L1201,250.5L1201,250.5z"/>
	<path class="st8" d="M1238.7,261.6V249h-25.6v-10.5l27.1-39.7h10.1v39.7h7.8V249h-7.8v12.6H1238.7z M1238.7,238.5v-21.4l-14.4,21.4
		H1238.7z"/>
</g>
<g>
	<path class="st29" d="M335.8,99.8l4.1-10.2l5.7,0.8l-4.1,10.2L335.8,99.8z M339,86.3l0.5-2.1l7.2,1.6l-0.5,2.1L339,86.3z
		 M340.2,81.2l0.5-2.1l7.2,1.6l-0.5,2.1L340.2,81.2z M345.7,100l1.8-6.7l-1.1-0.2l0.5-2.1l1.2,0.2l1.8-6.4l1.5,0.2l4.1,0.6l9.5,1.3
		l4.4,0.6l1.3,0.2l-1.5,6.5l0.8,0.1l-0.5,2.1l-0.9-0.1l-1.1,4.7l0.8,0.1l-0.5,2.1l-0.9-0.1l-0.3,1.1l-5.7-0.8l0.3-1.1l-2.4-0.3
		l-5.7-0.8l-2-0.3l-3.8-0.5L345.7,100z M349,83.3l1.9-2.7l6.2,0.9l-0.5,0.8l15.6,2.2l-0.5,2.1l-16.5-2.3l-5-0.7L349,83.3z
		 M351.9,98.7l1.9,0.3l1.2-4.7l-1.8-0.3L351.9,98.7z M353.7,92l1.8,0.2l1.1-4.4l-1.7-0.2L353.7,92z M362.9,95.4l-2.3-0.3l-1.2,4.7
		l2.4,0.3L362.9,95.4z M364.4,89l-2.2-0.3l-1.1,4.4l2.3,0.3L364.4,89z"/>
	<path class="st8" d="M376.9,105.1l1.7-10.7l0.2,0l6.7-0.6l-3.1-9.1l7.8,0.5l2.7,7.8l14.7-1.4l-0.3,2.1l-21,2l-1.2,7.8l20.6,1.4
		l-0.3,2.1L376.9,105.1z"/>
	<path class="st8" d="M415.2,94.5l0.2-2.1l5,0l0-2.5l-4.9,0l0.2-2.1l12.8,0l0.1-1.4l6.9,0l-0.1,1.4l12.4,0l-0.2,2.1l-4.9,0l-0.6,2.5
		l5.2,0l-0.2,2.1l-23.1,0l-3.1,12.9l-6.9,0l3.1-12.9L415.2,94.5z M423.2,107.4l0.2-2.1l8.5,0l0.2-2.4l-7.4,0l0.2-2.1l7.4,0l0.2-2
		l-3.2,0l-2.4,0l-2.7,0l0.8-3.1l5.1,0l-0.2,1l2.8,0l0.1-1.7l6.9,0l-0.1,1.7l6.8,0l-0.2,2.1l-6.8,0l-0.2,2l5.9,0l-0.2,2.1l-5.9,0
		l-0.2,2.4l7.5,0l-0.2,2.1l-7.5,0l-6.9,0L423.2,107.4z M435.4,92.3l0.6-2.5l-9.1,0l0,2.5L435.4,92.3z"/>
	<path class="st8" d="M452.3,90.1l0-2.1l1.8-0.1l-0.2-2l4.6-0.3l0.2,2l2.5-0.2l0.1-2l5.1-0.3l-0.1,2l4-0.3l0.1-2l5.1-0.3l-0.1,2
		l3.3-0.2l0.4-2l4.6-0.3l-0.4,2l1-0.1l0,2.1l-4.9,0.3l-0.4,2l4.8-0.3l0,2.1l-11.5,0.7l0,1.3l10.9-0.7l0,2.1L472,96.3l0,1.4l12.1-0.8
		l0,2.1L472,99.8l0,0l12,2.6l-0.1,2.7l-12-2.6l-0.1,3.4l-8,0.5l0.1-3.4l-12.1,4.1l0.1-2.7l12-4.1l0,0l-12,0.8l0-2.1l12-0.8l0-1.4
		l-10.7,0.7l0-2.1l10.7-0.7l0-1.3l-11.3,0.7l0-2.1l4.6-0.3l-0.3-2L452.3,90.1z M464.4,89.3l0.3,2l7.1-0.4l0.4-2L464.4,89.3z"/>
	<path class="st8" d="M489.3,86.9l-0.1-2.1l4.6-0.5l0-1.3l6.8-0.8l0,1.3l9.1-1.1l0-1.3l6.8-0.8l0,1.3L521,81l0.1,2.1l-4.5,0.5
		l0.1,3.4l-1.2,0.1l-5.6,0.7l-1.2,0.1l0.1,1.4l3.9-0.5l3.2-0.4l3.1-0.4l0.2,6.8l-2.9,0.3l-3.4,0.4l-3.9,0.5l0.1,1.4l12.4-1.5
		l0.1,2.1l-12.4,1.5l0.1,2.7l-6.8,0.8l-0.1-2.7l-12.6,1.5l-0.1-2.1l12.6-1.5l-0.1-1.4l-3.8,0.5l-2.6,0.3l-3.7,0.4l-0.2-6.8l3.4-0.4
		l2.8-0.3l3.9-0.5l-0.1-1.4l-1.1,0.1l-5.8,0.7l-1,0.1l-0.1-3.4L489.3,86.9z M498.3,95.3l3.8-0.5l-0.1-2.5l-3.9,0.5L498.3,95.3z
		 M500.7,85.5l0,1.3l9.1-1.1l0-1.3L500.7,85.5z M512.7,91l-3.9,0.5l0.1,2.5l3.9-0.5L512.7,91z"/>
	<path class="st8" d="M526.6,86.6l-0.2-2.1l1.7-0.3l-0.2-2.7l-1.5,0.3l-0.2-2.1l5.4-0.9l-0.1-0.8l6.2-1l0.1,0.8l4.4-0.7l0.2,2.1
		l-1.1,0.2l0.1,2.7l1.4-0.2l0.2,2.1l-4.5,0.8l0.2,2.1l4.5-0.8l0.2,2.1l-4.5,0.8l0.1,1.5l4.1,0.9l0.2,2.7l-4.1-1l0.4,5l-6.2,1
		l-0.3-3.8l-1,2l-4.5,0.8l4-7.9l-4.5,0.7l-0.2-2.1l5.6-0.9l-0.2-2.1L526.6,86.6z M536.3,82.9l-0.1-2.7l-3.3,0.5l0.2,2.7L536.3,82.9z
		 M543.9,96.4l-0.1-19.1l13.8-3.7l0.2,2.1l-8.3,2.2l0,3l8.6-1.4l0.2,2.1l-1.3,0.2l0.9,13.1l-5.9,1L551,82.9l-1.5,0.3l0,12.4
		L543.9,96.4z"/>
	<path class="st29" d="M564.3,75.6l-0.2-2.1l29.3-6l2.1,19.9l-29.2,6l-0.2-2.1l21.4-4.4l-1.7-15.7L564.3,75.6z"/>
	<path class="st29" d="M601,67.7l-0.3-2.1l10.8-2.5l0.3,2.1L601,67.7z M613.9,83.3l8.4-21.8l8.9-2.1l-8.4,21.8L613.9,83.3z"/>
	<path class="st8" d="M663.5,71.3L649.2,59l-3.6,10.2l-6.7,1.7l5.6-15.9l7.8-1.9l18.9,16.3L663.5,71.3z M665.7,52.7l-1.5,0.4
		l-0.5-3.5l1.5-0.4L665.7,52.7z M668.3,52l-1.5,0.4l-0.5-3.5l1.5-0.4L668.3,52z"/>
	<path class="st8" d="M675.1,49.8l-0.3-2.1l10.8-2.7l0.3,2.1L675.1,49.8z M688.3,65.1l8-22l8.9-2.2l-8,22L688.3,65.1z"/>
	<path class="st8" d="M712.5,40l-0.3-2.1l10.8-2.6l0.3,2.1L712.5,40z M713.6,47.5l-0.3-2.1l10.8-2.6l0.3,2.1L713.6,47.5z
		 M727.8,55.2l6-21l8.9-2.2l-6,21L727.8,55.2z"/>
	<path class="st8" d="M751.4,34.4l-0.3-2.1l27.8-6.2l2.1,16.7L753.4,49l-0.3-2.1l20.2-4.5l-0.7-5.8l-20.1,4.5l-0.3-2.1l20.1-4.5
		l-0.6-4.6L751.4,34.4z"/>
	<path class="st8" d="M787.9,23l-0.2-2.1l10.9-2l0.2,2.1L787.9,23z M800.2,39.1l9.3-21.4l9-1.7l-9.3,21.4L800.2,39.1z"/>
</g>
<path class="st21" d="M822.4,178h-87.7l5.7-21.3h113.3L822.4,178z"/>
<path class="st21" d="M992.2,222.6c-32.1,28.2-67.7,37.3-106.2,42.1l-1.7-23.5c42.4-2.9,71.1-14.7,93.2-34.2L992.2,222.6z"/>
<circle class="st30" cx="212.5" cy="144.5" r="73"/>
<g>
	<circle class="st31" cx="218.2" cy="248.2" r="52"/>
</g>
<line class="st1" x1="-42.5" y1="531.7" x2="337.5" y2="151.7"/>
<rect x="199.5" y="44.8" class="st7" width="229.4" height="276.9"/>
<path class="st21" d="M501,174.9c-12.1-3.5-30.6-8.5-70.8-10.4l8.6-19.8c33.5,1.4,53.9,4.8,72.3,9.1L501,174.9z"/>
<path class="st21" d="M467.9,199.5c-5.6,0-12.8,0.8-15.6,1.2c-13.8,1.6-30.6,4.2-45.8,6.7l1.9-22.5c7.3-0.5,39.4-3.7,46-4.1
	c6.8-0.5,14.5-1.1,21.4-1.1L467.9,199.5z"/>
<path class="st21" d="M650.3,197.6c2.4-7.2,5.4-17.5,8.6-28l25.9,1.8c-3.9,11.2-8.1,22.2-12.6,33.4c7.9,3.3,11.7,5.5,14.6,7.1
	L673.2,235c-7.2-4.2-8.9-5.3-11.7-6.8c-16.1,28.5-37.9,34.9-54.8,39.3l-10-17.2c12.2-2,31.1-5.7,44.9-31.1L650.3,197.6z"/>
<g>
	<path class="st32" d="M555.3,298.4l2.8-3.3c1.8,1.3,3.6,2.8,5,4.4l-2.8,3.4C558.8,301.2,557,299.5,555.3,298.4 M555.7,313.1
		c2-2.7,3.6-5.7,5.1-9.3l3.4,2.7c-1.3,3.6-3.1,7.1-4.9,9.7L555.7,313.1z M556.9,291l2.8-3.3c2,1.4,3.6,2.8,5,4.3l-3,3.4
		C560.3,293.9,558.6,292.3,556.9,291 M574.5,316l-0.7-3.2c0.8,0.1,1.8,0.2,2.5,0.2c1,0,1.2-0.2,1.3-1.1h-9l-0.3,1.7l-4.1-0.5
		c0.7-3.4,1-4.9,1.3-7.6h-2.2v-3.5h2.7l0.4-3.6c-0.5,0.6-0.8,1.1-1.5,1.9l-2.4-3.7c2.6-2.7,4.1-5.7,4.9-9.3l4.3,0.6
		c-0.3,1-0.4,1.3-0.7,2.3h12.7v4h-14.5c-0.3,0.6-0.7,1.2-1,1.6h14c0,1.8,0,3.3-0.1,6.1h2.7v3.5h-2.8l-0.2,2.8h2.2v3.5h-2.5l-0.1,1
		c-0.2,2.5-0.9,3.3-3.3,3.3C576.6,316.2,575.5,316.1,574.5,316 M571.5,308.4l0.4-2.8h-2.3l-0.4,2.8H571.5z M572.2,302.1l0.2-2.7
		h-2.2l-0.3,2.7H572.2z M577.8,308.4l0.2-2.8h-2.6l-0.3,2.8H577.8z M578.2,302.1l0.1-2.7h-2.3l-0.2,2.7H578.2z"/>
	<path class="st32" d="M589.5,312.7c2-2.4,3.7-5.2,5.5-9.2l3.3,2.9c-1.4,3.6-3.3,7.1-5.3,9.9L589.5,312.7z M589.8,298.2l2.8-3.3
		c1.7,1.2,3.6,2.9,5,4.4l-2.8,3.4C593,300.9,591.4,299.4,589.8,298.2 M591.1,291.1l2.8-3.3c1.8,1.2,3.4,2.7,4.9,4.3l-3,3.4
		C594,293.4,592.6,292.1,591.1,291.1 M606.1,309.6h-7.7v-4h7.7V303h-6.3v-3.8h6.3v-2.5H599v-3.9h3.9c-0.5-1.5-1.2-2.8-2-4l4.1-1.4
		c0.9,1.2,1.7,2.8,2.3,4.4l-3,1h4.9c0.9-1.9,1.5-3.7,2-5.7l4.5,1.2c-0.5,1.6-1.1,2.9-2,4.4h4.3v3.9h-7.4v2.5h6.4v3.8h-6.4v2.5h8.1v4
		h-8.1v6.6h-4.5V309.6z"/>
	<path class="st32" d="M623.6,308.9c0.9-0.2,2.8-0.7,3.6-0.9v-5.8h-2.6V298h2.6v-4.7h-3v-4.2h9.9v4.2h-2.8v4.7h2.5v-1.7h19.4v3
		h-19.4v2.9h-2.5v4.4c0.5-0.2,1.9-0.7,2.9-1.1l0.3,4.2c-3.2,1.6-6.5,2.8-9.7,3.6L623.6,308.9z M640.7,311.6
		c-1.5,1.3-3.4,2.6-5.4,3.7l-2.8-3.2c3.6-1.5,6.3-3.2,8.6-5.4h-5.5v-6.5h16v6.5h-0.8l1.9,1.3c-0.9,0.7-2,1.5-3,2.2
		c0.9,0.5,1.9,1,4,1.7l-2.5,3.5c-2.3-1-4.4-2.6-6.3-4.4v5.2h-4.2V311.6z M635,287.9H652v7.4H635V287.9z M640.2,290.4h-1.6v2.5h1.6
		V290.4z M647.5,302.7h-8v1.8h8V302.7z M644.2,290.4h-1.6v2.5h1.6V290.4z M649,306.7h-3.3l-0.4,0.3c1,0.9,1.3,1.2,1.8,1.5
		C647.7,308.1,648.4,307.4,649,306.7 M648.4,290.4h-1.7v2.5h1.7V290.4z"/>
	<path class="st32" d="M657.9,308.1c0.7-0.1,2.1-0.5,3.4-0.8v-8.4h-2.9v-4.1h2.9v-6.5h4.1v6.5h2.3v-0.3h4.4c-0.4-1-0.5-1.3-0.7-1.9
		h-2.7v-3.1h6.4v-2.1h4.3v2.1h6.7v3.1h-2.7c-0.2,0.7-0.4,1.2-0.7,1.9h4.4v3.1h-19.2v1.3h-2.5v7.1c0.9-0.3,1.9-0.6,2.7-0.9l0.3,4.1
		c-3.8,1.6-6.9,2.8-9.2,3.4L657.9,308.1z M665.2,313c4.5-0.5,6.2-1.8,6.6-4.6h-2.2v-9.6h15.8v9.6h-4.2v3.3c0,0.6,0.2,0.7,1.4,0.7
		c1.5,0,1.6-0.3,1.7-3l3.6,0.7c0,3.5-0.4,4.8-1.3,5.3c-0.8,0.4-2.3,0.6-5,0.6c-3.8,0-4.4-0.4-4.4-2.7v-4.9h-1.3
		c-0.3,4.6-2.9,7.1-8.5,8.3L665.2,313z M681.2,301.1h-7.7v1.2h7.7V301.1z M681.2,304.7h-7.7v1.3h7.7V304.7z M678.9,294.5
		c0.3-0.6,0.4-1.1,0.6-1.9H675c0.3,0.8,0.4,1.1,0.7,1.9H678.9z"/>
	<path class="st32" d="M706.1,305.7c-2.6,1.4-3.8,2.6-3.8,3.6c0,1,1.2,1.6,4.6,1.6c2,0,5.5-0.2,8.4-0.9l0.8,4.7
		c-2.9,0.3-6.6,0.5-8.6,0.5c-6.9,0-9.7-2-9.7-5.3c0-3.5,3.4-5.9,7.8-8.1c-0.3-0.6-0.9-1-1.7-1c-1.3,0-2.7,0.7-4,1.9
		c-1.3,1.2-2.2,2.2-3.5,3.9l-3.7-2.8c2.4-2.1,4.4-4.5,6.1-7.6c-1.9,0.1-3.6,0.2-5.2,0.3l-0.4-4.4c2.4,0,5-0.1,7.7-0.3
		c0.5-1.4,1.1-2.9,1.6-4.6l4.4,1.3c-0.4,1-0.7,2-1.1,2.9c2.4-0.3,4.8-0.6,7.1-1.1l0.6,4.4c-2.9,0.5-6.4,0.9-9.9,1.2
		c-0.3,0.6-0.7,1.2-1,1.8c0.8-0.3,1.5-0.4,2.2-0.4c2.4,0,3.9,1.1,4.7,2.9c2.2-1,4.6-2,6.9-3l1.7,4.2c-3.1,1-5.6,2-7.8,2.8
		c0.1,0.8,0.1,1.5,0.1,2c0,1.2,0,2,0,3.2h-4.4C706,307.2,706.1,306.5,706.1,305.7"/>
	<path class="st32" d="M722.8,311.4c1.6-0.9,3-1.9,4.3-3V303h-3.7v-4.3h8v10c0.5,0.6,1.2,1.2,2,1.6v-16h6.1
		c-1.1-0.6-1.9-0.9-3.5-1.5l1.9-1.7h-4.6v-3.2h15.1l2,2.2c-1.8,1.7-3.4,2.9-5.2,4.1l0.3,0.2h5.2v13.2c0,2.4-0.6,3-2.9,3
		c-1.1,0-2.3-0.1-2.9-0.2l-0.7-2.9c0.6,0.1,1.5,0.2,2,0.2c0.4,0,0.6-0.2,0.6-0.7v-1.5h-3v4.4h-3.7v-4.4h-2.8v5.1h-3.7
		c1.6,0.8,3.6,1,9.5,1c2.8,0,5.1,0,9.5-0.2c-0.6,1.3-1,2.7-1.2,4.3l-1.5,0c-4.4,0.1-5.2,0.1-7.2,0.1c-4.9,0-7.4-0.2-8.8-0.6
		c-1.9-0.6-3.2-1.6-4.4-3.4c-1.4,1.9-2.6,3.2-4.3,4.6L722.8,311.4z M723.8,290.9l3.3-2.7c2,1.8,3.6,3.5,5.2,5.5l-3.6,2.9
		C727.2,294.5,725.6,292.6,723.8,290.9 M740.1,297h-2.8v1.5h2.8V297z M740.1,301.2h-2.8v1.6h2.8V301.2z M744.2,291.2h-5
		c1.2,0.5,2,0.9,3,1.5C742.9,292.2,743.6,291.7,744.2,291.2 M746.8,297h-3v1.5h3V297z M746.8,301.2h-3v1.6h3V301.2z"/>
	<path class="st32" d="M762.9,305.9c0-1.8,0.1-5.3,0.2-7.8c0.1-2.2,0.1-7,0-9.7l5,0c-0.1,2.7-0.2,7.3-0.3,9.5
		c-0.1,2.1-0.2,5.8-0.2,7.8c0,3.6,1.1,5,3.6,5c3.3,0,7.2-2.8,9.6-7.3l2.5,5c-3.6,4.6-7.5,6.8-12.3,6.8
		C765.5,315.2,762.9,312.2,762.9,305.9 M772.8,291.8l2.7-1.2c1.2,2,1.8,3.2,2.5,5.5l-2.8,1.2C774.5,295,774,293.8,772.8,291.8
		 M776.9,290.6l2.7-1.2c1.3,1.9,1.8,3.3,2.6,5.5l-2.8,1.2C778.7,293.9,778.1,292.3,776.9,290.6"/>
	<path class="st32" d="M790.1,313.7c2.6-5.8,4.4-11.2,5.8-16.8c-2.1,0.1-4.1,0.2-5.6,0.3l-0.5-4.4c2.2,0,4.6-0.1,7-0.3
		c0.3-1.7,0.6-3.5,0.9-5.3l4.6,0.7c-0.3,1.4-0.5,2.8-0.9,4.2c2.4-0.2,4.7-0.5,6.8-1l0.7,4.3c-2.6,0.4-5.6,0.8-8.5,1.1
		c-1.5,6.4-3.4,12.4-5.9,18.9L790.1,313.7z M801.4,309.3c0-1.4,0.8-3.3,1.9-4.7l4.1,1.2c-1,1-1.5,2-1.5,2.7c0,1,1.1,1.7,4.1,1.7
		c1.7,0,4.1-0.2,6.1-0.6l0.9,4.4c-2.2,0.3-5.1,0.4-6.6,0.4C804.4,314.4,801.4,312.5,801.4,309.3 M803.2,298.5
		c4.3-0.8,8.8-1.1,12.7-0.8l-0.6,4.3c-2.8-0.3-7.7,0-10.9,0.6L803.2,298.5z"/>
	<path class="st32" d="M833.7,313.4c0,2-0.7,2.7-2.8,2.7c-0.9,0-1.9-0.1-2.6-0.2l-0.7-4.2c0.6,0.1,1.3,0.2,1.8,0.2
		c0.5,0,0.7-0.2,0.7-0.7v-4.5h-2.8c-0.3,4-1,7.4-2.2,9.9l-3.3-3.2c1.3-2.8,1.8-5.5,1.8-10.3v-14.7h10.1v24.5c2.9-1.6,4.2-4,4.3-8.3
		h-2.5v-10.7h2.6c-0.6-1.6-1.3-3-2.3-4.5l3.9-1.6c0.9,1.2,1.8,2.8,2.6,4.7l-3.5,1.4h4.4c0.9-2,1.6-3.8,2.3-6.4l4.3,1.5l-0.2,0.3
		c-1.2,2.6-1.7,3.4-2.3,4.6h3.2v10.7H847v6.3c0,0.5,0.1,0.7,0.4,0.7h0.6c0.4,0,0.4-0.4,0.5-1c0-0.5,0.1-1.5,0.1-2.8l3.5,1.1
		c0,3-0.3,5.2-0.7,6c-0.5,0.9-1.6,1.2-4.3,1.2c-0.6,0-1,0-1.6-0.1c-1.6-0.1-2.2-0.7-2.2-2.2v-9.1h-1.5c-0.1,6.3-1.7,9.6-5.9,12
		L833.7,313.4z M830,292.3h-2.7v3.4h2.7V292.3z M830,299.4h-2.7v3.6h2.7V299.4z M846.3,297.4h-6.8v3.6h6.8V297.4z"/>
	<path class="st32" d="M861.9,313.1c-0.4,1.1-1,2.1-2,3.4l-3.5-3.2c2-2.7,2.6-5.3,2.6-10.8v-6h25.8v3.7h-21.5v3.1
		c0,4.6-0.4,7.3-1.3,9.5c6.3-1.5,8.7-4,8.9-9.2v-2.8h4.1v1.4c0.1,5.2,3.4,8.2,10.7,9.8l-2.4,4.1c-4.8-1.3-8-3.6-9.9-7
		c-1.5,3.7-4.3,6-9.2,7.4L861.9,313.1z M860,288.3h4.3v3.3h5.1v-4.2h4.4v4.2h5.2v-3.3h4.4v6.8H860V288.3z M863.2,308
		c1-1.7,1.7-3.6,2.1-6.1l4,0.9c-0.5,2.9-1.4,5.3-2.5,7.1L863.2,308z M876.6,307c1.3-1.8,2.4-3.9,3-5.7l4.2,1.8c-1,2-2.5,4.4-3.8,5.9
		L876.6,307z"/>
	<path class="st32" d="M903,309.1c-2.9,0.2-6.8,0.3-10.6,0.3l-1.2-3.5h2.6c3.7,0,3.9,0,5.1,0c-1.5-0.9-2.2-1.3-4.1-2.3l2.9-2.6
		c0.7,0.4,1.4,0.9,2,1.3c0.7-0.7,1.2-1.2,1.7-1.8h-10.3v-3.3h11.9v-1.2h-8.7v-2.8h8.7v-1.1h-10.1v-3.1h10.1v-1.9h4.5v1.9H918v3.1
		h-10.4v1.1h8.9v2.8h-8.9v1.2h12.1v3.3h-10.4l3.7,1.6c-1.5,1.4-2.9,2.5-4.5,3.6l4.2-0.2c-0.4-0.4-0.9-0.9-1.3-1.2l3.3-1.8
		c1.9,1.5,3.8,3.5,5.4,5.6l-3.6,2c-0.5-0.8-0.9-1.2-1.3-1.8c-2.2,0.2-5.4,0.4-7.4,0.5v7.4H903V309.1z M891.2,313.1
		c2.7-0.9,5.3-2.2,7.4-3.7l3.3,2.4c-2,1.6-4.9,3.4-7.8,4.6L891.2,313.1z M908.9,300.6H906l0.4,0.2c-1.2,1.2-2.4,2.3-3.8,3.5l1.2,0.9
		C905.5,303.9,907.1,302.5,908.9,300.6 M909,311.7l2.8-2.7c2.9,1,5.9,2.2,8.2,3.6l-2.9,3.5C914.9,314.4,912,312.9,909,311.7"/>
	<path class="st32" d="M929.8,306.1c-1,1-2.2,2-3,2.7l-2.2-3.9c3.4-2.2,6.2-5.3,7.9-8.4h-6.8v-4.1h4.1v-4.8h4.3v4.8h2.8l1.3,1.3
		c-0.9,2.4-2.2,4.7-3.9,7.1c2.2,1.4,3.5,2.4,5,3.7l-2.5,3.8c-1.2-1.4-1.9-2-2.8-3v10.9h-4.3V306.1z M936.3,310.7h6.6v-10.7h-5.2
		v-4.4h5.2v-8.1h4.6v8.1h5.7v4.4h-5.7v10.7h6.7v4.4h-17.9V310.7z"/>
	<path class="st32" d="M958.9,297.2c5.4-2,9.2-5.1,12.3-9.6h5.1c3.1,4.2,6.8,6.8,12.5,8.9l-2.2,4.4c-2-0.9-3.8-1.9-5.3-2.8v2.1
		h-14.5v-1.7c-1.9,1.2-3.3,2-5.2,2.9L958.9,297.2z M981.4,313.8c-5.8,0.9-12.4,1.7-19.2,2.2l-1.2-4.5c1.5,0,3.6-0.1,4.3-0.1
		c1.1-2.2,1.7-3.6,2.3-5.1h-7.1v-4.1h26.8v4.1h-6.5c2.7,2.7,4.6,4.9,6.7,7.7l-4.3,2.6C982.6,315.4,982.1,314.7,981.4,313.8
		 M978.6,296.1c-1.8-1.4-3.4-3-4.7-4.8c-1.3,1.9-2.7,3.4-4.3,4.8H978.6z M978.7,310.5c-0.9-1-1.4-1.6-2.3-2.5l3.3-1.7h-7.1
		c-0.7,1.5-1.6,3.1-2.6,4.8C973.3,311,975.8,310.8,978.7,310.5"/>
	<path class="st32" d="M1007.2,311.4c6-1.8,9-4.7,9-9.2c0-4.2-2.5-6.8-6.5-7.3c-0.3,3.5-0.9,6.7-1.7,9.3c-1.6,5.1-4.4,8.2-7.7,8.2
		c-3.4,0-5.9-3.5-5.9-7.8c0-7.7,6.2-13.9,14.2-13.9c7.4,0,12.4,4.6,12.4,11.5c0,6.1-3.6,10.4-10.3,12.7L1007.2,311.4z M1000.5,307.5
		c1.2,0,2.6-1.6,3.8-5.3c0.7-2.2,1.1-4.4,1.3-7c-3.9,1.3-6.7,5-6.7,8.9C998.8,306.1,999.6,307.5,1000.5,307.5"/>
	<path class="st32" d="M1039.5,301.3c-0.4,0.8-0.6,1.2-1.1,2.2l-1.1-2.2l0.1,3.1c-0.8,0.3-2,0.6-2.8,0.9v8c0,2.2-0.7,2.9-3,2.9
		c-1,0-2.2-0.1-3.2-0.2l-0.9-4.5c0.7,0.1,1.5,0.2,2.2,0.2c0.7,0,0.8-0.2,0.8-0.8v-4.6c-0.7,0.2-1.7,0.4-3.2,0.7l-0.8-4.5
		c0.5-0.1,2.3-0.4,4-0.6v-5h-3.4v-4h3.4v-5.5h4.1v5.5h3v4h-3v4.1c0.4-0.1,1.8-0.4,2.4-0.5l-0.6-1.3c2-2.8,3.7-7.1,4.6-12l4.1,0.9
		c-0.4,1.6-0.7,2.4-1.3,4.4h2.6c0.8-1.6,1.3-3.1,1.9-5.1l4.1,0.9c-0.5,1.4-1.1,2.6-1.9,4.2h4.7v3.9h-5.2v2.3h4.4v3.7h-4.4v2.3h4.4
		v3.7h-4.4v2.4h5.7v4h-12.5v1.3h-3.8V301.3z M1046.3,296.4h-3v2.3h3V296.4z M1046.3,302.4h-3v2.3h3V302.4z M1046.3,308.4h-3v2.4h3
		V308.4z"/>
	<path class="st32" d="M1060.7,311.5c1.5-0.8,2.6-1.5,3.9-2.5v-6h-3.2v-4.3h6.9l-0.8-1.1c2.7-2.5,4.9-6.3,6.1-10.4l4.1,0.9
		c-0.5,1.2-0.9,2-1.5,3.2h3.2c0.5-1.1,1.1-2.4,1.5-3.9l4.1,1c-0.6,1.2-0.9,1.9-1.5,2.9h5.4v3.4h-6v1.6h4.9v3.2h-4.9v1.6h4.9v3.2
		h-4.9v1.8h6.5v3.5h-14v1.1h-3.9V299c-0.4,0.8-0.9,1.6-1.5,2.4l-1.2-1.8v9.2c1,1.3,2.4,2.1,4.6,2.5c1.2,0.2,3.5,0.3,6.9,0.3
		c2.8,0,5.5-0.1,10.6-0.3c-0.5,1.5-0.9,2.9-1.3,4.4c-3.1,0.1-6.2,0.2-8.1,0.2c-5.4,0-8.8-0.3-10.4-0.9c-1.6-0.6-2.8-1.5-4-3.1
		c-1.1,1.5-2.4,3-4,4.4L1060.7,311.5z M1061.5,290.1l3.3-2.5c1.7,1.5,3.1,3.3,4.6,5.4l-3.6,2.7
		C1064.5,293.5,1063.1,291.7,1061.5,290.1 M1079,294.7h-3.6v1.6h3.6V294.7z M1079,299.6h-3.6v1.6h3.6V299.6z M1079,304.4h-3.6v1.8
		h3.6V304.4z"/>
</g>
</svg>
