<?xml version="1.0" encoding="utf-8"?>
<!-- Generator: Adobe Illustrator 28.0.0, SVG Export Plug-In . SVG Version: 6.00 Build 0)  -->
<svg version="1.1" id="レイヤー_1" xmlns="http://www.w3.org/2000/svg" xmlns:xlink="http://www.w3.org/1999/xlink" x="0px"
	 y="0px" viewBox="0 0 68 68" style="enable-background:new 0 0 68 68;" xml:space="preserve">
<style type="text/css">
	.st0{fill:#56ABD6;}
</style>
<g>
	<polygon class="st0" points="67.4,44.5 33.9,20.8 0.4,44.5 0.4,47.2 33.9,23.5 67.4,47.2 	"/>
	<g>
		<path class="st0" d="M14.7,40.8h1.2c0.5,0,1,0,1.4,0.2c0.3,0.1,0.5,0.3,0.7,0.6s0.3,0.6,0.3,1s-0.1,0.7-0.3,1
			c-0.2,0.3-0.5,0.5-0.9,0.6s-0.8,0.1-1.2,0.1v2.5h-1.2L14.7,40.8L14.7,40.8z M15.8,43.2h0.4c0.2,0,0.4,0,0.6-0.1
			c0.1,0,0.2-0.1,0.3-0.2c0.1-0.1,0.1-0.2,0.1-0.3c0-0.2-0.1-0.4-0.3-0.5C16.7,42,16.4,42,16.2,42h-0.3
			C15.8,41.9,15.8,43.2,15.8,43.2z"/>
		<path class="st0" d="M21.2,40.8h1.2l2.3,6h-1.2L23,45.6h-2.5l-0.4,1.2h-1.2L21.2,40.8z M21.8,42.4L21,44.5h1.6L21.8,42.4z"/>
		<path class="st0" d="M31.1,41.8l-0.8,0.8c-0.4-0.5-1.1-0.8-1.8-0.8c-0.6,0-1.1,0.2-1.5,0.6c-0.8,0.8-0.8,2.1,0,2.9l0,0
			c0.4,0.4,1,0.6,1.5,0.6c0.4,0,0.7-0.1,1-0.3s0.5-0.5,0.7-0.8h-1.7v-1h3v0.3c0,0.5-0.1,1-0.4,1.5c-0.3,0.4-0.6,0.8-1.1,1
			c-0.5,0.3-1,0.4-1.5,0.4c-0.6,0-1.2-0.1-1.7-0.4s-0.9-0.7-1.2-1.2c-0.3-0.5-0.4-1-0.4-1.6c0-0.8,0.3-1.5,0.8-2.1
			c0.6-0.7,1.5-1.1,2.4-1.1c0.5,0,1,0.1,1.5,0.3C30.4,41.1,30.8,41.4,31.1,41.8z"/>
		<path class="st0" d="M32.6,40.8h3.3v1.1h-2.2V43h2.2v1.1h-2.2v1.6h2.2v1.1h-3.3V40.8z"/>
		<path class="st0" d="M38.7,40.8H42v1.1h-1.1v4.9h-1.1v-4.9h-1.1C38.7,41.9,38.7,40.8,38.7,40.8z"/>
		<path class="st0" d="M45.6,40.7c0.8,0,1.6,0.3,2.2,0.9c0.6,0.6,0.9,1.4,0.9,2.3c0,0.8-0.3,1.6-0.9,2.2c-1.2,1.2-3.2,1.2-4.4,0
			c-1-1-1.2-2.6-0.5-3.8c0.3-0.5,0.7-0.9,1.1-1.1C44.5,40.8,45.1,40.7,45.6,40.7z M45.6,41.8c-0.5,0-1,0.2-1.4,0.6
			c-0.4,0.4-0.6,0.9-0.6,1.5s0.2,1.2,0.7,1.6c0.4,0.3,0.8,0.5,1.3,0.5s1-0.2,1.4-0.6c0.4-0.4,0.6-0.9,0.6-1.5c0-0.5-0.2-1.1-0.6-1.4
			C46.7,42,46.2,41.8,45.6,41.8z"/>
		<path class="st0" d="M49.8,40.8H51c0.5,0,1,0,1.4,0.2c0.3,0.1,0.5,0.3,0.7,0.6s0.3,0.6,0.3,1s-0.1,0.7-0.3,1s-0.5,0.5-0.9,0.6
			s-0.8,0.1-1.2,0.1v2.5h-1.2V40.8z M51,43.2h0.4c0.2,0,0.4,0,0.6-0.1c0.1,0,0.2-0.1,0.3-0.2c0.1-0.1,0.1-0.2,0.1-0.3
			c0-0.2-0.1-0.4-0.3-0.5C51.9,42,51.6,42,51.4,42H51C51,41.9,51,43.2,51,43.2z"/>
	</g>
</g>
</svg>
