<?xml version="1.0" encoding="utf-8"?>
<!-- Generator: Adobe Illustrator 28.0.0, SVG Export Plug-In . SVG Version: 6.00 Build 0)  -->
<svg version="1.1" id="レイヤー_1" xmlns="http://www.w3.org/2000/svg" xmlns:xlink="http://www.w3.org/1999/xlink" x="0px"
	 y="0px" viewBox="0 0 359.611 52.351" style="enable-background:new 0 0 359.611 52.351;" xml:space="preserve">
<style type="text/css">
	.st0{fill:#009D95;}
	.st1{fill:#231815;}
</style>
<path class="st0" d="M0,22.621l2.865-11.458l6.032,0.018L6.038,22.642L0,22.621z M1.911,2.26L2.105,0l7.734,0.626l-0.2,2.263
	L1.911,2.26z M1.401,7.883L1.598,5.62l7.731,0.626l-0.197,2.26L1.401,7.883z M10.34,21.446l0.966-7.385l-1.172-0.003l0.197-2.269
	l1.249,0.006l0.921-7.087l1.622,0.006l4.416,0.012l10.108,0.03l4.636,0.015l1.395,0.003l-0.662,7.087h0.903l-0.194,2.269
	l-0.942-0.006l-0.468,5.125l0.903,0.003l-0.197,2.26h-0.942l-0.113,1.208l-6.038-0.018l0.116-1.208l-2.522-0.006l-6.038-0.021
	l-2.111-0.003l-4.073-0.012L10.34,21.446z M11.413,3.196l1.631-3.163l6.637,0.021l-0.456,0.903l16.67,0.051l-0.197,2.26
	L18.047,3.214L12.77,3.202L11.413,3.196z M16.682,19.204l2.039,0.006l0.581-5.122l-1.965-0.009L16.682,19.204z M17.612,11.813
	l1.926,0.003l0.498-4.824l-1.81-0.003L17.612,11.813z M27.747,14.109L25.337,14.1l-0.587,5.128l2.531,0.006L27.747,14.109z
	 M28.411,7.019L26.074,7.01l-0.507,4.824l2.415,0.009L28.411,7.019z"/>
<path class="st0" d="M139.222,11.759l4.407-11.339l7.242,0.024l-2.397,6.175l-1.482,16.437l-6.941-0.021l1.017-11.273
	L139.222,11.759z M150.662,6.172l0.197-2.26l7.508,0.021l0.31-3.468l7.845,0.024l-0.31,3.468l7.731,0.024l-0.197,2.26l-7.731-0.024
	l-1.327,14.634l6.789,0.018l-0.194,2.263l-6.792-0.021l-7.842-0.024l-6.038-0.015l0.197-2.263l6.035,0.018l1.327-14.631
	L150.662,6.172z"/>
<path class="st0" d="M183.996,14.004l0.197-2.263l10.373,0.033l0.116-1.205l-4.413-0.015l-5.886-0.018h-0.152l0.507-5.883h0.152
	l5.886,0.018l4.41,0.015l0.119-1.055L182.52,3.593l0.197-2.26l12.782,0.036l0.081-0.793l8.146,0.024l-0.078,0.793l12.898,0.039
	l-0.233,2.257l-12.86-0.039l-0.116,1.055l4.338,0.012l4.186,0.015l1.849,0.006l-0.507,5.883l-1.363-0.003l-4.678-0.015l-4.338-0.012
	l-0.116,1.208l5.468,0.015l4.186,0.015l1.849,0.006l-0.277,3.318l1.434,0.003l-0.236,2.26l-1.395-0.003l-0.313,3.468l-1.357-0.003
	l-4.669-0.015l-5.507-0.018l-0.236,2.376l-8.146-0.024l0.236-2.373l-10.334-0.03l0.194-2.263l10.334,0.03l0.119-1.205l-12.71-0.039
	l0.197-2.26l12.708,0.036l0.08-1.058L183.996,14.004z M194.992,6.947l-4.413-0.012l-0.116,1.354l4.413,0.012L194.992,6.947z
	 M207.983,14.076l-5.507-0.015l-0.078,1.055l5.507,0.015L207.983,14.076z M207.712,17.395l-5.507-0.018l-0.119,1.208l5.51,0.018
	L207.712,17.395z M203.022,8.328l4.338,0.012l0.116-1.354l-4.335-0.015L203.022,8.328z"/>
<path class="st1" d="M225.717,14.416l-2.999,0.146l-0.531-2.627l1.404,0.003c0.403-0.4,0.891-0.912,1.312-1.377
	c-0.728-1.023-1.506-1.959-2.57-3.074l1.562-2.045l0.575,0.578c0.874-1.219,1.455-2.174,1.837-3.107l2.487,1.252
	c-1.008,1.467-1.789,2.463-2.812,3.551l0.596,0.826c0.871-1.091,1.61-2.087,2.278-3.131l2.311,1.386
	c-1.428,1.863-2.812,3.42-4.419,4.97L229,11.685c-0.155-0.623-0.224-0.865-0.444-1.625l2.004-0.617
	c0.242,0.647,0.373,1.07,0.572,1.759c1.607-0.906,2.522-2.349,2.904-4.46l-2.665-0.009l0.006-2.892l10.659,0.036
	c-0.036,3.867-0.221,6.601-0.513,7.582c-0.313,1.023-0.915,1.377-2.406,1.372c-0.713-0.003-1.735-0.075-2.382-0.14l-0.346-2.85
	c0.468,0.092,1.112,0.161,1.646,0.164c0.954,0.003,0.981-0.11,1.142-3.333l-2.403-0.012c-0.385,3.229-1.819,5.626-4.159,6.953
	l-1.285-1.741c0.2,0.733,0.331,1.273,0.507,2.251l-2.183,0.859l-0.107-0.933l-1.246,0.149l-0.027,8.769l-2.579-0.006L225.717,14.416
	z M222.14,20.588c0.495-1.759,0.745-3.378,0.793-5.203l2.379,0.271c-0.095,2.311-0.346,4.362-0.775,6.05L222.14,20.588z
	 M228.431,15.579l2.18-0.617c0.465,1.36,0.796,2.83,1.076,4.788l-2.314,0.862C229.173,18.763,228.869,17.159,228.431,15.579
	 M232.083,13.677l9.52,0.027l-0.027,9.258l-2.958-0.006v-0.868l-3.649-0.012l-0.003,0.912l-2.91-0.012L232.083,13.677z
	 M238.628,19.413l0.009-3.178l-3.649-0.012l-0.009,3.178L238.628,19.413z"/>
<path class="st1" d="M248.133,20.868c2.63-1.306,3.927-3.327,3.936-6.13l0.006-3.092c-1.067,0.754-2.296,1.419-3.608,2.016
	l-1.795-2.83c3.939-1.524,6.867-4.141,8.587-7.698l3.247,0.012c1.881,2.967,4.771,5.242,8.879,7.057l-1.679,3.131
	c-0.865-0.403-2.153-1.118-3.131-1.72l-0.033,11.121l-3.271-0.009l0.039-11.703l2.424,0.003c-2.087-1.47-3.706-3.098-4.815-4.86
	c-0.918,1.911-2.326,3.596-4.288,5.101l2.669,0.009l-0.003,2.627c0.051,4.869-1.291,7.427-4.988,9.481L248.133,20.868z"/>
<path class="st1" d="M276.055,16.235l0.012-3.581c-1.401,0.197-2.782,0.411-4.141,0.614l-0.522-3.074
	c1.601-0.194,3.137-0.394,4.672-0.614l0.018-5.716l3.158,0.009l-0.015,5.251c2.895-0.435,5.877-0.921,9.282-1.533l1.708,1.521
	c-1.589,3.378-3.423,5.686-5.471,7.478l-2.755-1.875c1.318-1.064,2.433-2.194,3.438-3.572c-1.911,0.331-4.028,0.656-6.208,1.008
	l-0.012,3.781c-0.009,1.98,0.483,2.403,3.107,2.412c2.09,0.006,3.471-0.057,6.342-0.447l0.191,3.289
	c-2.761,0.242-4.293,0.28-6.384,0.271C277.621,21.444,276.044,20.17,276.055,16.235"/>
<path class="st1" d="M296.664,18.453l0.477-3.092c4.27,0.79,8.939,1.983,14.535,4.627l-1.3,2.979
	C305.09,20.388,300.803,19.264,296.664,18.453 M297.943,7.418l0.611-3.002c4.356,0.48,8.14,1.276,12.207,2.776l-1.145,3.023
	C304.861,8.533,301.614,7.853,297.943,7.418 M298.817,13.03l0.608-2.982c3.25,0.525,5.829,1.154,9.83,2.677l-1.055,3.02
	C304.354,14.201,301.998,13.596,298.817,13.03"/>
<path class="st1" d="M320.541,21.059c3.632-2.039,5.104-4.544,5.34-8.262l-7.916,0.045l-0.039-3.116c2.94,0.033,5.54,0.042,8.012,0
	c0.003-1.887,0.012-3.825-0.048-5.713l3.289,0.009c-0.072,1.887-0.075,3.781-0.081,5.668c2.248-0.033,4.472-0.095,6.852-0.176
	l0.039,3.157c-2.424,0.039-4.672,0.075-6.92,0.086c-0.215,4.607-1.822,7.806-5.57,10.266L320.541,21.059z"/>
<polygon class="st1" points="340.935,11.664 359.578,11.607 359.611,14.947 340.967,15.003 "/>
<path class="st1" d="M44.029,13.852c0.009-2.183,0.397-6.05,1.145-10.564l3.202,0.543c-0.99,4.446-1.38,8.116-1.386,9.696
	c0,0.468,0.018,0.889,0.042,1.225c0.292-0.868,0.674-1.732,1.142-2.6l1.729,1.92c-0.802,1.464-1.231,2.552-1.455,3.488
	c-0.268,1.088-0.34,2.09-0.209,2.958l-2.451,1.014C44.527,19.264,44.023,16.613,44.029,13.852 M50.639,5.734
	c2.716,0.072,7.078-0.137,9.726-0.531l0.325,3.092c-3.053,0.414-6.899,0.578-9.771,0.572L50.639,5.734z M50.454,16.455
	c0.006-1.115,0.429-2.335,1.7-3.694l2.824,1.014c-0.936,0.841-1.404,1.488-1.41,2.174c0,1.002,0.754,1.449,2.976,1.455
	c1.184,0.003,2.537-0.125,3.986-0.477l0.617,3.184c-1.404,0.262-3.339,0.346-4.186,0.343C52.464,20.439,50.445,19.279,50.454,16.455
	"/>
<path class="st1" d="M66.966,2.999l8.852,0.027l-0.021,7.072l-5.939-0.015L69.82,22.499l-2.913-0.012L66.966,2.999z M73.12,5.886
	l0.003-0.909l-3.25-0.009v0.909L73.12,5.886z M73.114,8.31l0.003-0.951L69.87,7.35l-0.006,0.951L73.114,8.31z M81.147,22.195
	l-0.286-1.98l-0.894,1.53c-1.285-1.184-2.26-1.941-3.569-2.77c-0.874,1.512-2.481,2.642-4.526,3.214l-1.354-2.338
	c2.186-0.531,3.545-1.348,4.15-2.525l-3.96-0.012l0.003-2.162l4.359,0.015l0.003-0.93l-3.87-0.012l0.003-2.027l2.117,0.006
	c-0.265-0.447-0.355-0.602-0.754-1.157l2.338-0.862c0.465,0.778,0.71,1.246,1.061,2.024l1.023,0.003
	c0.334-0.531,0.65-1.175,0.963-2.111l-1.044-0.003l0.021-7.072l8.966,0.024l-0.051,16.932c-0.006,1.759-0.564,2.332-2.227,2.329
	C83.013,22.311,81.993,22.263,81.147,22.195 M82.939,18.709l0.027-8.59l-4.94-0.015l2.287,0.787
	c-0.221,0.555-0.379,0.912-0.647,1.33l1.866,0.006l-0.006,2.03l-3.936-0.015l-0.003,0.93l4.431,0.012l-0.006,2.162l-4.204-0.012
	c1.064,0.447,2.001,0.963,3.554,1.926c0.221,0.021,0.513,0.045,0.781,0.045C82.825,19.306,82.936,19.219,82.939,18.709
	 M82.977,5.912l-0.003-0.906l-3.313-0.009l-0.003,0.906L82.977,5.912z M82.968,8.339l0.006-0.951l-3.319-0.009v0.951L82.968,8.339z"
	/>
<path class="st1" d="M96.317,20.615c2.382-0.793,4.076-1.658,4.791-3.053c-0.534,0.31-1.136,0.465-1.807,0.465
	c-1.935-0.003-3.775-1.375-3.769-4.085c0.009-2.045,1.747-3.62,3.879-3.614c0.513,0,1.05,0.116,1.518,0.313
	c-0.024-0.42-0.045-0.909-0.042-1.446c-4.138,0.146-8.411,0.31-9.902,0.349l-0.146-3.05c2.913-0.012,6.473-0.116,9.967-0.236
	l-0.101-3.646l3.226,0.027c-0.024,1.047-0.048,2.251-0.054,3.471c2.135-0.107,4.118-0.209,5.808-0.337l0.081,3.05
	c-0.889,0.039-3.181,0.146-5.874,0.247c-0.003,1.202,0.015,2.382,0.033,3.429c0.268,0.778,0.465,1.78,0.462,2.871
	c-0.012,3.536-1.598,6.023-5.674,7.543L96.317,20.615z M101.073,14.067c0.003-0.754-0.51-1.422-1.264-1.425
	c-0.713-0.003-1.291,0.686-1.294,1.443c-0.003,0.781,0.48,1.559,1.309,1.562C100.488,15.644,101.07,15.024,101.073,14.067"/>
<path class="st1" d="M117.552,18.322c0.009-1.711,1.524-3.044,3.727-3.038c1.869,0.006,3.581,0.966,4.732,2.731
	c0.713-0.644,1.184-1.464,1.187-2.4c0.003-1.38-1.53-2.454-3.709-2.457c-1.866-0.006-3.474,0.543-4.833,1.431
	c-1.091,0.707-1.852,1.375-3.143,2.707l-2.197-2.388c2.296-1.685,5.644-4.568,8.79-7.961c-1.714,0.242-3.652,0.414-5.23,0.477
	l-0.504-3.056c2.937-0.033,6.187-0.292,9.279-0.841l1.664,2.051c-1.852,1.995-3.414,3.482-5.128,5.012
	c0.623-0.128,1.243-0.218,1.914-0.215c3.581,0.009,6.288,2.111,6.279,5.182c-0.012,3.67-3.602,6.443-8.229,6.428
	C119.457,21.977,117.549,20.46,117.552,18.322 M122.382,19.315c0.403,0,0.775-0.048,1.181-0.131
	c-0.62-0.847-1.375-1.336-2.177-1.342c-0.489-0.003-0.826,0.265-0.826,0.599C120.557,18.888,121.112,19.312,122.382,19.315"/>
<g>
	<path d="M129.538,41.247c0.343,0.06,0.626,0.072,1.181,0.072h2.922c0.596,0,0.868-0.015,1.181-0.06v1.491
		c-0.313-0.03-0.492-0.045-1.103-0.045h-2.999c-0.522,0-0.808,0.015-1.181,0.06V41.247z M129.937,52.351
		c0.045-0.447,0.075-0.927,0.075-1.431v-2.165c0-0.447-0.015-0.763-0.06-1.151c0.343,0.03,0.686,0.045,1.118,0.045h2.508
		c0.566,0,0.716,0,0.969-0.045c-0.015,0.298-0.03,0.537-0.03,1.058v2.341c0,0.435,0.015,0.793,0.06,1.151h-1.446v-0.507h-1.685
		v0.701h-1.509V52.351z M130,39.205c0.388,0.045,0.626,0.06,1.222,0.06h2.075c0.596,0,0.835-0.015,1.222-0.06v1.431
		c-0.343-0.033-0.686-0.048-1.222-0.048h-2.075c-0.537,0-0.85,0.015-1.222,0.048V39.205z M130.059,43.501
		c0.313,0.03,0.477,0.045,0.972,0.045h2.582c0.492,0,0.641,0,0.939-0.045v1.327c-0.328-0.048-0.477-0.048-0.939-0.048h-2.582
		c-0.495,0-0.626,0-0.972,0.048V43.501z M130.059,45.547c0.313,0.03,0.477,0.045,0.972,0.045h2.582c0.492,0,0.641,0,0.939-0.045
		v1.327c-0.313-0.03-0.492-0.048-0.969-0.048h-2.567c-0.462,0-0.626,0-0.954,0.048v-1.327H130.059z M131.416,50.365h1.717v-1.446
		h-1.717V50.365z M139.103,41.65c0.492-0.865,0.927-1.819,1.267-2.85l1.583,0.566c-0.686,1.372-0.835,1.658-1.24,2.284h0.656
		c0.656,0,0.954-0.015,1.312-0.075v1.565c-0.343-0.045-0.745-0.06-1.446-0.06h-1.747v1.446h1.449c0.686,0,1.058-0.015,1.386-0.06
		v1.491c-0.343-0.045-0.73-0.06-1.386-0.06h-1.449v1.658h1.911c0.596,0,1.047-0.018,1.509-0.075v1.61
		c-0.447-0.06-0.868-0.086-1.479-0.086h-1.941v1.521c0,0.701,0.03,1.225,0.089,1.762H137.8c0.06-0.477,0.089-1.058,0.089-1.747
		v-1.536h-1.36c-0.671,0-1.088,0.015-1.521,0.072v-1.595c0.432,0.06,0.835,0.075,1.536,0.075h1.345v-1.658h-1.106
		c-0.656,0-0.954,0.015-1.327,0.06v-1.491c0.388,0.045,0.716,0.06,1.312,0.06h1.118v-1.446h-1.372c-0.671,0-1.029,0.015-1.404,0.06
		v-1.565c0.373,0.063,0.626,0.075,1.267,0.075C136.377,41.65,139.103,41.65,139.103,41.65z M136.774,41.605
		c-0.328-0.883-0.626-1.464-1.106-2.18l1.36-0.626c0.495,0.745,0.716,1.166,1.148,2.165L136.774,41.605z"/>
	<path d="M147.71,46.143c0-1.807,0.045-3.867,0.149-6.509c0.239-0.045,0.477-0.06,0.716-0.06c0.388,0,0.778,0.06,1.181,0.164
		c-0.179,2.549-0.268,4.747-0.268,6.476v0.954c0,1.881,0.701,2.806,2.177,2.806c1.658,0,3.089-0.835,4.508-3.834l1.342,1.267
		c-1.461,3.089-3.581,4.326-5.85,4.326c-2.522,0-3.954-1.237-3.954-4.535V46.143z"/>
	<path d="M165.543,42.499c1.211-0.999,2.269-2.016,3.342-3.178c0.566,0.286,1.136,0.763,1.524,1.285
		c-1.285,1.181-2.522,2.254-3.912,3.375l-1.193,0.936c-0.134,0.119-0.194,0.239-0.194,0.343c0,0.134,0.075,0.253,0.209,0.358
		l1.163,0.82c1.389,1.017,3.059,2.403,4.669,3.939c-0.388,0.507-1.014,1.118-1.58,1.524c-1.506-1.598-2.985-2.985-4.326-4.073
		l-1.345-1.058c-0.537-0.435-0.835-0.865-0.835-1.446c0-0.477,0.224-0.954,0.909-1.538L165.543,42.499z"/>
	<path d="M178.376,39.592c0.507,0,1.133,0.072,1.625,0.224c-0.611,2.985-0.835,5.31-0.835,7.311c0,1.312,0.164,2.922,0.42,4.285
		c-0.447,0.134-1.118,0.209-1.643,0.209c-0.045,0-0.089,0-0.134,0c-0.253-1.419-0.403-3.044-0.403-4.463
		c0-2.12,0.239-4.523,0.835-7.564C178.286,39.592,178.331,39.592,178.376,39.592z M184.944,43.856
		c-0.972,0.033-1.926,0.063-2.85,0.063c-0.194,0-0.388,0-0.581,0c-0.045-0.283-0.075-0.581-0.075-0.894
		c0-0.271,0.015-0.54,0.063-0.793c0.492,0.015,0.999,0.015,1.506,0.015c0.626,0,1.282-0.015,1.923-0.03
		c0-0.897-0.012-1.804-0.06-2.701c0.286-0.045,0.611-0.072,0.927-0.072s0.626,0.03,0.88,0.072c-0.03,0.865-0.045,1.747-0.06,2.612
		c0.865-0.06,1.699-0.134,2.46-0.224c0.063,0.301,0.089,0.659,0.089,0.984c0,0.224-0.015,0.435-0.03,0.614
		c-0.793,0.101-1.643,0.179-2.522,0.253c0.03,1.163,0.06,2.326,0.149,3.491c1.058,0.373,2.117,0.939,3.104,1.685
		c-0.179,0.54-0.566,1.088-0.999,1.446c-0.674-0.555-1.431-1.118-2.016-1.386c-0.048,1.55-1.032,2.46-3.089,2.46
		c-1.732,0-2.791-0.927-2.791-2.284c0-1.255,0.999-2.418,3.074-2.418c0.328,0,0.659,0.03,1.002,0.072
		C184.986,45.827,184.959,44.843,184.944,43.856z M184.047,48.215c-1.014,0-1.446,0.462-1.446,0.939
		c0,0.492,0.403,0.775,1.133,0.775c0.927,0,1.422-0.358,1.422-1.133c0-0.104-0.018-0.268-0.033-0.405
		C184.84,48.293,184.494,48.215,184.047,48.215z"/>
	<path d="M203.955,50.514c0,0.048,0,0.075,0,0.119c-1.732,0.596-3.313,0.82-5.254,0.82c-3.539,0-4.923-1.357-4.97-3.912
		c0.343-0.221,0.85-0.373,1.357-0.373c0.089,0,0.194,0,0.286,0.015c0.119,1.792,0.927,2.493,3.295,2.493
		c1.598,0,3.286-0.268,4.791-0.865C203.758,49.199,203.955,49.93,203.955,50.514z M198.266,42.35c-1.375,0-2.445-0.089-3.372-0.313
		c-0.015-0.089-0.015-0.164-0.015-0.253c0-0.492,0.101-1.058,0.34-1.509c0.82,0.182,1.765,0.271,3.032,0.271
		c1.538,0,2.88-0.063,4.359-0.328c0.191,0.42,0.298,0.969,0.298,1.461c0,0.119,0,0.224-0.015,0.328
		C201.313,42.261,199.924,42.35,198.266,42.35z"/>
	<path d="M212.861,50.037c4.135,0,5.176-0.984,5.176-2.254c0-0.85-0.671-1.372-1.804-1.372c-1.911,0-3.324,0.73-5.131,2.549
		c-0.495-0.134-1.076-0.462-1.404-0.85c0.745-1.538,1.342-3.223,1.759-5c-0.954,0.063-1.911,0.089-2.865,0.104
		c-0.072-0.328-0.116-0.701-0.116-1.073c0-0.209,0.012-0.417,0.045-0.626c1.088,0,2.191-0.015,3.283-0.075
		c0.134-0.79,0.239-1.595,0.313-2.418c0.134-0.015,0.286-0.015,0.432-0.015c0.465,0,0.972,0.072,1.375,0.209
		c-0.119,0.73-0.239,1.431-0.373,2.102c1.342-0.119,2.657-0.298,3.912-0.537c0.119,0.373,0.179,0.835,0.179,1.267
		c0,0.152,0,0.286-0.015,0.42c-1.446,0.224-2.937,0.403-4.446,0.522c-0.268,1.136-0.581,2.135-0.88,2.97l0.06,0.03
		c1.088-0.716,2.403-1.193,3.867-1.193c2.311,0,3.667,1.27,3.667,3.002c0,2.266-1.911,3.954-6.446,3.954L212.861,50.037z"/>
	<path d="M228.395,50.082c4.225-0.134,5.254-1.312,5.254-2.731c0-0.835-0.626-1.461-1.926-1.461c-1.553,0-3.462,0.76-4.967,2.922
		c-0.54-0.015-1.136-0.119-1.568-0.283c0.104-2.105,0.286-4.285,0.581-6.39c0.119-0.015,0.253-0.015,0.388-0.015
		c0.447,0,0.927,0.075,1.33,0.182c-0.343,2.057-0.447,3.071-0.51,3.921l0.063,0.015c1.252-1.208,2.97-1.968,4.684-1.968
		c2.448,0,3.778,1.357,3.778,3.074c0,2.564-2.03,4.27-6.509,4.508L228.395,50.082z M232.158,40.442
		c-0.075,0.492-0.313,1.208-0.54,1.643c-1.342-0.525-3.044-0.969-4.46-1.136c0.119-0.522,0.313-1.151,0.522-1.58
		C229.081,39.5,230.679,39.873,232.158,40.442z"/>
</g>
<g>
	<g>
		<path class="st0" d="M122.898,44.942l-5.036-3.448c-0.233-0.159-0.467-0.244-0.662-0.244c-0.377,0-0.61,0.302-0.61,0.808v7.452
			c0,0.505,0.233,0.807,0.608,0.807c0.195,0,0.426-0.084,0.659-0.244l5.039-3.448c0.324-0.222,0.503-0.521,0.503-0.842
			C123.4,45.463,123.223,45.164,122.898,44.942z"/>
	</g>
</g>
</svg>
